<svg width="335" height="172" viewBox="0 0 335 172" fill="none" xmlns="http://www.w3.org/2000/svg">
<path d="M70.9704 165.349C72.9959 166.291 68.6479 169.952 67.297 168.095C66.9731 167.65 66.4288 167.773 66.7756 167.185C66.9845 166.83 67.2061 166.541 67.4404 166.202C68.1468 165.179 69.8864 165.3 70.9704 165.349ZM68.8626 144.982C69.3161 145.002 70.2091 144.851 70.4246 145.307C70.7181 145.929 70.7991 146.97 70.7676 147.659C70.7372 148.323 71.4279 151.107 70.1017 151.12C69.0915 151.13 67.7905 151.283 67.1491 150.422C65.7529 148.546 68.4565 144.963 68.8626 144.982ZM227.911 5.61545C233.101 5.61544 238.414 5.00369 243.516 6.2742C249.742 7.82476 255.839 10.1075 262.167 11.2243C265.072 11.7369 268.021 12.7114 270.733 13.8551C273.176 14.8855 274.825 16.8099 277.184 19.0072C280.455 22.0525 282.894 25.5338 285.736 28.9009C288.064 31.659 290.586 37.9448 290.875 41.5662C291.1 44.3802 289.519 47.1429 287.935 50.4263C286.646 53.0995 285.393 54.3034 283.933 56.8878C282.107 60.1214 280.35 63.4184 278.663 66.7253C276.811 70.3535 276.466 72.7706 274.192 76.1498C271.28 80.4756 267.311 84.192 264.122 88.3436C260.628 92.8934 258.765 96.5267 255.626 100.329C254.133 102.137 252.971 103.936 250.576 105.348C245.941 108.081 240.232 108.442 235.468 111.23C231.675 113.449 227.831 115.249 223.69 116.8C217.775 119.017 211.657 120.611 205.568 122.418C200.051 124.055 195.49 125.488 188.89 126.849C183.469 127.967 179.486 127.87 174.891 129.066C169.144 130.561 163.723 133.441 157.792 134.167C153.554 134.685 149.178 134.533 144.9 134.337C141.349 134.174 137.87 133.581 134.334 133.346C129.055 132.995 123.739 133.114 118.489 132.874C114.665 132.699 110.949 133.053 107.146 133.368C95.198 134.358 86.552 133.457 76.4785 134.766C72.445 135.29 68.6216 137.109 64.7676 138.213C63.1814 138.667 61.3418 138.987 60.0179 137.925C57.827 136.168 57.2465 132.249 55.8546 129.893C54.8463 128.187 53.9878 126.406 52.0566 125.581C50.467 124.902 48.6878 123.964 47.1596 123.132C45.4818 122.219 43.716 121.33 42.5655 119.769C40.1782 116.53 37.6795 112.495 36.0059 108.837C34.8214 106.249 33.3364 104.832 32.848 99.9396C32.848 96.4887 32.3315 94.2866 34.0034 89.4805C35.4895 84.2748 40.0105 75.129 46.224 72.4259C50.4421 70.591 55.1898 69.6671 59.0503 67.0587C63.0607 64.349 66.3495 60.7359 68.8372 56.6117C70.7227 53.4856 70.7686 50.8108 72.7444 48.1184C74.7202 45.4263 77.3902 44.7591 81.0574 42.9815C84.7249 41.2039 92.4695 38.4886 97.9399 35.6455C101.126 33.9897 104.149 32.0893 107.368 30.5029C109.786 29.3113 112.292 28.9181 114.924 28.315C118.93 27.3971 122.881 26.3963 126.906 25.5692C132.312 24.4582 137.525 23.6856 142.962 22.7009C150.495 21.3365 157.078 18.5083 164.955 18.2041C168.763 18.057 172.442 17.0899 176.216 16.6785C180.23 16.2408 184.114 15.8585 188.05 14.9397C192.169 13.9778 196.002 12.7854 199.966 11.4312C204.468 9.89313 208.999 8.08238 213.531 6.67461C215.558 6.0448 224.236 5.61545 227.911 5.61545ZM296.109 24.1321C297.8 24.0977 298.717 25.5655 299.402 26.9438C299.825 27.7949 300.037 28.4564 300.371 29.4517C301.018 31.3813 304.803 34.6658 301.588 34.5185C299.406 34.4186 297.314 34.49 295.047 33.2053C293.941 32.5786 293.06 32.3252 292.493 31.1879C291.773 29.7454 292.225 28.5315 292.934 27.0837C293.679 25.5632 294.417 24.1667 296.109 24.1321Z" fill="#5CD58C"/>
<path d="M36.3398 109.171C38.3204 109.171 49.0515 110.037 56.7198 108.504C63.4365 107.161 68.0452 106.066 73.0731 102.162C76.0819 99.8263 76.0549 97.3789 78.3911 95.8214C80.7273 94.2639 82.7297 94.4864 87.0902 93.1515C91.4507 91.8165 95.4556 89.7267 104.445 88.7692C113.434 87.8116 120.152 86.8104 126.805 83.473C133.458 80.1356 144.182 83.8067 155.173 81.1368C166.165 78.4669 171.353 76.8954 182.54 73.1271C188.411 71.1496 197.675 67.4321 207.237 63.4486C211.818 61.54 214.267 59.4437 218.918 58.4425C223.568 57.4412 230.675 57.6378 237.941 55.7725C248.119 53.1597 253.584 50.4238 262.638 45.0898C266.686 42.7048 268.379 40.3756 272.65 38.418C277.306 36.2843 281.177 38.0743 285.332 35.0806C286.307 34.3782 287.668 33.0781 287.668 33.0781" stroke="#0BBB51" stroke-width="2.00244" stroke-linecap="round"/>
<path d="M118.44 27.7383C119.775 35.4143 123.78 35.0806 126.116 38.418C131.424 46.0012 124.467 60.1231 131.79 65.7847C136.106 69.1222 142.469 70.1234 145.473 71.1246C148.477 72.1258 150.805 74.3342 152.815 76.4644C154.304 78.0421 154.484 79.1344 155.173 81.1368" stroke="#0BBB51" stroke-width="2.00244" stroke-linecap="round"/>
<path d="M195.2 68.4546C198.204 70.1233 203.544 75.3629 207.571 77.1319C212.889 79.468 219.113 77.8964 224.591 82.138C229.108 85.6351 229.969 89.2704 232.935 94.1526C236.584 100.16 239.922 103.497 242.947 107.836" stroke="#0BBB51" stroke-width="2.00244" stroke-linecap="round"/>
<path d="M189.297 33.268H191.075V46.232H189.297V33.268ZM185.027 37.706H187.183V39.218H185.027V37.706ZM186.679 33.478H188.415V45.644H186.679V33.478ZM182.241 35.382H183.641V36.712C183.641 37.44 183.585 38.1587 183.473 38.868C183.37 39.5773 183.207 40.2493 182.983 40.884C182.759 41.5093 182.465 42.074 182.101 42.578C181.737 43.082 181.298 43.4973 180.785 43.824L179.679 42.452C180.314 42.0507 180.818 41.5467 181.191 40.94C181.564 40.324 181.83 39.652 181.989 38.924C182.157 38.1867 182.241 37.4493 182.241 36.712V35.382ZM182.661 35.382H184.047V36.712C184.047 37.4307 184.126 38.14 184.285 38.84C184.444 39.54 184.705 40.1793 185.069 40.758C185.433 41.3273 185.928 41.794 186.553 42.158L185.475 43.502C184.784 43.0913 184.234 42.536 183.823 41.836C183.412 41.136 183.114 40.3473 182.927 39.47C182.75 38.5833 182.661 37.664 182.661 36.712V35.382ZM180.155 34.57H185.937V36.068H180.155V34.57ZM197.112 34.71H198.736V35.102C198.736 35.55 198.661 35.984 198.512 36.404C198.372 36.824 198.157 37.216 197.868 37.58C197.579 37.9347 197.224 38.2567 196.804 38.546C196.393 38.826 195.917 39.064 195.376 39.26C194.835 39.456 194.233 39.596 193.57 39.68L192.884 38.238C193.463 38.1633 193.976 38.0513 194.424 37.902C194.881 37.7433 195.278 37.5613 195.614 37.356C195.95 37.1413 196.23 36.9127 196.454 36.67C196.678 36.4273 196.841 36.1707 196.944 35.9C197.056 35.6293 197.112 35.3633 197.112 35.102V34.71ZM197.658 34.71H199.268V35.102C199.268 35.3633 199.319 35.6293 199.422 35.9C199.534 36.1707 199.702 36.4273 199.926 36.67C200.15 36.9127 200.43 37.1413 200.766 37.356C201.111 37.5613 201.508 37.7433 201.956 37.902C202.404 38.0513 202.917 38.1633 203.496 38.238L202.81 39.68C202.147 39.596 201.545 39.456 201.004 39.26C200.463 39.064 199.982 38.826 199.562 38.546C199.151 38.2567 198.801 37.9347 198.512 37.58C198.232 37.216 198.017 36.824 197.868 36.404C197.728 35.984 197.658 35.55 197.658 35.102V34.71ZM197.21 41.5H199.072V46.246H197.21V41.5ZM192.324 40.422H204.056V41.92H192.324V40.422ZM193.36 33.94H202.978V35.41H193.36V33.94Z" fill="#006528"/>
<path d="M85.8571 61.178C86.4264 61.178 86.9211 61.3693 87.3411 61.752C87.7704 62.1253 88.0971 62.6667 88.3211 63.376C88.5544 64.076 88.6711 64.916 88.6711 65.896C88.6711 66.8667 88.5544 67.7067 88.3211 68.416C88.0971 69.1253 87.7704 69.6713 87.3411 70.054C86.9211 70.4273 86.4218 70.614 85.8431 70.614C85.2831 70.614 84.7884 70.4273 84.3591 70.054C83.9391 69.6713 83.6124 69.1253 83.3791 68.416C83.1551 67.7067 83.0431 66.8667 83.0431 65.896C83.0431 64.916 83.1551 64.076 83.3791 63.376C83.6124 62.6667 83.9391 62.1253 84.3591 61.752C84.7884 61.3693 85.2878 61.178 85.8571 61.178ZM85.8571 62.942C85.6238 62.942 85.4231 63.0493 85.2551 63.264C85.0871 63.4787 84.9611 63.8053 84.8771 64.244C84.7931 64.6733 84.7511 65.224 84.7511 65.896C84.7511 66.5493 84.7931 67.0953 84.8771 67.534C84.9611 67.9727 85.0871 68.304 85.2551 68.528C85.4231 68.7427 85.6238 68.85 85.8571 68.85C86.0904 68.85 86.2911 68.7427 86.4591 68.528C86.6271 68.304 86.7531 67.9727 86.8371 67.534C86.9211 67.0953 86.9631 66.5493 86.9631 65.896C86.9631 65.224 86.9211 64.6733 86.8371 64.244C86.7531 63.8053 86.6271 63.4787 86.4591 63.264C86.2911 63.0493 86.0904 62.942 85.8571 62.942ZM92.2971 60.268H94.0751V73.232H92.2971V60.268ZM90.7431 65.224H92.8991V66.708H90.7431V65.224ZM89.4691 60.478H91.2051V72.658H89.4691V60.478ZM98.446 65.532H100.308V67.786H98.446V65.532ZM104.368 60.268H106.23V67.772H104.368V60.268ZM95.52 66.12L95.324 64.832C96.1547 64.832 97.0367 64.8273 97.97 64.818C98.9033 64.8087 99.8507 64.7853 100.812 64.748C101.773 64.7107 102.707 64.65 103.612 64.566L103.71 65.714C102.777 65.8447 101.834 65.938 100.882 65.994C99.93 66.05 99.0013 66.0873 98.096 66.106C97.1907 66.1153 96.332 66.12 95.52 66.12ZM97.172 68.178H106.23V71.216H99.034V72.238H97.186V70.04H104.396V69.438H97.172V68.178ZM97.186 71.874H106.538V73.162H97.186V71.874ZM102.086 66.274H104.942V67.394H102.086V66.274ZM99.44 60.464C100.084 60.464 100.649 60.5433 101.134 60.702C101.619 60.8607 101.997 61.0847 102.268 61.374C102.539 61.6633 102.674 62.0087 102.674 62.41C102.674 62.802 102.539 63.1427 102.268 63.432C101.997 63.7213 101.619 63.9453 101.134 64.104C100.649 64.2627 100.084 64.342 99.44 64.342C98.796 64.342 98.2267 64.2627 97.732 64.104C97.2467 63.9453 96.8687 63.7213 96.598 63.432C96.3273 63.1427 96.192 62.802 96.192 62.41C96.192 62.0087 96.3273 61.6633 96.598 61.374C96.8687 61.0847 97.2467 60.8607 97.732 60.702C98.2267 60.5433 98.796 60.464 99.44 60.464ZM99.44 61.682C98.9827 61.682 98.614 61.7427 98.334 61.864C98.0633 61.9853 97.928 62.1673 97.928 62.41C97.928 62.6433 98.0633 62.8207 98.334 62.942C98.614 63.0633 98.9827 63.124 99.44 63.124C99.9067 63.124 100.271 63.0633 100.532 62.942C100.803 62.8207 100.938 62.6433 100.938 62.41C100.938 62.1673 100.803 61.9853 100.532 61.864C100.271 61.7427 99.9067 61.682 99.44 61.682Z" fill="#006528"/>
<path d="M136.294 104.328H139.71V105.826H136.294V104.328ZM132.766 101.262H134.264V103.152C134.264 103.964 134.194 104.753 134.054 105.518C133.914 106.283 133.699 106.997 133.41 107.66C133.12 108.323 132.752 108.906 132.304 109.41C131.865 109.914 131.342 110.32 130.736 110.628L129.574 109.144C130.124 108.883 130.596 108.542 130.988 108.122C131.389 107.702 131.72 107.226 131.982 106.694C132.252 106.153 132.448 105.583 132.57 104.986C132.7 104.379 132.766 103.768 132.766 103.152V101.262ZM133.144 101.262H134.628V103.152C134.628 103.759 134.688 104.361 134.81 104.958C134.931 105.546 135.113 106.097 135.356 106.61C135.608 107.123 135.93 107.581 136.322 107.982C136.714 108.374 137.18 108.691 137.722 108.934L136.602 110.418C135.995 110.119 135.472 109.727 135.034 109.242C134.595 108.747 134.236 108.183 133.956 107.548C133.685 106.913 133.48 106.223 133.34 105.476C133.209 104.729 133.144 103.955 133.144 103.152V101.262ZM138.772 100.254H140.634V113.26H138.772V100.254ZM145.285 107.268H147.161V112.56H145.285V107.268ZM151.291 100.268H153.167V113.232H151.291V100.268ZM142.289 107.73L142.065 106.218C142.923 106.218 143.829 106.213 144.781 106.204C145.733 106.185 146.703 106.153 147.693 106.106C148.682 106.05 149.643 105.971 150.577 105.868L150.703 107.226C149.751 107.366 148.785 107.473 147.805 107.548C146.834 107.613 145.882 107.66 144.949 107.688C144.025 107.707 143.138 107.721 142.289 107.73ZM143.101 101.164H148.197V102.648H143.101V101.164ZM147.525 101.164H149.373V101.906C149.373 102.41 149.354 103.04 149.317 103.796C149.279 104.552 149.158 105.457 148.953 106.512L147.119 106.372C147.315 105.345 147.431 104.463 147.469 103.726C147.506 102.989 147.525 102.382 147.525 101.906V101.164ZM154.513 110.278H166.259V111.79H154.513V110.278ZM159.427 107.338H161.275V110.95H159.427V107.338ZM155.409 101.332H165.293V102.83H155.409V101.332ZM155.479 106.498H165.251V107.968H155.479V106.498ZM157.173 102.564H159.035V106.666H157.173V102.564ZM161.667 102.564H163.529V106.666H161.667V102.564Z" fill="#006528"/>
<path d="M240.955 64.954H242.495V66.102C242.495 66.97 242.36 67.7867 242.089 68.552C241.828 69.3173 241.426 69.9847 240.885 70.554C240.344 71.1233 239.648 71.5527 238.799 71.842L237.819 70.344C238.566 70.1107 239.168 69.7747 239.625 69.336C240.082 68.8973 240.418 68.398 240.633 67.838C240.848 67.278 240.955 66.6993 240.955 66.102V64.954ZM241.333 64.954H242.845V66.018C242.845 66.5873 242.943 67.138 243.139 67.67C243.335 68.1927 243.648 68.6593 244.077 69.07C244.506 69.4713 245.062 69.784 245.743 70.008L244.777 71.464C243.984 71.184 243.33 70.778 242.817 70.246C242.313 69.714 241.94 69.0887 241.697 68.37C241.454 67.642 241.333 66.858 241.333 66.018V64.954ZM246.919 64.282H248.795V71.87H246.919V64.282ZM244.399 72.206C245.771 72.206 246.854 72.43 247.647 72.878C248.44 73.3167 248.837 73.928 248.837 74.712C248.837 75.5147 248.44 76.1353 247.647 76.574C246.854 77.022 245.771 77.246 244.399 77.246C243.027 77.246 241.944 77.022 241.151 76.574C240.358 76.1353 239.961 75.5147 239.961 74.712C239.961 73.928 240.358 73.3167 241.151 72.878C241.944 72.43 243.027 72.206 244.399 72.206ZM244.399 73.648C243.839 73.648 243.368 73.6853 242.985 73.76C242.602 73.8347 242.308 73.956 242.103 74.124C241.907 74.2827 241.809 74.4787 241.809 74.712C241.809 74.9547 241.907 75.16 242.103 75.328C242.308 75.4867 242.602 75.608 242.985 75.692C243.368 75.7667 243.839 75.804 244.399 75.804C244.959 75.804 245.43 75.7667 245.813 75.692C246.196 75.608 246.485 75.4867 246.681 75.328C246.877 75.16 246.975 74.9547 246.975 74.712C246.975 74.4787 246.877 74.2827 246.681 74.124C246.485 73.956 246.196 73.8347 245.813 73.76C245.43 73.6853 244.959 73.648 244.399 73.648ZM244.553 66.634H247.199V68.146H244.553V66.634ZM253.222 65.066H254.762V66.466C254.762 67.3247 254.627 68.132 254.356 68.888C254.095 69.6347 253.693 70.288 253.152 70.848C252.62 71.408 251.939 71.828 251.108 72.108L250.114 70.666C250.851 70.4233 251.449 70.0873 251.906 69.658C252.363 69.2193 252.695 68.7247 252.9 68.174C253.115 67.614 253.222 67.0447 253.222 66.466V65.066ZM253.6 65.066H255.112V66.48C255.112 66.8907 255.168 67.2967 255.28 67.698C255.392 68.09 255.569 68.4633 255.812 68.818C256.055 69.1633 256.363 69.476 256.736 69.756C257.109 70.0267 257.557 70.246 258.08 70.414L257.128 71.87C256.316 71.5993 255.649 71.198 255.126 70.666C254.613 70.1247 254.23 69.4947 253.978 68.776C253.726 68.0573 253.6 67.292 253.6 66.48V65.066ZM258.654 64.282H260.516V73.76H258.654V64.282ZM259.998 68.034H262.238V69.56H259.998V68.034ZM252.172 75.524H260.978V77.022H252.172V75.524ZM252.172 72.85H254.048V76.322H252.172V72.85Z" fill="#006528"/>
</svg>
