<svg width="335" height="172" viewBox="0 0 335 172" fill="none" xmlns="http://www.w3.org/2000/svg">
<path d="M70.9706 165.351C72.9962 166.293 68.6482 169.953 67.2972 168.097C66.9734 167.651 66.429 167.774 66.7759 167.186C66.9847 166.832 67.2064 166.542 67.4407 166.203C68.147 165.18 69.8867 165.301 70.9706 165.351ZM68.8629 144.983C69.3164 145.004 70.2093 144.852 70.4249 145.308C70.7184 145.931 70.7994 146.972 70.7678 147.661C70.7375 148.324 71.4282 151.108 70.102 151.121C69.0917 151.131 67.7907 151.284 67.1494 150.423C65.7532 148.547 68.4568 144.964 68.8629 144.983ZM227.912 5.61657C233.101 5.61657 238.414 5.00481 243.516 6.27533C249.742 7.82589 255.84 10.1086 262.168 11.2254C265.072 11.738 268.021 12.7126 270.733 13.8563C273.176 14.8866 274.825 16.8111 277.185 19.0083C280.455 22.0536 282.894 25.5349 285.736 28.902C288.064 31.6602 290.586 37.9459 290.875 41.5673C291.1 44.3814 289.52 47.144 287.936 50.4275C286.646 53.1007 285.393 54.3045 283.934 56.8889C282.108 60.1225 280.351 63.4195 278.663 66.7264C276.811 70.3546 276.466 72.7717 274.192 76.151C271.28 80.4767 267.312 84.1931 264.123 88.3448C260.628 92.8946 258.766 96.5278 255.626 100.33C254.134 102.138 252.971 103.937 250.576 105.349C245.942 108.082 240.232 108.443 235.468 111.231C231.675 113.45 227.831 115.25 223.69 116.802C217.775 119.018 211.657 120.612 205.568 122.419C200.051 124.056 195.49 125.49 188.89 126.85C183.469 127.968 179.486 127.871 174.891 129.067C169.144 130.563 163.723 133.442 157.792 134.168C153.554 134.687 149.178 134.534 144.9 134.338C141.349 134.176 137.87 133.582 134.335 133.347C129.055 132.996 123.739 133.115 118.489 132.875C114.665 132.7 110.949 133.054 107.146 133.369C95.1983 134.359 86.5522 133.458 76.4788 134.767C72.4453 135.291 68.6219 137.11 64.7678 138.214C63.1816 138.668 61.3421 138.988 60.0182 137.926C57.8273 136.169 57.2468 132.25 55.8549 129.894C54.8466 128.188 53.9881 126.407 52.0569 125.582C50.4672 124.904 48.688 123.965 47.1599 123.133C45.4821 122.22 43.7163 121.331 42.5658 119.77C40.1785 116.532 37.6798 112.496 36.0062 108.839C34.8217 106.25 33.3367 104.833 32.8483 99.9407C32.8483 96.4898 32.3318 94.2878 34.0037 89.4816C35.4898 84.276 40.0108 75.1301 46.2243 72.4271C50.4424 70.5921 55.1901 69.6682 59.0506 67.0599C63.061 64.3501 66.3498 60.7371 68.8375 56.6128C70.723 53.4868 70.7688 50.812 72.7447 48.1195C74.7205 45.4275 77.3904 44.7602 81.0577 42.9827C84.7252 41.205 92.4697 38.4897 97.9402 35.6466C101.126 33.9908 104.149 32.0904 107.368 30.5041C109.786 29.3124 112.292 28.9193 114.924 28.3161C118.93 27.3982 122.881 26.3974 126.906 25.5703C132.312 24.4594 137.525 23.6868 142.962 22.7021C150.495 21.3377 157.079 18.5095 164.956 18.2053C168.763 18.0582 172.442 17.091 176.216 16.6796C180.231 16.242 184.115 15.8597 188.05 14.9408C192.169 13.9789 196.002 12.7866 199.966 11.4323C204.468 9.89425 208.999 8.08351 213.531 6.67573C215.558 6.04592 224.236 5.61657 227.912 5.61657ZM296.11 24.1332C297.8 24.0988 298.716 25.5657 299.402 26.9439C299.825 27.7952 300.037 28.4566 300.371 29.4518C301.018 31.3815 304.804 34.6669 301.589 34.5197C299.406 34.4198 297.314 34.4911 295.047 33.2064C293.941 32.5797 293.061 32.3262 292.493 31.189C291.773 29.7466 292.225 28.5326 292.934 27.0848C293.679 25.5642 294.417 24.1677 296.11 24.1332Z" fill="#5CD58C"/>
<path d="M36.3397 109.172C38.3203 109.172 49.0515 110.038 56.7197 108.505C63.4365 107.162 68.0451 106.067 73.073 102.163C76.0819 99.8273 76.0549 97.3798 78.3911 95.8224C80.7273 94.2649 82.7297 94.4874 87.0902 93.1524C91.4506 91.8174 95.4555 89.7277 104.445 88.7701C113.434 87.8126 120.152 86.8113 126.805 83.4739C133.458 80.1366 144.182 83.8077 155.173 81.1378C166.165 78.4679 171.353 76.8964 182.54 73.128C188.411 71.1506 197.675 67.4331 207.237 63.4495C211.818 61.541 214.267 59.4447 218.918 58.4434C223.568 57.4422 230.675 57.6388 237.941 55.7735C248.119 53.1607 253.584 50.4248 262.638 45.0907C266.686 42.7057 268.379 40.3766 272.65 38.419C277.306 36.2853 281.177 38.0753 285.332 35.0816C286.307 34.3791 287.668 33.0791 287.668 33.0791" stroke="#0BBB51" stroke-width="2.00244" stroke-linecap="round"/>
<path d="M159 20C160.335 27.676 162.84 22.8423 165.176 26.1797C170.484 33.7629 163.527 47.8848 170.85 53.5465C175.166 56.8839 181.529 57.8851 184.533 58.8863C187.537 59.8875 189.865 62.0959 191.875 64.2262C193.364 65.8038 193.544 66.8961 194.233 68.8985" stroke="#0BBB51" stroke-width="2.00244" stroke-linecap="round"/>
<path d="M94.0001 38C95.3351 45.676 92.5 45.5 95.5 53C98.5 60.5 106 62.5 107 68.5C108.646 78.3763 119.861 70.9412 119.533 76.8863C119.205 82.8314 124.865 80.0959 126.875 82.2262" stroke="#0BBB51" stroke-width="2.00244" stroke-linecap="round"/>
<path d="M164.327 98.8242C164.327 101.121 165.421 103.377 167.39 104.238L166.474 105.455C165.072 104.771 164.088 103.459 163.562 101.846C163.021 103.548 162.017 104.963 160.595 105.688L159.638 104.457C161.647 103.514 162.769 101.135 162.782 98.8242V96.8555H164.327V98.8242ZM170.124 95.8574V108.23H168.62V101.08H166.022V99.8496H168.62V95.8574H170.124ZM181.847 95.8574V108.217H180.315V95.8574H181.847ZM171.278 101.6C172.837 101.6 174.614 101.586 176.405 101.504C176.686 99.9795 176.747 98.8174 176.774 97.9766H172.317V96.7461H178.278V97.3887C178.278 98.2158 178.278 99.5557 177.964 101.408C178.497 101.374 179.023 101.326 179.536 101.271L179.646 102.406C178.463 102.563 177.253 102.666 176.063 102.734V107.52H174.532V102.803C173.459 102.837 172.427 102.851 171.47 102.857L171.278 101.6ZM194.253 105.51V106.781H182.96V105.51H187.813V103.076H183.931V101.873H185.667V98.1816H183.89V96.9512H193.269V98.1816H191.464V101.873H193.228V103.076H189.317V105.51H194.253ZM187.185 101.873H189.96V98.1816H187.185V101.873Z" fill="#006528"/>
<path d="M130.35 47.8008C131.99 47.8008 133.057 49.4824 133.07 52.2031C133.057 54.9238 131.99 56.6328 130.35 56.6191C128.736 56.6328 127.684 54.9238 127.684 52.2031C127.684 49.4824 128.736 47.8008 130.35 47.8008ZM130.35 49.2363C129.57 49.2227 129.078 50.2754 129.092 52.2031C129.078 54.1309 129.57 55.1836 130.35 55.1699C131.17 55.1836 131.662 54.1309 131.662 52.2031C131.662 50.2754 131.17 49.2227 130.35 49.2363ZM138.225 46.8574V59.2168H136.762V52.8867H135.449V58.6152H134.014V47.0762H135.449V51.6289H136.762V46.8574H138.225ZM149.523 46.8711V54.0762H147.992V53.5703H145.682V52.6406H147.992V46.8711H149.523ZM139.146 51.3281C141.539 51.3281 144.52 51.3008 147.172 51.041L147.254 51.998C146.126 52.1553 144.964 52.251 143.822 52.2988V54.0898H142.318V52.3672C141.259 52.3945 140.24 52.4014 139.311 52.3945L139.146 51.3281ZM149.523 54.459V57.2344H142.496V58.0273H149.852V59.1074H141.006V56.2363H148.02V55.498H140.951V54.459H149.523ZM143.139 47.0625C144.971 47.0625 146.229 47.8008 146.229 48.9219C146.229 50.0703 144.971 50.7676 143.139 50.7676C141.266 50.7676 140.021 50.0703 140.021 48.9219C140.021 47.8008 141.266 47.0625 143.139 47.0625ZM143.139 48.0742C142.1 48.0742 141.457 48.4023 141.471 48.9219C141.457 49.4414 142.1 49.7559 143.139 49.7559C144.15 49.7559 144.807 49.4414 144.807 48.9219C144.807 48.4023 144.15 48.0742 143.139 48.0742Z" fill="#006528"/>
<path d="M71.3086 73.8711V77.7539H73.0312V79.0117H71.3086V83.0996H69.791V73.8711H71.3086ZM68.9023 75.2383V76.4551H61.5742V75.2383H64.4863V73.8574H66.0039V75.2383H68.9023ZM65.2383 76.9609C67.0156 76.9609 68.2461 77.9043 68.2598 79.3262C68.2461 80.7344 67.0156 81.6641 65.2383 81.6641C63.4473 81.6641 62.2031 80.7344 62.2031 79.3262C62.2031 77.9043 63.4473 76.9609 65.2383 76.9609ZM65.2383 78.1367C64.2949 78.1367 63.6797 78.5742 63.6797 79.3262C63.6797 80.0645 64.2949 80.502 65.2383 80.4883C66.1816 80.502 66.8105 80.0645 66.8105 79.3262C66.8105 78.5742 66.1816 78.1367 65.2383 78.1367ZM71.8008 84.7402V85.9707H63.3926V82.375H64.9102V84.7402H71.8008ZM83.4551 73.8711V81.1992H81.9238V73.8711H83.4551ZM79.4902 74.5957V78.1777H75.3066V79.4629C77.4258 79.4561 78.9229 79.4014 80.6934 79.1074L80.8848 80.3379C78.9297 80.6523 77.2617 80.707 74.8691 80.707H73.8164V77.0156H77.9863V75.7988H73.7891V74.5957H79.4902ZM83.4551 81.7734V86.0664H75.252V81.7734H83.4551ZM76.7559 82.9902V84.8359H81.9648V82.9902H76.7559Z" fill="#006528"/>
<path d="M217.197 24.8574V37.2168H215.748V24.8574H217.197ZM214.682 25.0898V36.6152H213.246V30.3945H211.469V29.1641H213.246V25.0898H214.682ZM210.375 28.2344C210.375 30.3262 211.127 32.418 212.891 33.4297L211.988 34.5508C210.847 33.8672 210.088 32.6914 209.664 31.2832C209.227 32.8076 208.44 34.1064 207.271 34.8379L206.342 33.7031C208.133 32.623 208.912 30.3809 208.912 28.2344V27.4141H206.766V26.1836H212.371V27.4141H210.375V28.2344ZM229.426 31.748V32.9785H224.518V37.2031H223.014V32.9785H218.16V31.748H229.426ZM228.387 25.5547V26.7578H224.682C224.771 28.1113 226.397 29.4102 228.838 29.7246L228.291 30.9141C226.186 30.6201 224.545 29.6562 223.793 28.3164C223.041 29.6562 221.4 30.6201 219.322 30.9141L218.748 29.7246C221.175 29.4102 222.802 28.1113 222.918 26.7578H219.199V25.5547H228.387Z" fill="#006528"/>
</svg>
