<svg width="512" height="512" version="1.1" xmlns="http://www.w3.org/2000/svg" desc="Created with imagetracer.js version 1.2.6" ><path fill="rgb(223,205,210)" stroke="rgb(223,205,210)" stroke-width="1" opacity="1" d="M 242.5 72 L 252 72.5 L 242.5 73 L 242.5 72 Z " /><path fill="rgb(223,205,210)" stroke="rgb(223,205,210)" stroke-width="1" opacity="1" d="M 260.5 72 L 270 72.5 L 260.5 73 L 260.5 72 Z " /><path fill="rgb(223,205,210)" stroke="rgb(223,205,210)" stroke-width="1" opacity="1" d="M 233.5 73 L 236 73.5 L 233.5 74 L 233.5 73 Z " /><path fill="rgb(223,205,210)" stroke="rgb(223,205,210)" stroke-width="1" opacity="1" d="M 276.5 73 L 280 73.5 L 276.5 74 L 276.5 73 Z " /><path fill="rgb(223,205,210)" stroke="rgb(223,205,210)" stroke-width="1" opacity="1" d="M 225.5 74 L 228 74.5 L 225.5 75 L 225.5 74 Z " /><path fill="rgb(223,205,210)" stroke="rgb(223,205,210)" stroke-width="1" opacity="1" d="M 284.5 74 L 287 74.5 L 284.5 75 L 284.5 74 Z " /><path fill="rgb(223,205,210)" stroke="rgb(223,205,210)" stroke-width="1" opacity="1" d="M 342.5 93 L 343.5 95 L 342.5 93 Z " /><path fill="rgb(223,205,210)" stroke="rgb(223,205,210)" stroke-width="1" opacity="1" d="M 162.5 97 L 161.5 99 L 162.5 97 Z " /><path fill="rgb(223,205,210)" stroke="rgb(223,205,210)" stroke-width="1" opacity="1" d="M 349.5 97 L 350.5 99 L 349.5 97 Z " /><path fill="rgb(223,205,210)" stroke="rgb(223,205,210)" stroke-width="1" opacity="1" d="M 154.5 102 L 153.5 104 L 154.5 102 Z " /><path fill="rgb(223,205,210)" stroke="rgb(223,205,210)" stroke-width="1" opacity="1" d="M 357.5 102 L 358.5 104 L 357.5 102 Z " /><path fill="rgb(223,205,210)" stroke="rgb(223,205,210)" stroke-width="1" opacity="1" d="M 360.5 104 L 361.5 106 L 360.5 104 Z " /><path fill="rgb(223,205,210)" stroke="rgb(223,205,210)" stroke-width="1" opacity="1" d="M 147.5 107 L 146.5 109 L 147.5 107 Z " /><path fill="rgb(223,205,210)" stroke="rgb(223,205,210)" stroke-width="1" opacity="1" d="M 364.5 107 L 365.5 109 L 364.5 107 Z " /><path fill="rgb(223,205,210)" stroke="rgb(223,205,210)" stroke-width="1" opacity="1" d="M 143.5 110 L 142.5 112 L 143.5 110 Z " /><path fill="rgb(223,205,210)" stroke="rgb(223,205,210)" stroke-width="1" opacity="1" d="M 368.5 110 L 369.5 112 L 368.5 110 Z " /><path fill="rgb(223,205,210)" stroke="rgb(223,205,210)" stroke-width="1" opacity="1" d="M 372.5 113 L 375.5 117 L 372.5 113 Z " /><path fill="rgb(223,205,210)" stroke="rgb(223,205,210)" stroke-width="1" opacity="1" d="M 138.5 114 L 135.5 118 L 138.5 114 Z " /><path fill="rgb(223,205,210)" stroke="rgb(223,205,210)" stroke-width="1" opacity="1" d="M 131.5 120 L 120.5 132 L 131.5 120 Z " /><path fill="rgb(223,205,210)" stroke="rgb(223,205,210)" stroke-width="1" opacity="1" d="M 380.5 120 L 391.5 132 L 380.5 120 Z " /><path fill="rgb(223,205,210)" stroke="rgb(223,205,210)" stroke-width="1" opacity="1" d="M 117.5 135 L 113.5 140 L 117.5 135 Z " /><path fill="rgb(223,205,210)" stroke="rgb(223,205,210)" stroke-width="1" opacity="1" d="M 395.5 136 L 397.5 139 L 395.5 136 Z " /><path fill="rgb(223,205,210)" stroke="rgb(223,205,210)" stroke-width="1" opacity="1" d="M 111.5 142 L 110.5 144 L 111.5 142 Z " /><path fill="rgb(223,205,210)" stroke="rgb(223,205,210)" stroke-width="1" opacity="1" d="M 400.5 142 L 401.5 144 L 400.5 142 Z " /><path fill="rgb(223,205,210)" stroke="rgb(223,205,210)" stroke-width="1" opacity="1" d="M 108.5 146 L 107.5 148 L 108.5 146 Z " /><path fill="rgb(223,205,210)" stroke="rgb(223,205,210)" stroke-width="1" opacity="1" d="M 403.5 146 L 404.5 148 L 403.5 146 Z " /><path fill="rgb(223,205,210)" stroke="rgb(223,205,210)" stroke-width="1" opacity="1" d="M 105.5 150 L 104.5 152 L 105.5 150 Z " /><path fill="rgb(223,205,210)" stroke="rgb(223,205,210)" stroke-width="1" opacity="1" d="M 406.5 150 L 407.5 152 L 406.5 150 Z " /><path fill="rgb(223,205,210)" stroke="rgb(223,205,210)" stroke-width="1" opacity="1" d="M 286.5 152 L 289 152.5 L 286.5 153 L 286.5 152 Z " /><path fill="rgb(223,205,210)" stroke="rgb(223,205,210)" stroke-width="1" opacity="1" d="M 103.5 153 L 102.5 155 L 103.5 153 Z " /><path fill="rgb(223,205,210)" stroke="rgb(223,205,210)" stroke-width="1" opacity="1" d="M 292.5 153 L 295 153.5 L 292.5 154 L 292.5 153 Z " /><path fill="rgb(223,205,210)" stroke="rgb(223,205,210)" stroke-width="1" opacity="1" d="M 408.5 153 L 409.5 155 L 408.5 153 Z " /><path fill="rgb(223,205,210)" stroke="rgb(223,205,210)" stroke-width="1" opacity="1" d="M 196.5 158 L 195.5 160 L 196.5 158 Z " /><path fill="rgb(223,205,210)" stroke="rgb(223,205,210)" stroke-width="1" opacity="1" d="M 98.5 161 L 97.5 163 L 98.5 161 Z " /><path fill="rgb(223,205,210)" stroke="rgb(223,205,210)" stroke-width="1" opacity="1" d="M 413.5 161 L 414.5 163 L 413.5 161 Z " /><path fill="rgb(223,205,210)" stroke="rgb(223,205,210)" stroke-width="1" opacity="1" d="M 322.5 166 L 323.5 168 L 322.5 166 Z " /><path fill="rgb(223,205,210)" stroke="rgb(223,205,210)" stroke-width="1" opacity="1" d="M 94.5 168 L 94 169.5 L 92.5 172 L 93 170.5 L 94.5 168 Z " /><path fill="rgb(223,205,210)" stroke="rgb(223,205,210)" stroke-width="1" opacity="1" d="M 327.5 170 L 334.5 178 L 327.5 170 Z " /><path fill="rgb(223,205,210)" stroke="rgb(223,205,210)" stroke-width="1" opacity="1" d="M 336.5 180 L 337.5 182 L 336.5 180 Z " /><path fill="rgb(223,205,210)" stroke="rgb(223,205,210)" stroke-width="1" opacity="1" d="M 241.5 200 L 242 243.5 L 241 243.5 L 241.5 200 Z " /><path fill="rgb(223,205,210)" stroke="rgb(223,205,210)" stroke-width="1" opacity="1" d="M 283.5 200 L 286 200.5 L 283.5 201 L 283.5 200 Z " /><path fill="rgb(223,205,210)" stroke="rgb(223,205,210)" stroke-width="1" opacity="1" d="M 298.5 209 L 299.5 211 L 298.5 209 Z " /><path fill="rgb(223,205,210)" stroke="rgb(223,205,210)" stroke-width="1" opacity="1" d="M 350.5 213 L 351 218.5 L 350 218.5 L 350.5 213 Z " /><path fill="rgb(223,205,210)" stroke="rgb(223,205,210)" stroke-width="1" opacity="1" d="M 302.5 219 L 303 224.5 L 302 224.5 L 302.5 219 Z " /><path fill="rgb(223,205,210)" stroke="rgb(223,205,210)" stroke-width="1" opacity="1" d="M 74.5 225 L 75 227.5 L 74 227.5 L 74.5 225 Z " /><path fill="rgb(223,205,210)" stroke="rgb(223,205,210)" stroke-width="1" opacity="1" d="M 350.5 225 L 351 229.5 L 350 229.5 L 350.5 225 Z " /><path fill="rgb(223,205,210)" stroke="rgb(223,205,210)" stroke-width="1" opacity="1" d="M 437.5 225 L 438 227.5 L 437 227.5 L 437.5 225 Z " /><path fill="rgb(223,205,210)" stroke="rgb(223,205,210)" stroke-width="1" opacity="1" d="M 73.5 232 L 74 235.5 L 73 235.5 L 73.5 232 Z " /><path fill="rgb(223,205,210)" stroke="rgb(223,205,210)" stroke-width="1" opacity="1" d="M 438.5 232 L 439 235.5 L 438 235.5 L 438.5 232 Z " /><path fill="rgb(223,205,210)" stroke="rgb(223,205,210)" stroke-width="1" opacity="1" d="M 299.5 233 L 298.5 235 L 299.5 233 Z " /><path fill="rgb(223,205,210)" stroke="rgb(223,205,210)" stroke-width="1" opacity="1" d="M 293.5 239 L 292.5 241 L 293.5 239 Z " /><path fill="rgb(223,205,210)" stroke="rgb(223,205,210)" stroke-width="1" opacity="1" d="M 72.5 242 L 73 251.5 L 72 251.5 L 72.5 242 Z " /><path fill="rgb(223,205,210)" stroke="rgb(223,205,210)" stroke-width="1" opacity="1" d="M 439.5 242 L 440 251.5 L 439 251.5 L 439.5 242 Z " /><path fill="rgb(223,205,210)" stroke="rgb(223,205,210)" stroke-width="1" opacity="1" d="M 283.5 243 L 286 243.5 L 283.5 244 L 283.5 243 Z " /><path fill="rgb(223,205,210)" stroke="rgb(223,205,210)" stroke-width="1" opacity="1" d="M 72.5 260 L 73 269.5 L 72 269.5 L 72.5 260 Z " /><path fill="rgb(223,205,210)" stroke="rgb(223,205,210)" stroke-width="1" opacity="1" d="M 439.5 260 L 440 269.5 L 439 269.5 L 439.5 260 Z " /><path fill="rgb(223,205,210)" stroke="rgb(223,205,210)" stroke-width="1" opacity="1" d="M 336.5 264 L 335.5 266 L 336.5 264 Z " /><path fill="rgb(223,205,210)" stroke="rgb(223,205,210)" stroke-width="1" opacity="1" d="M 331.5 270 L 329.5 273 L 331.5 270 Z " /><path fill="rgb(223,205,210)" stroke="rgb(223,205,210)" stroke-width="1" opacity="1" d="M 73.5 276 L 74 279.5 L 73 279.5 L 73.5 276 Z " /><path fill="rgb(223,205,210)" stroke="rgb(223,205,210)" stroke-width="1" opacity="1" d="M 324.5 276 L 323.5 278 L 324.5 276 Z " /><path fill="rgb(223,205,210)" stroke="rgb(223,205,210)" stroke-width="1" opacity="1" d="M 438.5 276 L 439 279.5 L 438 279.5 L 438.5 276 Z " /><path fill="rgb(223,205,210)" stroke="rgb(223,205,210)" stroke-width="1" opacity="1" d="M 320.5 279 L 319.5 281 L 320.5 279 Z " /><path fill="rgb(223,205,210)" stroke="rgb(223,205,210)" stroke-width="1" opacity="1" d="M 74.5 284 L 75 286.5 L 74 286.5 L 74.5 284 Z " /><path fill="rgb(223,205,210)" stroke="rgb(223,205,210)" stroke-width="1" opacity="1" d="M 437.5 284 L 438 286.5 L 437 286.5 L 437.5 284 Z " /><path fill="rgb(223,205,210)" stroke="rgb(223,205,210)" stroke-width="1" opacity="1" d="M 288.5 291 L 291 291.5 L 288.5 292 L 288.5 291 Z " /><path fill="rgb(223,205,210)" stroke="rgb(223,205,210)" stroke-width="1" opacity="1" d="M 241.5 292 L 242 359.5 L 241 359.5 L 241.5 292 Z " /><path fill="rgb(223,205,210)" stroke="rgb(223,205,210)" stroke-width="1" opacity="1" d="M 92.5 340 L 93.5 342 L 92.5 340 Z " /><path fill="rgb(223,205,210)" stroke="rgb(223,205,210)" stroke-width="1" opacity="1" d="M 419.5 340 L 418.5 342 L 419.5 340 Z " /><path fill="rgb(223,205,210)" stroke="rgb(223,205,210)" stroke-width="1" opacity="1" d="M 97.5 349 L 98.5 351 L 97.5 349 Z " /><path fill="rgb(223,205,210)" stroke="rgb(223,205,210)" stroke-width="1" opacity="1" d="M 414.5 349 L 413.5 351 L 414.5 349 Z " /><path fill="rgb(223,205,210)" stroke="rgb(223,205,210)" stroke-width="1" opacity="1" d="M 102.5 357 L 103.5 359 L 102.5 357 Z " /><path fill="rgb(223,205,210)" stroke="rgb(223,205,210)" stroke-width="1" opacity="1" d="M 409.5 357 L 408.5 359 L 409.5 357 Z " /><path fill="rgb(223,205,210)" stroke="rgb(223,205,210)" stroke-width="1" opacity="1" d="M 104.5 360 L 105.5 362 L 104.5 360 Z " /><path fill="rgb(223,205,210)" stroke="rgb(223,205,210)" stroke-width="1" opacity="1" d="M 107.5 364 L 108.5 366 L 107.5 364 Z " /><path fill="rgb(223,205,210)" stroke="rgb(223,205,210)" stroke-width="1" opacity="1" d="M 404.5 364 L 403.5 366 L 404.5 364 Z " /><path fill="rgb(223,205,210)" stroke="rgb(223,205,210)" stroke-width="1" opacity="1" d="M 110.5 368 L 112.5 371 L 110.5 368 Z " /><path fill="rgb(223,205,210)" stroke="rgb(223,205,210)" stroke-width="1" opacity="1" d="M 401.5 368 L 399.5 371 L 401.5 368 Z " /><path fill="rgb(223,205,210)" stroke="rgb(223,205,210)" stroke-width="1" opacity="1" d="M 114.5 373 L 117.5 377 L 114.5 373 Z " /><path fill="rgb(223,205,210)" stroke="rgb(223,205,210)" stroke-width="1" opacity="1" d="M 397.5 373 L 395.5 376 L 397.5 373 Z " /><path fill="rgb(223,205,210)" stroke="rgb(223,205,210)" stroke-width="1" opacity="1" d="M 120.5 380 L 131.5 392 L 120.5 380 Z " /><path fill="rgb(223,205,210)" stroke="rgb(223,205,210)" stroke-width="1" opacity="1" d="M 391.5 380 L 380.5 392 L 391.5 380 Z " /><path fill="rgb(223,205,210)" stroke="rgb(223,205,210)" stroke-width="1" opacity="1" d="M 135.5 394 L 138.5 398 L 135.5 394 Z " /><path fill="rgb(223,205,210)" stroke="rgb(223,205,210)" stroke-width="1" opacity="1" d="M 375.5 395 L 372.5 399 L 375.5 395 Z " /><path fill="rgb(223,205,210)" stroke="rgb(223,205,210)" stroke-width="1" opacity="1" d="M 141.5 399 L 143.5 402 L 141.5 399 Z " /><path fill="rgb(223,205,210)" stroke="rgb(223,205,210)" stroke-width="1" opacity="1" d="M 370.5 399 L 368.5 402 L 370.5 399 Z " /><path fill="rgb(223,205,210)" stroke="rgb(223,205,210)" stroke-width="1" opacity="1" d="M 146.5 403 L 147.5 405 L 146.5 403 Z " /><path fill="rgb(223,205,210)" stroke="rgb(223,205,210)" stroke-width="1" opacity="1" d="M 365.5 403 L 364.5 405 L 365.5 403 Z " /><path fill="rgb(223,205,210)" stroke="rgb(223,205,210)" stroke-width="1" opacity="1" d="M 361.5 406 L 360.5 408 L 361.5 406 Z " /><path fill="rgb(223,205,210)" stroke="rgb(223,205,210)" stroke-width="1" opacity="1" d="M 153.5 408 L 154.5 410 L 153.5 408 Z " /><path fill="rgb(223,205,210)" stroke="rgb(223,205,210)" stroke-width="1" opacity="1" d="M 358.5 408 L 357.5 410 L 358.5 408 Z " /><path fill="rgb(223,205,210)" stroke="rgb(223,205,210)" stroke-width="1" opacity="1" d="M 161.5 413 L 162.5 415 L 161.5 413 Z " /><path fill="rgb(223,205,210)" stroke="rgb(223,205,210)" stroke-width="1" opacity="1" d="M 350.5 413 L 349.5 415 L 350.5 413 Z " /><path fill="rgb(223,205,210)" stroke="rgb(223,205,210)" stroke-width="1" opacity="1" d="M 343.5 417 L 342.5 419 L 340.5 420 L 341.5 418 L 343.5 417 Z " /><path fill="rgb(223,205,210)" stroke="rgb(223,205,210)" stroke-width="1" opacity="1" d="M 225.5 437 L 228 437.5 L 225.5 438 L 225.5 437 Z " /><path fill="rgb(223,205,210)" stroke="rgb(223,205,210)" stroke-width="1" opacity="1" d="M 284.5 437 L 287 437.5 L 284.5 438 L 284.5 437 Z " /><path fill="rgb(223,205,210)" stroke="rgb(223,205,210)" stroke-width="1" opacity="1" d="M 233.5 438 L 236 438.5 L 233.5 439 L 233.5 438 Z " /><path fill="rgb(223,205,210)" stroke="rgb(223,205,210)" stroke-width="1" opacity="1" d="M 276.5 438 L 280 438.5 L 276.5 439 L 276.5 438 Z " /><path fill="rgb(223,205,210)" stroke="rgb(223,205,210)" stroke-width="1" opacity="1" d="M 242.5 439 L 252 439.5 L 242.5 440 L 242.5 439 Z " /><path fill="rgb(223,205,210)" stroke="rgb(223,205,210)" stroke-width="1" opacity="1" d="M 260.5 439 L 270 439.5 L 260.5 440 L 260.5 439 Z " /><path fill="rgb(228,58,53)" stroke="rgb(228,58,53)" stroke-width="1" opacity="0.5333333333333333" d="M 234.5 24 L 246 24.5 L 234.5 25 L 234.5 24 Z " /><path fill="rgb(228,58,53)" stroke="rgb(228,58,53)" stroke-width="1" opacity="0.5333333333333333" d="M 266.5 24 L 278 24.5 L 266.5 25 L 266.5 24 Z " /><path fill="rgb(228,58,53)" stroke="rgb(228,58,53)" stroke-width="1" opacity="0.5333333333333333" d="M 226.5 25 L 232 25.5 L 226.5 26 L 226.5 25 Z " /><path fill="rgb(228,58,53)" stroke="rgb(228,58,53)" stroke-width="1" opacity="0.5333333333333333" d="M 280.5 25 L 286 25.5 L 280.5 26 L 280.5 25 Z " /><path fill="rgb(228,58,53)" stroke="rgb(228,58,53)" stroke-width="1" opacity="0.5333333333333333" d="M 219.5 26 L 224 26.5 L 219.5 27 L 219.5 26 Z " /><path fill="rgb(228,58,53)" stroke="rgb(228,58,53)" stroke-width="1" opacity="0.5333333333333333" d="M 288.5 26 L 293 26.5 L 288.5 27 L 288.5 26 Z " /><path fill="rgb(228,58,53)" stroke="rgb(228,58,53)" stroke-width="1" opacity="0.5333333333333333" d="M 213.5 27 L 218 27.5 L 213.5 28 L 213.5 27 Z " /><path fill="rgb(228,58,53)" stroke="rgb(228,58,53)" stroke-width="1" opacity="0.5333333333333333" d="M 295.5 27 L 299 27.5 L 295.5 28 L 295.5 27 Z " /><path fill="rgb(228,58,53)" stroke="rgb(228,58,53)" stroke-width="1" opacity="0.5333333333333333" d="M 208.5 28 L 212 28.5 L 208.5 29 L 208.5 28 Z " /><path fill="rgb(228,58,53)" stroke="rgb(228,58,53)" stroke-width="1" opacity="0.5333333333333333" d="M 300.5 28 L 304 28.5 L 300.5 29 L 300.5 28 Z " /><path fill="rgb(228,58,53)" stroke="rgb(228,58,53)" stroke-width="1" opacity="0.5333333333333333" d="M 203.5 29 L 207 29.5 L 199.5 31 L 199.5 30 L 203.5 29 Z " /><path fill="rgb(228,58,53)" stroke="rgb(228,58,53)" stroke-width="1" opacity="0.5333333333333333" d="M 305.5 29 L 309 29.5 L 305.5 30 L 305.5 29 Z " /><path fill="rgb(228,58,53)" stroke="rgb(228,58,53)" stroke-width="1" opacity="0.5333333333333333" d="M 310.5 30 L 313 30.5 L 310.5 31 L 310.5 30 Z " /><path fill="rgb(228,58,53)" stroke="rgb(228,58,53)" stroke-width="1" opacity="0.5333333333333333" d="M 195.5 31 L 198 31.5 L 192.5 33 L 192.5 32 L 195.5 31 Z " /><path fill="rgb(228,58,53)" stroke="rgb(228,58,53)" stroke-width="1" opacity="0.5333333333333333" d="M 314.5 31 L 320 32.5 L 317.5 33 L 314.5 32 L 314.5 31 Z " /><path fill="rgb(228,58,53)" stroke="rgb(228,58,53)" stroke-width="1" opacity="0.5333333333333333" d="M 188.5 33 L 191 33.5 L 174.5 39 L 174.5 38 L 188.5 33 Z " /><path fill="rgb(228,58,53)" stroke="rgb(228,58,53)" stroke-width="1" opacity="0.5333333333333333" d="M 321.5 33 L 327 34.5 L 324.5 35 L 321.5 34 L 321.5 33 Z " /><path fill="rgb(228,58,53)" stroke="rgb(228,58,53)" stroke-width="1" opacity="0.5333333333333333" d="M 331.5 36 L 338 38.5 L 336.5 39 L 331.5 37 L 331.5 36 Z " /><path fill="rgb(228,58,53)" stroke="rgb(228,58,53)" stroke-width="1" opacity="0.5333333333333333" d="M 171.5 39 L 173 39.5 L 169.5 41 L 169.5 40 L 171.5 39 Z " /><path fill="rgb(228,58,53)" stroke="rgb(228,58,53)" stroke-width="1" opacity="0.5333333333333333" d="M 339.5 39 L 348 42.5 L 346.5 43 L 339.5 40 L 339.5 39 Z " /><path fill="rgb(228,58,53)" stroke="rgb(228,58,53)" stroke-width="1" opacity="0.5333333333333333" d="M 166.5 41 L 168 41.5 L 164.5 43 L 164.5 42 L 166.5 41 Z " /><path fill="rgb(228,58,53)" stroke="rgb(228,58,53)" stroke-width="1" opacity="0.5333333333333333" d="M 349.5 43 Q 399.1 64.9 432 103.5 Q 454.6 128.9 469 162.5 L 468 162.5 Q 446.8 114.2 409.5 82 L 383.5 62 L 349.5 44 L 349.5 43 Z " /><path fill="rgb(228,58,53)" stroke="rgb(228,58,53)" stroke-width="1" opacity="0.5333333333333333" d="M 159.5 44 L 161 44.5 Q 143.7 51.7 129.5 62 L 130.5 60 L 159.5 44 Z " /><path fill="rgb(228,58,53)" stroke="rgb(228,58,53)" stroke-width="1" opacity="0.5333333333333333" d="M 127.5 62 L 126.5 64 Q 101.3 80.3 82 102.5 L 62.5 128 L 63 126.5 Q 80 100 103.5 80 L 127.5 62 Z " /><path fill="rgb(228,58,53)" stroke="rgb(228,58,53)" stroke-width="1" opacity="0.5333333333333333" d="M 61.5 129 L 61 130.5 L 43.5 163 L 43 161.5 Q 50.7 143.7 61.5 129 Z " /><path fill="rgb(228,58,53)" stroke="rgb(228,58,53)" stroke-width="1" opacity="0.5333333333333333" d="M 42.5 164 L 43 165.5 L 41.5 168 L 41 166.5 L 42.5 164 Z " /><path fill="rgb(228,58,53)" stroke="rgb(228,58,53)" stroke-width="1" opacity="0.5333333333333333" d="M 469.5 164 L 471 167.5 L 470 167.5 L 469.5 164 Z " /><path fill="rgb(228,58,53)" stroke="rgb(228,58,53)" stroke-width="1" opacity="0.5333333333333333" d="M 40.5 169 L 41 170.5 L 39.5 173 L 39 171.5 L 40.5 169 Z " /><path fill="rgb(228,58,53)" stroke="rgb(228,58,53)" stroke-width="1" opacity="0.5333333333333333" d="M 471.5 169 L 473 172.5 L 472 172.5 L 471.5 169 Z " /><path fill="rgb(228,58,53)" stroke="rgb(228,58,53)" stroke-width="1" opacity="0.5333333333333333" d="M 38.5 174 L 39 175.5 L 33.5 191 L 33 188.5 L 38.5 174 Z " /><path fill="rgb(228,58,53)" stroke="rgb(228,58,53)" stroke-width="1" opacity="0.5333333333333333" d="M 473.5 174 L 479 190.5 L 478 190.5 L 473.5 174 Z " /><path fill="rgb(228,58,53)" stroke="rgb(228,58,53)" stroke-width="1" opacity="0.5333333333333333" d="M 32.5 192 L 33 194.5 L 31.5 198 L 31 195.5 L 32.5 192 Z " /><path fill="rgb(228,58,53)" stroke="rgb(228,58,53)" stroke-width="1" opacity="0.5333333333333333" d="M 479.5 192 L 481 197.5 L 480 197.5 L 479.5 192 Z " /><path fill="rgb(228,58,53)" stroke="rgb(228,58,53)" stroke-width="1" opacity="0.5333333333333333" d="M 30.5 199 L 31 202.5 L 29.5 207 L 29 203.5 L 30.5 199 Z " /><path fill="rgb(228,58,53)" stroke="rgb(228,58,53)" stroke-width="1" opacity="0.5333333333333333" d="M 481.5 199 L 483 206.5 L 482 206.5 L 481.5 199 Z " /><path fill="rgb(228,58,53)" stroke="rgb(228,58,53)" stroke-width="1" opacity="0.5333333333333333" d="M 28.5 208 L 29 211.5 L 28 211.5 L 28.5 208 Z " /><path fill="rgb(228,58,53)" stroke="rgb(228,58,53)" stroke-width="1" opacity="0.5333333333333333" d="M 483.5 208 L 484 211.5 L 483 211.5 L 483.5 208 Z " /><path fill="rgb(228,58,53)" stroke="rgb(228,58,53)" stroke-width="1" opacity="0.5333333333333333" d="M 27.5 213 L 28 216.5 L 27 216.5 L 27.5 213 Z " /><path fill="rgb(228,58,53)" stroke="rgb(228,58,53)" stroke-width="1" opacity="0.5333333333333333" d="M 484.5 213 L 485 217.5 L 484 217.5 L 484.5 213 Z " /><path fill="rgb(228,58,53)" stroke="rgb(228,58,53)" stroke-width="1" opacity="0.5333333333333333" d="M 26.5 219 L 27 223.5 L 26 223.5 L 26.5 219 Z " /><path fill="rgb(228,58,53)" stroke="rgb(228,58,53)" stroke-width="1" opacity="0.5333333333333333" d="M 485.5 219 L 486 223.5 L 485 223.5 L 485.5 219 Z " /><path fill="rgb(228,58,53)" stroke="rgb(228,58,53)" stroke-width="1" opacity="0.5333333333333333" d="M 25.5 226 L 26 231.5 L 25 231.5 L 25.5 226 Z " /><path fill="rgb(228,58,53)" stroke="rgb(228,58,53)" stroke-width="1" opacity="0.5333333333333333" d="M 486.5 226 L 487 231.5 L 486 231.5 L 486.5 226 Z " /><path fill="rgb(228,58,53)" stroke="rgb(228,58,53)" stroke-width="1" opacity="0.5333333333333333" d="M 24.5 234 L 25 245.5 L 24 245.5 L 24.5 234 Z " /><path fill="rgb(228,58,53)" stroke="rgb(228,58,53)" stroke-width="1" opacity="0.5333333333333333" d="M 487.5 234 L 488 245.5 L 487 245.5 L 487.5 234 Z " /><path fill="rgb(228,58,53)" stroke="rgb(228,58,53)" stroke-width="1" opacity="0.5333333333333333" d="M 24.5 266 L 25 277.5 L 24 277.5 L 24.5 266 Z " /><path fill="rgb(228,58,53)" stroke="rgb(228,58,53)" stroke-width="1" opacity="0.5333333333333333" d="M 487.5 266 L 488 276.5 L 487 276.5 L 487.5 266 Z " /><path fill="rgb(228,58,53)" stroke="rgb(228,58,53)" stroke-width="1" opacity="0.5333333333333333" d="M 25.5 280 L 26 285.5 L 25 285.5 L 25.5 280 Z " /><path fill="rgb(228,58,53)" stroke="rgb(228,58,53)" stroke-width="1" opacity="0.5333333333333333" d="M 486.5 280 L 487 285.5 L 486 285.5 L 486.5 280 Z " /><path fill="rgb(228,58,53)" stroke="rgb(228,58,53)" stroke-width="1" opacity="0.5333333333333333" d="M 26.5 288 L 27 292.5 L 26 292.5 L 26.5 288 Z " /><path fill="rgb(228,58,53)" stroke="rgb(228,58,53)" stroke-width="1" opacity="0.5333333333333333" d="M 485.5 288 L 486 292.5 L 485 292.5 L 485.5 288 Z " /><path fill="rgb(228,58,53)" stroke="rgb(228,58,53)" stroke-width="1" opacity="0.5333333333333333" d="M 484.5 294 L 485 298.5 L 484 298.5 L 484.5 294 Z " /><path fill="rgb(228,58,53)" stroke="rgb(228,58,53)" stroke-width="1" opacity="0.5333333333333333" d="M 27.5 295 L 28 298.5 L 27 298.5 L 27.5 295 Z " /><path fill="rgb(228,58,53)" stroke="rgb(228,58,53)" stroke-width="1" opacity="0.5333333333333333" d="M 28.5 300 L 29 303.5 L 28 303.5 L 28.5 300 Z " /><path fill="rgb(228,58,53)" stroke="rgb(228,58,53)" stroke-width="1" opacity="0.5333333333333333" d="M 483.5 300 L 484 303.5 L 483 303.5 L 483.5 300 Z " /><path fill="rgb(228,58,53)" stroke="rgb(228,58,53)" stroke-width="1" opacity="0.5333333333333333" d="M 29.5 305 L 31 312.5 L 30 312.5 L 29.5 305 Z " /><path fill="rgb(228,58,53)" stroke="rgb(228,58,53)" stroke-width="1" opacity="0.5333333333333333" d="M 482.5 305 L 483 308.5 L 481.5 313 L 481 309.5 L 482.5 305 Z " /><path fill="rgb(228,58,53)" stroke="rgb(228,58,53)" stroke-width="1" opacity="0.5333333333333333" d="M 31.5 314 L 33 319.5 L 32 319.5 L 31.5 314 Z " /><path fill="rgb(228,58,53)" stroke="rgb(228,58,53)" stroke-width="1" opacity="0.5333333333333333" d="M 480.5 314 L 481 316.5 L 479.5 320 L 479 317.5 L 480.5 314 Z " /><path fill="rgb(228,58,53)" stroke="rgb(228,58,53)" stroke-width="1" opacity="0.5333333333333333" d="M 33.5 321 L 39 337.5 L 38 337.5 L 33 323.5 L 33.5 321 Z " /><path fill="rgb(228,58,53)" stroke="rgb(228,58,53)" stroke-width="1" opacity="0.5333333333333333" d="M 478.5 321 L 479 323.5 L 473.5 338 L 473 336.5 L 478.5 321 Z " /><path fill="rgb(228,58,53)" stroke="rgb(228,58,53)" stroke-width="1" opacity="0.5333333333333333" d="M 39.5 339 L 41 342.5 L 40 342.5 L 39.5 339 Z " /><path fill="rgb(228,58,53)" stroke="rgb(228,58,53)" stroke-width="1" opacity="0.5333333333333333" d="M 472.5 339 L 473 340.5 L 471.5 343 L 471 341.5 L 472.5 339 Z " /><path fill="rgb(228,58,53)" stroke="rgb(228,58,53)" stroke-width="1" opacity="0.5333333333333333" d="M 41.5 344 L 43 347.5 L 42 347.5 L 41.5 344 Z " /><path fill="rgb(228,58,53)" stroke="rgb(228,58,53)" stroke-width="1" opacity="0.5333333333333333" d="M 470.5 344 L 471 345.5 L 469.5 348 L 469 346.5 L 470.5 344 Z " /><path fill="rgb(228,58,53)" stroke="rgb(228,58,53)" stroke-width="1" opacity="0.5333333333333333" d="M 43.5 349 Q 51.1 367.4 62 382.5 L 60 381.5 Q 49.6 366.6 43.5 349 Z " /><path fill="rgb(228,58,53)" stroke="rgb(228,58,53)" stroke-width="1" opacity="0.5333333333333333" d="M 467.5 351 L 468 352.5 Q 445.9 399.9 408.5 432 Q 383.1 454.6 349.5 469 L 349.5 468 Q 397.8 446.8 430 409.5 Q 452.8 384.3 467.5 351 Z " /><path fill="rgb(228,58,53)" stroke="rgb(228,58,53)" stroke-width="1" opacity="0.5333333333333333" d="M 62.5 384 Q 79.6 409.9 102.5 430 L 128 449.5 L 126.5 449 Q 100 432 80 408.5 L 63 386.5 L 62.5 384 Z " /><path fill="rgb(228,58,53)" stroke="rgb(228,58,53)" stroke-width="1" opacity="0.5333333333333333" d="M 129.5 450 Q 143.7 460.3 161 467.5 L 159.5 468 L 136.5 456 L 130.5 452 L 129.5 450 Z " /><path fill="rgb(228,58,53)" stroke="rgb(228,58,53)" stroke-width="1" opacity="0.5333333333333333" d="M 162.5 468 L 168 470.5 L 166.5 471 L 162.5 469 L 162.5 468 Z " /><path fill="rgb(228,58,53)" stroke="rgb(228,58,53)" stroke-width="1" opacity="0.5333333333333333" d="M 346.5 469 L 348 469.5 L 344.5 471 L 344.5 470 L 346.5 469 Z " /><path fill="rgb(228,58,53)" stroke="rgb(228,58,53)" stroke-width="1" opacity="0.5333333333333333" d="M 169.5 471 L 173 472.5 L 171.5 473 L 169.5 471 Z " /><path fill="rgb(228,58,53)" stroke="rgb(228,58,53)" stroke-width="1" opacity="0.5333333333333333" d="M 341.5 471 L 343 471.5 L 339.5 473 L 339.5 472 L 341.5 471 Z " /><path fill="rgb(228,58,53)" stroke="rgb(228,58,53)" stroke-width="1" opacity="0.5333333333333333" d="M 174.5 473 L 191 478.5 L 188.5 479 L 176.5 475 L 174.5 473 Z " /><path fill="rgb(228,58,53)" stroke="rgb(228,58,53)" stroke-width="1" opacity="0.5333333333333333" d="M 336.5 473 L 338 473.5 L 328.5 477 L 328.5 476 L 336.5 473 Z " /><path fill="rgb(228,58,53)" stroke="rgb(228,58,53)" stroke-width="1" opacity="0.5333333333333333" d="M 324.5 477 L 327 477.5 L 321.5 479 L 321.5 478 L 324.5 477 Z " /><path fill="rgb(228,58,53)" stroke="rgb(228,58,53)" stroke-width="1" opacity="0.5333333333333333" d="M 192.5 479 L 198 480.5 L 195.5 481 L 192.5 480 L 192.5 479 Z " /><path fill="rgb(228,58,53)" stroke="rgb(228,58,53)" stroke-width="1" opacity="0.5333333333333333" d="M 317.5 479 L 320 479.5 L 314.5 481 L 314.5 480 L 317.5 479 Z " /><path fill="rgb(228,58,53)" stroke="rgb(228,58,53)" stroke-width="1" opacity="0.5333333333333333" d="M 199.5 481 L 207 482.5 L 203.5 483 L 199.5 482 L 199.5 481 Z " /><path fill="rgb(228,58,53)" stroke="rgb(228,58,53)" stroke-width="1" opacity="0.5333333333333333" d="M 310.5 481 L 313 481.5 L 310.5 482 L 310.5 481 Z " /><path fill="rgb(228,58,53)" stroke="rgb(228,58,53)" stroke-width="1" opacity="0.5333333333333333" d="M 305.5 482 L 309 482.5 L 305.5 483 L 305.5 482 Z " /><path fill="rgb(228,58,53)" stroke="rgb(228,58,53)" stroke-width="1" opacity="0.5333333333333333" d="M 208.5 483 L 212 483.5 L 208.5 484 L 208.5 483 Z " /><path fill="rgb(228,58,53)" stroke="rgb(228,58,53)" stroke-width="1" opacity="0.5333333333333333" d="M 300.5 483 L 304 483.5 L 300.5 484 L 300.5 483 Z " /><path fill="rgb(228,58,53)" stroke="rgb(228,58,53)" stroke-width="1" opacity="0.5333333333333333" d="M 213.5 484 L 218 484.5 L 213.5 485 L 213.5 484 Z " /><path fill="rgb(228,58,53)" stroke="rgb(228,58,53)" stroke-width="1" opacity="0.5333333333333333" d="M 295.5 484 L 299 484.5 L 295.5 485 L 295.5 484 Z " /><path fill="rgb(228,58,53)" stroke="rgb(228,58,53)" stroke-width="1" opacity="0.5333333333333333" d="M 219.5 485 L 224 485.5 L 219.5 486 L 219.5 485 Z " /><path fill="rgb(228,58,53)" stroke="rgb(228,58,53)" stroke-width="1" opacity="0.5333333333333333" d="M 288.5 485 L 293 485.5 L 288.5 486 L 288.5 485 Z " /><path fill="rgb(228,58,53)" stroke="rgb(228,58,53)" stroke-width="1" opacity="0.5333333333333333" d="M 226.5 486 L 232 486.5 L 226.5 487 L 226.5 486 Z " /><path fill="rgb(228,58,53)" stroke="rgb(228,58,53)" stroke-width="1" opacity="0.5333333333333333" d="M 280.5 486 L 286 486.5 L 280.5 487 L 280.5 486 Z " /><path fill="rgb(228,58,53)" stroke="rgb(228,58,53)" stroke-width="1" opacity="0.5333333333333333" d="M 235.5 487 L 246 487.5 L 235.5 488 L 235.5 487 Z " /><path fill="rgb(228,58,53)" stroke="rgb(228,58,53)" stroke-width="1" opacity="0.5333333333333333" d="M 266.5 487 L 277 487.5 L 266.5 488 L 266.5 487 Z " /><path fill="rgb(0,0,0)" stroke="rgb(0,0,0)" stroke-width="1" opacity="0" d="M 0 0 L 512 0 L 512 512 L 0 512 L 0 0 Z M 235 24 L 196 31 L 167 41 Q 131 56 104 80 Q 73 107 52 144 Q 40 164 33 189 L 27 214 L 25 234 L 24 235 L 24 278 L 25 279 L 27 299 L 33 324 Q 49 374 80 409 Q 107 439 144 460 Q 164 471 189 479 L 214 485 L 235 487 L 236 488 L 277 488 L 278 487 L 299 485 L 324 479 Q 374 463 409 432 Q 439 405 460 369 Q 471 348 479 324 L 485 299 L 487 278 L 488 277 L 488 235 L 487 234 L 485 214 L 479 189 Q 463 138 432 104 Q 397 63 344 40 L 317 31 L 293 26 L 279 25 L 278 24 L 235 24 Z " /><path fill="rgb(229,58,53)" stroke="rgb(229,58,53)" stroke-width="1" opacity="0.996078431372549" d="M 246.5 24 L 254 24.5 L 246.5 25 L 246.5 24 Z " /><path fill="rgb(229,58,53)" stroke="rgb(229,58,53)" stroke-width="1" opacity="0.996078431372549" d="M 258.5 24 L 266 24.5 L 258.5 25 L 258.5 24 Z " /><path fill="rgb(229,58,53)" stroke="rgb(229,58,53)" stroke-width="1" opacity="0.996078431372549" d="M 232.5 25 L 235 25.5 L 232.5 26 L 232.5 25 Z " /><path fill="rgb(229,58,53)" stroke="rgb(229,58,53)" stroke-width="1" opacity="0.996078431372549" d="M 277.5 25 L 280 25.5 L 277.5 26 L 277.5 25 Z " /><path fill="rgb(229,58,53)" stroke="rgb(229,58,53)" stroke-width="1" opacity="0.996078431372549" d="M 128.5 62 L 127.5 64 L 128.5 62 Z " /><path fill="rgb(229,58,53)" stroke="rgb(229,58,53)" stroke-width="1" opacity="0.996078431372549" d="M 383.5 62 L 384.5 64 L 383.5 62 Z " /><path fill="rgb(229,58,53)" stroke="rgb(229,58,53)" stroke-width="1" opacity="0.996078431372549" d="M 125.5 64 L 124.5 66 L 125.5 64 Z " /><path fill="rgb(229,58,53)" stroke="rgb(229,58,53)" stroke-width="1" opacity="0.996078431372549" d="M 386.5 64 L 387.5 66 L 386.5 64 Z " /><path fill="rgb(229,58,53)" stroke="rgb(229,58,53)" stroke-width="1" opacity="0.996078431372549" d="M 121.5 67 L 120.5 69 L 121.5 67 Z " /><path fill="rgb(229,58,53)" stroke="rgb(229,58,53)" stroke-width="1" opacity="0.996078431372549" d="M 390.5 67 L 391.5 69 L 390.5 67 Z " /><path fill="rgb(229,58,53)" stroke="rgb(229,58,53)" stroke-width="1" opacity="0.996078431372549" d="M 118.5 69 L 117.5 71 L 118.5 69 Z " /><path fill="rgb(229,58,53)" stroke="rgb(229,58,53)" stroke-width="1" opacity="0.996078431372549" d="M 393.5 69 L 394.5 71 L 393.5 69 Z " /><path fill="rgb(229,58,53)" stroke="rgb(229,58,53)" stroke-width="1" opacity="0.996078431372549" d="M 114.5 72 L 112.5 75 L 114.5 72 Z " /><path fill="rgb(229,58,53)" stroke="rgb(229,58,53)" stroke-width="1" opacity="0.996078431372549" d="M 397.5 72 L 399.5 75 L 397.5 72 Z " /><path fill="rgb(229,58,53)" stroke="rgb(229,58,53)" stroke-width="1" opacity="0.996078431372549" d="M 109.5 76 L 106.5 80 L 109.5 76 Z " /><path fill="rgb(229,58,53)" stroke="rgb(229,58,53)" stroke-width="1" opacity="0.996078431372549" d="M 402.5 76 L 405.5 80 L 402.5 76 Z " /><path fill="rgb(229,58,53)" stroke="rgb(229,58,53)" stroke-width="1" opacity="0.996078431372549" d="M 102.5 82 L 96.5 89 L 102.5 82 Z " /><path fill="rgb(229,58,53)" stroke="rgb(229,58,53)" stroke-width="1" opacity="0.996078431372549" d="M 409.5 82 L 415.5 89 L 409.5 82 Z " /><path fill="rgb(229,58,53)" stroke="rgb(229,58,53)" stroke-width="1" opacity="0.996078431372549" d="M 88.5 96 L 82.5 103 L 88.5 96 Z " /><path fill="rgb(229,58,53)" stroke="rgb(229,58,53)" stroke-width="1" opacity="0.996078431372549" d="M 423.5 96 L 429.5 103 L 423.5 96 Z " /><path fill="rgb(229,58,53)" stroke="rgb(229,58,53)" stroke-width="1" opacity="0.996078431372549" d="M 79.5 106 L 76.5 110 L 79.5 106 Z " /><path fill="rgb(229,58,53)" stroke="rgb(229,58,53)" stroke-width="1" opacity="0.996078431372549" d="M 432.5 106 L 435.5 110 L 432.5 106 Z " /><path fill="rgb(229,58,53)" stroke="rgb(229,58,53)" stroke-width="1" opacity="0.996078431372549" d="M 74.5 112 L 72.5 115 L 74.5 112 Z " /><path fill="rgb(229,58,53)" stroke="rgb(229,58,53)" stroke-width="1" opacity="0.996078431372549" d="M 437.5 112 L 439.5 115 L 437.5 112 Z " /><path fill="rgb(229,58,53)" stroke="rgb(229,58,53)" stroke-width="1" opacity="0.996078431372549" d="M 70.5 117 L 69.5 119 L 70.5 117 Z " /><path fill="rgb(229,58,53)" stroke="rgb(229,58,53)" stroke-width="1" opacity="0.996078431372549" d="M 441.5 117 L 442.5 119 L 441.5 117 Z " /><path fill="rgb(229,58,53)" stroke="rgb(229,58,53)" stroke-width="1" opacity="0.996078431372549" d="M 68.5 120 L 67.5 122 L 68.5 120 Z " /><path fill="rgb(229,58,53)" stroke="rgb(229,58,53)" stroke-width="1" opacity="0.996078431372549" d="M 443.5 120 L 444.5 122 L 443.5 120 Z " /><path fill="rgb(229,58,53)" stroke="rgb(229,58,53)" stroke-width="1" opacity="0.996078431372549" d="M 65.5 124 L 64.5 126 L 65.5 124 Z " /><path fill="rgb(229,58,53)" stroke="rgb(229,58,53)" stroke-width="1" opacity="0.996078431372549" d="M 446.5 124 L 447.5 126 L 446.5 124 Z " /><path fill="rgb(229,58,53)" stroke="rgb(229,58,53)" stroke-width="1" opacity="0.996078431372549" d="M 63.5 127 L 62.5 129 L 63.5 127 Z " /><path fill="rgb(229,58,53)" stroke="rgb(229,58,53)" stroke-width="1" opacity="0.996078431372549" d="M 448.5 127 L 449.5 129 L 448.5 127 Z " /><path fill="rgb(229,58,53)" stroke="rgb(229,58,53)" stroke-width="1" opacity="0.996078431372549" d="M 25.5 232 L 26 234.5 L 25 234.5 L 25.5 232 Z " /><path fill="rgb(229,58,53)" stroke="rgb(229,58,53)" stroke-width="1" opacity="0.996078431372549" d="M 486.5 232 L 487 234.5 L 486 234.5 L 486.5 232 Z " /><path fill="rgb(229,58,53)" stroke="rgb(229,58,53)" stroke-width="1" opacity="0.996078431372549" d="M 24.5 246 L 25 265.5 L 24 265.5 L 24.5 246 Z " /><path fill="rgb(229,58,53)" stroke="rgb(229,58,53)" stroke-width="1" opacity="0.996078431372549" d="M 487.5 246 L 488 265.5 L 487 265.5 L 487.5 246 Z " /><path fill="rgb(229,58,53)" stroke="rgb(229,58,53)" stroke-width="1" opacity="0.996078431372549" d="M 25.5 277 L 26 279.5 L 25 279.5 L 25.5 277 Z " /><path fill="rgb(229,58,53)" stroke="rgb(229,58,53)" stroke-width="1" opacity="0.996078431372549" d="M 486.5 277 L 487 279.5 L 486 279.5 L 486.5 277 Z " /><path fill="rgb(229,58,53)" stroke="rgb(229,58,53)" stroke-width="1" opacity="0.996078431372549" d="M 454.5 375 L 453.5 377 L 454.5 375 Z " /><path fill="rgb(229,58,53)" stroke="rgb(229,58,53)" stroke-width="1" opacity="0.996078431372549" d="M 62.5 383 L 63.5 385 L 62.5 383 Z " /><path fill="rgb(229,58,53)" stroke="rgb(229,58,53)" stroke-width="1" opacity="0.996078431372549" d="M 449.5 383 L 448.5 385 L 449.5 383 Z " /><path fill="rgb(229,58,53)" stroke="rgb(229,58,53)" stroke-width="1" opacity="0.996078431372549" d="M 64.5 386 L 65.5 388 L 64.5 386 Z " /><path fill="rgb(229,58,53)" stroke="rgb(229,58,53)" stroke-width="1" opacity="0.996078431372549" d="M 447.5 386 L 446.5 388 L 447.5 386 Z " /><path fill="rgb(229,58,53)" stroke="rgb(229,58,53)" stroke-width="1" opacity="0.996078431372549" d="M 67.5 390 L 68.5 392 L 67.5 390 Z " /><path fill="rgb(229,58,53)" stroke="rgb(229,58,53)" stroke-width="1" opacity="0.996078431372549" d="M 444.5 390 L 443.5 392 L 444.5 390 Z " /><path fill="rgb(229,58,53)" stroke="rgb(229,58,53)" stroke-width="1" opacity="0.996078431372549" d="M 69.5 393 L 70.5 395 L 69.5 393 Z " /><path fill="rgb(229,58,53)" stroke="rgb(229,58,53)" stroke-width="1" opacity="0.996078431372549" d="M 442.5 393 L 441.5 395 L 442.5 393 Z " /><path fill="rgb(229,58,53)" stroke="rgb(229,58,53)" stroke-width="1" opacity="0.996078431372549" d="M 439.5 397 L 437.5 400 L 439.5 397 Z " /><path fill="rgb(229,58,53)" stroke="rgb(229,58,53)" stroke-width="1" opacity="0.996078431372549" d="M 73.5 398 L 74.5 400 L 73.5 398 Z " /><path fill="rgb(229,58,53)" stroke="rgb(229,58,53)" stroke-width="1" opacity="0.996078431372549" d="M 76.5 402 L 79.5 406 L 76.5 402 Z " /><path fill="rgb(229,58,53)" stroke="rgb(229,58,53)" stroke-width="1" opacity="0.996078431372549" d="M 435.5 402 L 432.5 406 L 435.5 402 Z " /><path fill="rgb(229,58,53)" stroke="rgb(229,58,53)" stroke-width="1" opacity="0.996078431372549" d="M 82.5 409 L 88.5 416 L 82.5 409 Z " /><path fill="rgb(229,58,53)" stroke="rgb(229,58,53)" stroke-width="1" opacity="0.996078431372549" d="M 429.5 409 L 423.5 416 L 429.5 409 Z " /><path fill="rgb(229,58,53)" stroke="rgb(229,58,53)" stroke-width="1" opacity="0.996078431372549" d="M 96.5 423 L 102.5 430 L 96.5 423 Z " /><path fill="rgb(229,58,53)" stroke="rgb(229,58,53)" stroke-width="1" opacity="0.996078431372549" d="M 415.5 423 L 409.5 430 L 415.5 423 Z " /><path fill="rgb(229,58,53)" stroke="rgb(229,58,53)" stroke-width="1" opacity="0.996078431372549" d="M 106.5 432 L 109.5 436 L 106.5 432 Z " /><path fill="rgb(229,58,53)" stroke="rgb(229,58,53)" stroke-width="1" opacity="0.996078431372549" d="M 405.5 432 L 402.5 436 L 405.5 432 Z " /><path fill="rgb(229,58,53)" stroke="rgb(229,58,53)" stroke-width="1" opacity="0.996078431372549" d="M 112.5 437 L 114.5 440 L 112.5 437 Z " /><path fill="rgb(229,58,53)" stroke="rgb(229,58,53)" stroke-width="1" opacity="0.996078431372549" d="M 399.5 437 L 397.5 440 L 399.5 437 Z " /><path fill="rgb(229,58,53)" stroke="rgb(229,58,53)" stroke-width="1" opacity="0.996078431372549" d="M 117.5 441 L 118.5 443 L 117.5 441 Z " /><path fill="rgb(229,58,53)" stroke="rgb(229,58,53)" stroke-width="1" opacity="0.996078431372549" d="M 394.5 441 L 393.5 443 L 394.5 441 Z " /><path fill="rgb(229,58,53)" stroke="rgb(229,58,53)" stroke-width="1" opacity="0.996078431372549" d="M 120.5 443 L 121.5 445 L 120.5 443 Z " /><path fill="rgb(229,58,53)" stroke="rgb(229,58,53)" stroke-width="1" opacity="0.996078431372549" d="M 391.5 443 L 390.5 445 L 391.5 443 Z " /><path fill="rgb(229,58,53)" stroke="rgb(229,58,53)" stroke-width="1" opacity="0.996078431372549" d="M 124.5 446 L 125.5 448 L 124.5 446 Z " /><path fill="rgb(229,58,53)" stroke="rgb(229,58,53)" stroke-width="1" opacity="0.996078431372549" d="M 387.5 446 L 386.5 448 L 387.5 446 Z " /><path fill="rgb(229,58,53)" stroke="rgb(229,58,53)" stroke-width="1" opacity="0.996078431372549" d="M 127.5 448 L 128.5 450 L 127.5 448 Z " /><path fill="rgb(229,58,53)" stroke="rgb(229,58,53)" stroke-width="1" opacity="0.996078431372549" d="M 384.5 448 L 383.5 450 L 384.5 448 Z " /><path fill="rgb(229,58,53)" stroke="rgb(229,58,53)" stroke-width="1" opacity="0.996078431372549" d="M 135.5 453 L 136.5 455 L 135.5 453 Z " /><path fill="rgb(229,58,53)" stroke="rgb(229,58,53)" stroke-width="1" opacity="0.996078431372549" d="M 232.5 486 L 235 486.5 L 232.5 487 L 232.5 486 Z " /><path fill="rgb(229,58,53)" stroke="rgb(229,58,53)" stroke-width="1" opacity="0.996078431372549" d="M 277.5 486 L 280 486.5 L 277.5 487 L 277.5 486 Z " /><path fill="rgb(229,58,53)" stroke="rgb(229,58,53)" stroke-width="1" opacity="0.996078431372549" d="M 246.5 487 L 254 487.5 L 246.5 488 L 246.5 487 Z " /><path fill="rgb(229,58,53)" stroke="rgb(229,58,53)" stroke-width="1" opacity="0.996078431372549" d="M 258.5 487 L 266 487.5 L 258.5 488 L 258.5 487 Z " /><path fill="rgb(236,239,240)" stroke="rgb(236,239,240)" stroke-width="1" opacity="1" d="M 141.5 112 L 140.5 114 L 141.5 112 Z " /><path fill="rgb(236,239,240)" stroke="rgb(236,239,240)" stroke-width="1" opacity="1" d="M 113.5 140 L 112.5 142 L 113.5 140 Z " /><path fill="rgb(236,239,240)" stroke="rgb(236,239,240)" stroke-width="1" opacity="1" d="M 398.5 140 L 399.5 142 L 398.5 140 Z " /><path fill="rgb(236,239,240)" stroke="rgb(236,239,240)" stroke-width="1" opacity="1" d="M 198.5 155 L 196.5 158 L 198.5 155 Z " /><path fill="rgb(236,239,240)" stroke="rgb(236,239,240)" stroke-width="1" opacity="1" d="M 324.5 167 L 326.5 170 L 324.5 167 Z " /><path fill="rgb(236,239,240)" stroke="rgb(236,239,240)" stroke-width="1" opacity="1" d="M 335.5 178 L 336.5 180 L 335.5 178 Z " /><path fill="rgb(236,239,240)" stroke="rgb(236,239,240)" stroke-width="1" opacity="1" d="M 338.5 182 L 339.5 184 L 338.5 182 Z " /><path fill="rgb(236,239,240)" stroke="rgb(236,239,240)" stroke-width="1" opacity="1" d="M 293.5 204 L 297.5 209 L 293.5 204 Z " /><path fill="rgb(236,239,240)" stroke="rgb(236,239,240)" stroke-width="1" opacity="1" d="M 297.5 235 L 294.5 239 L 297.5 235 Z " /><path fill="rgb(236,239,240)" stroke="rgb(236,239,240)" stroke-width="1" opacity="1" d="M 340.5 259 L 339.5 261 L 340.5 259 Z " /><path fill="rgb(236,239,240)" stroke="rgb(236,239,240)" stroke-width="1" opacity="1" d="M 338.5 262 L 337.5 264 L 338.5 262 Z " /><path fill="rgb(236,239,240)" stroke="rgb(236,239,240)" stroke-width="1" opacity="1" d="M 335.5 266 L 332.5 270 L 335.5 266 Z " /><path fill="rgb(236,239,240)" stroke="rgb(236,239,240)" stroke-width="1" opacity="1" d="M 328.5 273 L 325.5 277 L 328.5 273 Z " /><path fill="rgb(236,239,240)" stroke="rgb(236,239,240)" stroke-width="1" opacity="1" d="M 322.5 278 L 321.5 280 L 322.5 278 Z " /><path fill="rgb(236,239,240)" stroke="rgb(236,239,240)" stroke-width="1" opacity="1" d="M 118.5 377 L 119.5 379 L 118.5 377 Z " /><path fill="rgb(236,239,240)" stroke="rgb(236,239,240)" stroke-width="1" opacity="1" d="M 133.5 392 L 134.5 394 L 133.5 392 Z " /><path fill="rgb(61,130,196)" stroke="rgb(61,130,196)" stroke-width="1" opacity="1" d="M 206.5 152 L 285.5 152 L 296.5 154 Q 321.8 161.2 336 179.5 Q 350.1 195.4 351 224.5 L 350 225.5 L 349 238.5 L 344 252.5 Q 337 266.5 325.5 276 Q 313.2 287.2 293.5 291 Q 288.7 289.8 287.5 292 L 241 292 L 241 360 L 193 360 L 193 166.5 Q 194.4 158.9 199.5 155 L 206.5 152 Z M 241 200 L 241 244 L 286 244 L 293 241 Q 301 236 303 225 L 303 220 L 300 211 Q 295 203 286 200 L 241 200 Z " /><path fill="rgb(237,239,240)" stroke="rgb(237,239,240)" stroke-width="1" opacity="1" d="M 254.5 72 L 289.5 75 L 318.5 83 L 348.5 97 L 378 118 Q 376.9 120.7 379.5 120 L 392 132.5 L 392 134 Q 394.7 132.9 394 135.5 Q 416.6 159.4 429 193.5 L 437 223.5 L 438 235.5 L 439 236.5 L 439 251.5 L 440 252.5 L 440 254.5 L 439 258.5 L 439 260.5 L 439 275.5 L 438 276.5 L 437 288.5 L 429 318.5 L 415 348.5 L 394 378 Q 391.3 376.9 392 379.5 L 379.5 392 L 378 392 Q 379.1 394.7 376.5 394 Q 352.7 416.7 318.5 429 L 294.5 436 L 275.5 438 L 274.5 439 Q 262.4 437.4 254.5 440 L 253.5 439 L 236.5 439 L 235.5 438 L 218.5 436 Q 194.2 430.8 174.5 421 Q 142.7 404.8 120 379.5 Q 99.7 357.8 87 328.5 L 79 306.5 Q 78.5 296.5 75 289.5 L 74 276.5 L 73 275.5 L 73 260.5 L 72 259.5 L 72 257.5 L 73 253.5 L 73 251.5 L 73 236.5 L 74 235.5 L 75 222.5 L 80 202.5 L 86 185.5 Q 103.4 144.9 134.5 118 Q 156.5 98.5 185.5 86 L 202.5 80 L 222.5 75 L 235.5 74 L 236.5 73 L 253.5 73 L 254.5 72 Z M 204 152 L 199 155 L 193 164 L 193 360 L 242 360 L 242 292 L 293 292 Q 313 288 326 277 Q 346 262 351 232 L 351 213 Q 349 211 350 207 Q 346 191 337 180 Q 322 160 296 153 L 291 152 L 204 152 Z " /><path fill="rgb(237,239,240)" stroke="rgb(237,239,240)" stroke-width="1" opacity="1" d="M 242 200 L 280.5 200 Q 281.8 202.2 286.5 201 Q 294.6 203.9 299 210.5 Q 303.4 215.7 302 226.5 Q 299.5 235.5 292.5 240 L 286.5 243 Q 281.8 241.7 280.5 244 L 242 244 L 242 200 Z " /><path fill="rgb(229,58,53)" stroke="rgb(229,58,53)" stroke-width="1" opacity="1" d="M 254.5 24 Q 263.2 26.8 276.5 25 L 277.5 26 L 285.5 26 L 286.5 27 L 303.5 29 Q 327.3 34.2 347.5 43 Q 391.8 62.8 423 95.5 Q 455 128 473 174.5 L 479 192.5 L 486 226.5 L 486 234.5 L 487 235.5 L 487 276.5 L 486 277.5 L 486 285.5 L 485 286.5 L 483 303.5 L 479 319.5 L 469 347.5 Q 449.3 391.8 416.5 423 Q 387.3 451.3 347.5 469 Q 327.3 477.8 303.5 483 L 298.5 483 L 285.5 486 L 277.5 486 L 276.5 487 Q 263.2 485.2 254.5 488 L 253.5 487 L 235.5 487 L 234.5 486 L 226.5 486 L 225.5 485 L 208.5 483 Q 184.9 477.6 164.5 469 Q 120.3 449.3 89 416.5 Q 57 384 39 337.5 L 33 319.5 L 26 285.5 L 26 277.5 L 25 276.5 L 25 235.5 L 26 234.5 L 26 226.5 L 27 225.5 L 29 208.5 L 33 192.5 L 43 164.5 Q 62.8 120.3 95.5 89 Q 124.7 60.7 164.5 43 Q 184.7 34.2 208.5 29 L 225.5 27 L 226.5 26 L 234.5 26 L 235.5 25 L 253.5 25 L 254.5 24 Z M 243 72 L 242 73 L 226 74 L 208 78 L 178 89 Q 152 102 132 120 Q 105 144 89 178 L 78 208 L 74 226 L 73 242 L 72 243 L 72 270 L 73 271 L 73 280 L 76 297 L 82 318 Q 96 354 120 381 Q 143 406 176 422 L 208 434 L 226 438 L 242 439 L 243 440 L 270 440 L 271 439 L 280 439 L 297 436 L 318 430 Q 354 416 381 392 Q 406 369 422 337 L 434 305 L 438 287 L 439 271 L 440 270 L 440 243 L 439 242 L 439 233 L 436 216 L 430 195 Q 416 158 392 132 Q 363 99 318 82 L 297 76 L 280 73 L 271 73 L 270 72 L 243 72 Z " /></svg>