<svg width="19" height="19" viewBox="0 0 19 19" fill="none" xmlns="http://www.w3.org/2000/svg">
<path d="M6.82983 18.8459C3.18483 18.8459 0.829834 16.6189 0.829834 13.1719C0.829834 9.72486 5.51883 3.85686 6.05383 3.19786C6.15069 3.08738 6.27003 2.99886 6.40385 2.93821C6.53768 2.87756 6.68291 2.84619 6.82983 2.84619C6.97676 2.84619 7.12199 2.87756 7.25582 2.93821C7.38964 2.99886 7.50898 3.08738 7.60583 3.19786C8.14083 3.85686 12.8298 9.73786 12.8298 13.1719C12.8298 16.6059 10.4748 18.8459 6.82983 18.8459ZM15.3298 9.84586C14.8745 9.88263 14.4165 9.82272 13.986 9.67007C13.5554 9.51741 13.162 9.27546 12.8315 8.96008C12.501 8.64469 12.2409 8.26301 12.0683 7.84005C11.8957 7.4171 11.8144 6.96243 11.8298 6.50586C11.8298 4.65386 14.0988 1.75886 14.5538 1.19786C14.6507 1.08738 14.77 0.998859 14.9039 0.938212C15.0377 0.877564 15.1829 0.846191 15.3298 0.846191C15.4768 0.846191 15.622 0.877564 15.7558 0.938212C15.8896 0.998859 16.009 1.08738 16.1058 1.19786C16.5608 1.75886 18.8298 4.65386 18.8298 6.50586C18.8453 6.96243 18.764 7.4171 18.5914 7.84005C18.4188 8.26301 18.1587 8.64469 17.8282 8.96008C17.4977 9.27546 17.1043 9.51741 16.6737 9.67007C16.2431 9.82272 15.7852 9.88263 15.3298 9.84586Z" fill="#20AEEA"/>
</svg>
