<svg width="24" height="25" viewBox="0 0 24 25" fill="none" xmlns="http://www.w3.org/2000/svg">
<g clip-path="url(#clip0_411_5707)">
<path d="M20.877 18.1122H19.8585V10.7787C19.8585 6.82845 16.926 3.55845 13.125 3.0102V2.3457C13.125 2.04733 13.0065 1.76119 12.7955 1.55021C12.5846 1.33923 12.2984 1.2207 12 1.2207C11.7017 1.2207 11.4155 1.33923 11.2046 1.55021C10.9936 1.76119 10.875 2.04733 10.875 2.3457V3.0102C7.07405 3.55845 4.14155 6.8277 4.14155 10.7787V18.1122H3.12305C2.82468 18.1122 2.53853 18.2307 2.32755 18.4417C2.11657 18.6527 1.99805 18.9388 1.99805 19.2372C1.99805 19.5356 2.11657 19.8217 2.32755 20.0327C2.53853 20.2437 2.82468 20.3622 3.12305 20.3622H7.90805V20.378C7.90805 22.6355 9.7433 24.4707 12 24.4707C14.2568 24.4707 16.0928 22.6347 16.0928 20.378V20.3622H20.877C21.1754 20.3622 21.4616 20.2437 21.6725 20.0327C21.8835 19.8217 22.002 19.5356 22.002 19.2372C22.002 18.9388 21.8835 18.6527 21.6725 18.4417C21.4616 18.2307 21.1754 18.1122 20.877 18.1122ZM13.842 20.378C13.842 21.3942 13.0155 22.2207 12 22.2207C10.9845 22.2207 10.1573 21.3942 10.1573 20.378V20.3622H13.8428V20.378H13.842ZM6.39155 18.1122V10.7787C6.39155 7.68645 8.90705 5.1702 12 5.1702C15.093 5.1702 17.6085 7.68645 17.6085 10.7787V18.1122H6.39155Z" fill="black"/>
</g>
<defs>
<clipPath id="clip0_411_5707">
<rect width="24" height="24" fill="white" transform="translate(0 0.845703)"/>
</clipPath>
</defs>
</svg>
