<svg version="1.1" xmlns="http://www.w3.org/2000/svg" xmlns:xlink="http://www.w3.org/1999/xlink" width="512.000000pt" height="512.000000pt" viewBox="0,0,256,256"><g fill="#e7e9ec" fill-rule="nonzero" stroke="none" stroke-width="1" stroke-linecap="butt" stroke-linejoin="miter" stroke-miterlimit="10" stroke-dasharray="" stroke-dashoffset="0" font-family="none" font-weight="none" font-size="none" text-anchor="none" style="mix-blend-mode: normal"><g transform="translate(0.0113,0.05007) scale(0.5,0.5)"><g transform="translate(0,512) scale(0.1,-0.1)"><path d="M1217,4086c-154,-42 -232,-206 -168,-351c18,-41 120,-148 584,-612l562,-563l-562,-562c-614,-615 -606,-606 -606,-719c0,-141 111,-252 253,-252c112,0 104,-7 718,606l562,562l563,-562c614,-614 605,-606 718,-606c141,0 252,111 252,253c0,112 7,104 -606,718l-562,562l562,563c613,613 606,605 606,717c0,142 -111,253 -252,253c-113,0 -104,8 -718,-606l-563,-562l-562,562c-589,588 -594,593 -693,607c-22,3 -62,-1 -88,-8z"></path></g></g></g></svg>