<svg width="512" height="512" version="1.1" xmlns="http://www.w3.org/2000/svg" desc="Created with imagetracer.js version 1.2.6" ><path fill="rgb(229,232,235)" stroke="rgb(229,232,235)" stroke-width="1" opacity="0.984313725490196" d="M 35 36 L 474.5 36 L 475 36.5 L 475 78.5 L 473.5 80 L 388 80 L 397 167.5 L 395.5 167 L 303.5 167 L 302.5 168 L 303 166.5 L 302 161.5 L 302 134.5 L 301 133.5 L 301 106.5 L 300 105.5 L 300 81.5 L 298.5 80 L 211.5 80 L 211 80.5 L 211 104.5 L 210 105.5 L 209 159.5 L 208 160.5 L 208 167 L 115.5 167 L 115 163.5 L 117 153.5 L 117 144.5 L 118 143.5 L 118 135.5 L 119 134.5 L 124 80 L 36.5 80 L 36 81.5 L 35 81.5 L 35 36 Z " /><path fill="rgb(229,232,235)" stroke="rgb(229,232,235)" stroke-width="1" opacity="0.984313725490196" d="M 114.5 172 L 115 175.5 L 114 175.5 L 114.5 172 Z " /><path fill="rgb(229,232,235)" stroke="rgb(229,232,235)" stroke-width="1" opacity="0.984313725490196" d="M 397.5 174 L 398 176.5 L 397 176.5 L 397.5 174 Z " /><path fill="rgb(229,232,235)" stroke="rgb(229,232,235)" stroke-width="1" opacity="0.984313725490196" d="M 207.5 178 L 208 189.5 L 207 189.5 L 207.5 178 Z " /><path fill="rgb(229,232,235)" stroke="rgb(229,232,235)" stroke-width="1" opacity="0.984313725490196" d="M 113.5 182 L 114 184.5 L 113 184.5 L 113.5 182 Z " /><path fill="rgb(229,232,235)" stroke="rgb(229,232,235)" stroke-width="1" opacity="0.984313725490196" d="M 398.5 184 L 399 186.5 L 398 186.5 L 398.5 184 Z " /><path fill="rgb(229,232,235)" stroke="rgb(229,232,235)" stroke-width="1" opacity="0.984313725490196" d="M 303.5 185 L 304 194.5 L 303 194.5 L 303.5 185 Z " /><path fill="rgb(229,232,235)" stroke="rgb(229,232,235)" stroke-width="1" opacity="0.984313725490196" d="M 112.5 191 L 113 193.5 L 112 193.5 L 112.5 191 Z " /><path fill="rgb(229,232,235)" stroke="rgb(229,232,235)" stroke-width="1" opacity="0.984313725490196" d="M 399.5 193 L 400 195.5 L 399 195.5 L 399.5 193 Z " /><path fill="rgb(229,232,235)" stroke="rgb(229,232,235)" stroke-width="1" opacity="0.984313725490196" d="M 111.5 200 L 112 203.5 L 111 203.5 L 111.5 200 Z " /><path fill="rgb(229,232,235)" stroke="rgb(229,232,235)" stroke-width="1" opacity="0.984313725490196" d="M 400.5 202 L 401 204.5 L 400 204.5 L 400.5 202 Z " /><path fill="rgb(229,232,235)" stroke="rgb(229,232,235)" stroke-width="1" opacity="0.984313725490196" d="M 206.5 206 L 207 215.5 L 206 215.5 L 206.5 206 Z " /><path fill="rgb(229,232,235)" stroke="rgb(229,232,235)" stroke-width="1" opacity="0.984313725490196" d="M 110.5 209 L 111 212.5 L 110 212.5 L 110.5 209 Z " /><path fill="rgb(229,232,235)" stroke="rgb(229,232,235)" stroke-width="1" opacity="0.984313725490196" d="M 401.5 211 L 402 214.5 L 401 214.5 L 401.5 211 Z " /><path fill="rgb(229,232,235)" stroke="rgb(229,232,235)" stroke-width="1" opacity="0.984313725490196" d="M 304.5 213 L 305 215.5 L 304 215.5 L 304.5 213 Z " /><path fill="rgb(229,232,235)" stroke="rgb(229,232,235)" stroke-width="1" opacity="0.984313725490196" d="M 111.5 217 L 112.5 219 L 111.5 217 Z " /><path fill="rgb(229,232,235)" stroke="rgb(229,232,235)" stroke-width="1" opacity="0.984313725490196" d="M 400.5 217 L 399.5 219 L 400.5 217 Z " /><path fill="rgb(229,232,235)" stroke="rgb(229,232,235)" stroke-width="1" opacity="0.984313725490196" d="M 204.5 219 L 198.5 226 L 204.5 219 Z " /><path fill="rgb(229,232,235)" stroke="rgb(229,232,235)" stroke-width="1" opacity="0.984313725490196" d="M 307.5 219 L 313.5 226 L 307.5 219 Z " /><path fill="rgb(229,232,235)" stroke="rgb(229,232,235)" stroke-width="1" opacity="0.984313725490196" d="M 392.5 225 L 391.5 227 L 392.5 225 Z " /><path fill="rgb(229,232,235)" stroke="rgb(229,232,235)" stroke-width="1" opacity="0.984313725490196" d="M 165.5 239 L 168 239.5 L 165.5 240 L 165.5 239 Z " /><path fill="rgb(229,232,235)" stroke="rgb(229,232,235)" stroke-width="1" opacity="0.984313725490196" d="M 344.5 239 L 347 239.5 L 344.5 240 L 344.5 239 Z " /><path fill="rgb(229,232,235)" stroke="rgb(229,232,235)" stroke-width="1" opacity="0.984313725490196" d="M 74.5 261 L 286.5 261 L 288 262.5 L 287.5 411 L 287 262 L 74.5 262 L 74.5 261 Z " /><path fill="rgb(229,232,235)" stroke="rgb(229,232,235)" stroke-width="1" opacity="0.984313725490196" d="M 309.5 261 L 437 261.5 L 309.5 262 L 309.5 261 Z " /><path fill="rgb(229,232,235)" stroke="rgb(229,232,235)" stroke-width="1" opacity="0.984313725490196" d="M 95.5 282 L 266 282.5 L 95.5 283 L 95.5 282 Z " /><path fill="rgb(229,232,235)" stroke="rgb(229,232,235)" stroke-width="1" opacity="0.984313725490196" d="M 331.5 282 L 415 282.5 L 331.5 283 L 331.5 282 Z " /><path fill="rgb(229,232,235)" stroke="rgb(229,232,235)" stroke-width="1" opacity="0.984313725490196" d="M 330.5 357 L 416 357.5 L 330.5 358 L 330.5 357 Z " /><path fill="rgb(229,232,235)" stroke="rgb(229,232,235)" stroke-width="1" opacity="0.984313725490196" d="M 309.5 475 L 437 475.5 L 309.5 476 L 309.5 475 Z " /><path fill="rgb(218,69,83)" stroke="rgb(218,69,83)" stroke-width="1" opacity="0.5450980392156862" d="M 475.5 79 L 480 89.5 L 479 89.5 L 475.5 79 Z " /><path fill="rgb(218,69,83)" stroke="rgb(218,69,83)" stroke-width="1" opacity="0.5450980392156862" d="M 34.5 83 L 35 85.5 L 32.5 90 L 32 88.5 L 34.5 83 Z " /><path fill="rgb(218,69,83)" stroke="rgb(218,69,83)" stroke-width="1" opacity="0.5450980392156862" d="M 31.5 91 L 32 92.5 L 30.5 95 L 30 93.5 L 31.5 91 Z " /><path fill="rgb(218,69,83)" stroke="rgb(218,69,83)" stroke-width="1" opacity="0.5450980392156862" d="M 480.5 91 L 482 94.5 L 481 94.5 L 480.5 91 Z " /><path fill="rgb(218,69,83)" stroke="rgb(218,69,83)" stroke-width="1" opacity="0.5450980392156862" d="M 29.5 96 L 30 97.5 L 28.5 100 L 28 98.5 L 29.5 96 Z " /><path fill="rgb(218,69,83)" stroke="rgb(218,69,83)" stroke-width="1" opacity="0.5450980392156862" d="M 482.5 96 L 484 99.5 L 483 99.5 L 482.5 96 Z " /><path fill="rgb(218,69,83)" stroke="rgb(218,69,83)" stroke-width="1" opacity="0.5450980392156862" d="M 27.5 101 L 28 102.5 L 21.5 117 L 21 115.5 L 27.5 101 Z " /><path fill="rgb(218,69,83)" stroke="rgb(218,69,83)" stroke-width="1" opacity="0.5450980392156862" d="M 484.5 101 L 491 116.5 L 490 116.5 L 484 102.5 L 484.5 101 Z " /><path fill="rgb(218,69,83)" stroke="rgb(218,69,83)" stroke-width="1" opacity="0.5450980392156862" d="M 20.5 118 L 21 119.5 L 19.5 122 L 19 120.5 L 20.5 118 Z " /><path fill="rgb(218,69,83)" stroke="rgb(218,69,83)" stroke-width="1" opacity="0.5450980392156862" d="M 491.5 118 L 493 121.5 L 492 121.5 L 491.5 118 Z " /><path fill="rgb(218,69,83)" stroke="rgb(218,69,83)" stroke-width="1" opacity="0.5450980392156862" d="M 18.5 123 L 19 124.5 L 17.5 127 L 17 125.5 L 18.5 123 Z " /><path fill="rgb(218,69,83)" stroke="rgb(218,69,83)" stroke-width="1" opacity="0.5450980392156862" d="M 493.5 123 L 495 126.5 L 494 126.5 L 493.5 123 Z " /><path fill="rgb(218,69,83)" stroke="rgb(218,69,83)" stroke-width="1" opacity="0.5450980392156862" d="M 16.5 128 L 17 129.5 L 10.5 144 L 10 142.5 L 16.5 128 Z " /><path fill="rgb(218,69,83)" stroke="rgb(218,69,83)" stroke-width="1" opacity="0.5450980392156862" d="M 495.5 128 L 502 143.5 L 501 143.5 L 495 129.5 L 495.5 128 Z " /><path fill="rgb(218,69,83)" stroke="rgb(218,69,83)" stroke-width="1" opacity="0.5450980392156862" d="M 9.5 145 L 10 146.5 L 8.5 149 L 8 147.5 L 9.5 145 Z " /><path fill="rgb(218,69,83)" stroke="rgb(218,69,83)" stroke-width="1" opacity="0.5450980392156862" d="M 502.5 145 L 504 148.5 L 503 148.5 L 502.5 145 Z " /><path fill="rgb(218,69,83)" stroke="rgb(218,69,83)" stroke-width="1" opacity="0.5450980392156862" d="M 7.5 150 L 8 151.5 L 6.5 154 L 6 152.5 L 7.5 150 Z " /><path fill="rgb(218,69,83)" stroke="rgb(218,69,83)" stroke-width="1" opacity="0.5450980392156862" d="M 504.5 150 L 506 153.5 L 505 153.5 L 504.5 150 Z " /><path fill="rgb(218,69,83)" stroke="rgb(218,69,83)" stroke-width="1" opacity="0.5450980392156862" d="M 5.5 155 L 6 156.5 L 1.5 167 L 1 164.5 L 5.5 155 Z " /><path fill="rgb(218,69,83)" stroke="rgb(218,69,83)" stroke-width="1" opacity="0.5450980392156862" d="M 506.5 155 L 511 166.5 L 510 166.5 L 506.5 155 Z " /><path fill="rgb(218,69,83)" stroke="rgb(218,69,83)" stroke-width="1" opacity="0.5450980392156862" d="M 0.5 168 L 1 171.5 L 0 171.5 L 0.5 168 Z " /><path fill="rgb(218,69,83)" stroke="rgb(218,69,83)" stroke-width="1" opacity="0.5450980392156862" d="M 511.5 168 L 512 171.5 L 511 171.5 L 511.5 168 Z " /><path fill="rgb(218,69,83)" stroke="rgb(218,69,83)" stroke-width="1" opacity="0.5450980392156862" d="M 0.5 186 L 1 189.5 L 0 189.5 L 0.5 186 Z " /><path fill="rgb(218,69,83)" stroke="rgb(218,69,83)" stroke-width="1" opacity="0.5450980392156862" d="M 511.5 186 L 512 189.5 L 511 189.5 L 511.5 186 Z " /><path fill="rgb(218,69,83)" stroke="rgb(218,69,83)" stroke-width="1" opacity="0.5450980392156862" d="M 5.5 204 L 8 208.5 L 6 207.5 L 5.5 204 Z " /><path fill="rgb(218,69,83)" stroke="rgb(218,69,83)" stroke-width="1" opacity="0.5450980392156862" d="M 506.5 204 L 507 205.5 L 504.5 209 L 505 207.5 L 506.5 204 Z " /><path fill="rgb(218,69,83)" stroke="rgb(218,69,83)" stroke-width="1" opacity="0.5450980392156862" d="M 9.5 212 L 16 219.5 L 11 215.5 L 9.5 212 Z " /><path fill="rgb(218,69,83)" stroke="rgb(218,69,83)" stroke-width="1" opacity="0.5450980392156862" d="M 502.5 212 L 501 214.5 L 496.5 220 L 500 215.5 L 502.5 212 Z " /><path fill="rgb(218,69,83)" stroke="rgb(218,69,83)" stroke-width="1" opacity="0.5450980392156862" d="M 16.5 221 L 17.5 223 L 16.5 221 Z " /><path fill="rgb(218,69,83)" stroke="rgb(218,69,83)" stroke-width="1" opacity="0.5450980392156862" d="M 20.5 224 L 30 231.5 L 28.5 231 Q 22.4 228.8 20.5 224 Z " /><path fill="rgb(218,69,83)" stroke="rgb(218,69,83)" stroke-width="1" opacity="0.5450980392156862" d="M 491.5 224 L 487.5 229 L 482.5 232 L 483.5 230 L 491.5 224 Z " /><path fill="rgb(0,0,0)" stroke="rgb(0,0,0)" stroke-width="1" opacity="0" d="M 0 0 L 511.5 0 L 512 0.5 L 512 167.5 L 511 167.5 L 509 159.5 L 475 78.5 L 475 36 L 35.5 36 L 35 36.5 L 35 82.5 L 0.5 168 L 0 0 Z " /><path fill="rgb(0,0,0)" stroke="rgb(0,0,0)" stroke-width="1" opacity="0" d="M 0.5 190 Q 4.3 211.2 17.5 223 L 30 232.5 L 30 476 L 480 476 L 480 233.5 L 481.5 232 L 495 223 L 506 207.5 L 511.5 190 L 512 512 L 0 512 L 0.5 190 Z " /><path fill="rgb(218,68,83)" stroke="rgb(218,68,83)" stroke-width="1" opacity="1" d="M 37.5 80 L 123.5 80 Q 124.5 80 124 84.5 L 123 85.5 L 123 94.5 L 122 95.5 L 121 113.5 L 120 114.5 L 120 122.5 L 119 123.5 L 119 131.5 L 118 132.5 L 115 167 L 2.5 167 L 2 164.5 L 32 90.5 L 37.5 80 Z " /><path fill="rgb(218,68,83)" stroke="rgb(218,68,83)" stroke-width="1" opacity="1" d="M 212 80 L 298.5 80 L 299 80.5 L 299 93.5 L 300 94.5 L 302 167 L 210.5 167 L 209 165.5 L 211 90.5 L 212 89.5 L 212 80 Z " /><path fill="rgb(218,68,83)" stroke="rgb(218,68,83)" stroke-width="1" opacity="1" d="M 388 80 L 474.5 80 L 476 81.5 L 510 167 L 397.5 167 Q 396.3 166.8 397 160.5 L 396 159.5 L 396 151.5 L 395 150.5 L 394 132.5 L 393 131.5 L 393 123.5 L 392 122.5 L 392 114.5 L 391 113.5 L 388 80 Z " /><path fill="rgb(236,85,100)" stroke="rgb(236,85,100)" stroke-width="1" opacity="0.996078431372549" d="M 211.5 80 L 212 89.5 L 211 89.5 L 211.5 80 Z " /><path fill="rgb(236,85,100)" stroke="rgb(236,85,100)" stroke-width="1" opacity="0.996078431372549" d="M 299.5 81 L 300 93.5 L 299 93.5 L 299.5 81 Z " /><path fill="rgb(236,85,100)" stroke="rgb(236,85,100)" stroke-width="1" opacity="0.996078431372549" d="M 123.5 85 L 124 87.5 L 123 87.5 L 123.5 85 Z " /><path fill="rgb(236,85,100)" stroke="rgb(236,85,100)" stroke-width="1" opacity="0.996078431372549" d="M 389.5 95 L 390 97.5 L 389 97.5 L 389.5 95 Z " /><path fill="rgb(236,85,100)" stroke="rgb(236,85,100)" stroke-width="1" opacity="0.996078431372549" d="M 121.5 104 L 122 106.5 L 121 106.5 L 121.5 104 Z " /><path fill="rgb(236,85,100)" stroke="rgb(236,85,100)" stroke-width="1" opacity="0.996078431372549" d="M 210.5 105 L 211 116.5 L 210 116.5 L 210.5 105 Z " /><path fill="rgb(236,85,100)" stroke="rgb(236,85,100)" stroke-width="1" opacity="0.996078431372549" d="M 390.5 105 L 391 107.5 L 390 107.5 L 390.5 105 Z " /><path fill="rgb(236,85,100)" stroke="rgb(236,85,100)" stroke-width="1" opacity="0.996078431372549" d="M 300.5 106 L 301 116.5 L 300 116.5 L 300.5 106 Z " /><path fill="rgb(236,85,100)" stroke="rgb(236,85,100)" stroke-width="1" opacity="0.996078431372549" d="M 120.5 114 L 121 116.5 L 120 116.5 L 120.5 114 Z " /><path fill="rgb(236,85,100)" stroke="rgb(236,85,100)" stroke-width="1" opacity="0.996078431372549" d="M 391.5 114 L 392 116.5 L 391 116.5 L 391.5 114 Z " /><path fill="rgb(236,85,100)" stroke="rgb(236,85,100)" stroke-width="1" opacity="0.996078431372549" d="M 119.5 123 L 120 125.5 L 119 125.5 L 119.5 123 Z " /><path fill="rgb(236,85,100)" stroke="rgb(236,85,100)" stroke-width="1" opacity="0.996078431372549" d="M 392.5 123 L 393 125.5 L 392 125.5 L 392.5 123 Z " /><path fill="rgb(236,85,100)" stroke="rgb(236,85,100)" stroke-width="1" opacity="0.996078431372549" d="M 118.5 132 L 119 134.5 L 118 134.5 L 118.5 132 Z " /><path fill="rgb(236,85,100)" stroke="rgb(236,85,100)" stroke-width="1" opacity="0.996078431372549" d="M 209.5 132 L 210 144.5 L 209 144.5 L 209.5 132 Z " /><path fill="rgb(236,85,100)" stroke="rgb(236,85,100)" stroke-width="1" opacity="0.996078431372549" d="M 393.5 132 L 394 134.5 L 393 134.5 L 393.5 132 Z " /><path fill="rgb(236,85,100)" stroke="rgb(236,85,100)" stroke-width="1" opacity="0.996078431372549" d="M 301.5 134 L 302 144.5 L 301 144.5 L 301.5 134 Z " /><path fill="rgb(236,85,100)" stroke="rgb(236,85,100)" stroke-width="1" opacity="0.996078431372549" d="M 117.5 141 L 118 143.5 L 117 143.5 L 117.5 141 Z " /><path fill="rgb(236,85,100)" stroke="rgb(236,85,100)" stroke-width="1" opacity="0.996078431372549" d="M 394.5 142 L 395 144.5 L 394 144.5 L 394.5 142 Z " /><path fill="rgb(236,85,100)" stroke="rgb(236,85,100)" stroke-width="1" opacity="0.996078431372549" d="M 116.5 151 L 117 153.5 L 116 153.5 L 116.5 151 Z " /><path fill="rgb(236,85,100)" stroke="rgb(236,85,100)" stroke-width="1" opacity="0.996078431372549" d="M 395.5 151 L 396 153.5 L 395 153.5 L 395.5 151 Z " /><path fill="rgb(236,85,100)" stroke="rgb(236,85,100)" stroke-width="1" opacity="0.996078431372549" d="M 115.5 160 L 116 162.5 L 115 162.5 L 115.5 160 Z " /><path fill="rgb(236,85,100)" stroke="rgb(236,85,100)" stroke-width="1" opacity="0.996078431372549" d="M 208.5 160 Q 207.6 165.4 210.5 167 L 301.5 167 Q 302.5 167 302 162.5 L 303 162.5 L 302 168.5 L 303 169.5 L 304 216.5 Q 294.3 229.3 278.5 236 L 263.5 240 L 247.5 240 L 232.5 236 L 224.5 232 L 211 222 L 207 216.5 L 207 191.5 L 208 190.5 L 208.5 160 Z " /><path fill="rgb(236,85,100)" stroke="rgb(236,85,100)" stroke-width="1" opacity="0.996078431372549" d="M 396.5 160 L 397 162.5 L 396 162.5 L 396.5 160 Z " /><path fill="rgb(236,85,100)" stroke="rgb(236,85,100)" stroke-width="1" opacity="0.996078431372549" d="M 1 167 L 114.5 167 Q 115.5 167 115 171.5 L 114 172.5 L 110 215.5 L 99.5 227 Q 90.7 234.2 78.5 238 L 69.5 240 L 52.5 240 L 43.5 238 L 31.5 233 L 16 220.5 Q 8.4 212.6 4 201.5 L 0 185.5 L 0 172.5 L 1 167 Z " /><path fill="rgb(236,85,100)" stroke="rgb(236,85,100)" stroke-width="1" opacity="0.996078431372549" d="M 397 167 L 510.5 167 Q 511.5 167 511 171.5 L 512 172.5 L 512 185.5 L 508 201.5 L 503 211.5 L 492.5 224 L 478.5 234 L 468.5 238 L 459.5 240 L 442.5 240 Q 416.4 235.1 403 217.5 L 401 210.5 L 401 202.5 L 400 201.5 L 400 192.5 L 399 191.5 L 397 167 Z " /><path fill="rgb(237,242,245)" stroke="rgb(237,242,245)" stroke-width="1" opacity="1" d="M 303.5 182 L 304 184.5 L 303 184.5 L 303.5 182 Z " /><path fill="rgb(237,242,245)" stroke="rgb(237,242,245)" stroke-width="1" opacity="1" d="M 304.5 210 L 305 212.5 L 304 212.5 L 304.5 210 Z " /><path fill="rgb(237,242,245)" stroke="rgb(237,242,245)" stroke-width="1" opacity="1" d="M 113.5 219 L 119.5 226 L 113.5 219 Z " /><path fill="rgb(237,242,245)" stroke="rgb(237,242,245)" stroke-width="1" opacity="1" d="M 398.5 219 L 393.5 225 L 398.5 219 Z " /><path fill="rgb(237,242,245)" stroke="rgb(237,242,245)" stroke-width="1" opacity="1" d="M 196.5 226 L 195.5 228 L 196.5 226 Z " /><path fill="rgb(237,242,245)" stroke="rgb(237,242,245)" stroke-width="1" opacity="1" d="M 315.5 226 L 316.5 228 L 315.5 226 Z " /><path fill="rgb(237,242,245)" stroke="rgb(237,242,245)" stroke-width="1" opacity="1" d="M 122.5 227 L 123.5 229 L 122.5 227 Z " /><path fill="rgb(237,242,245)" stroke="rgb(237,242,245)" stroke-width="1" opacity="1" d="M 389.5 227 L 388.5 229 L 389.5 227 Z " /><path fill="rgb(237,242,245)" stroke="rgb(237,242,245)" stroke-width="1" opacity="1" d="M 152.5 239 L 157 239.5 L 152.5 240 L 152.5 239 Z " /><path fill="rgb(237,242,245)" stroke="rgb(237,242,245)" stroke-width="1" opacity="1" d="M 161.5 239 L 165 239.5 L 161.5 240 L 161.5 239 Z " /><path fill="rgb(237,242,245)" stroke="rgb(237,242,245)" stroke-width="1" opacity="1" d="M 347.5 239 L 351 239.5 L 347.5 240 L 347.5 239 Z " /><path fill="rgb(237,242,245)" stroke="rgb(237,242,245)" stroke-width="1" opacity="1" d="M 355.5 239 L 360 239.5 L 355.5 240 L 355.5 239 Z " /><path fill="rgb(237,242,245)" stroke="rgb(237,242,245)" stroke-width="1" opacity="1" d="M 266.5 283 L 267 389.5 L 266 389.5 L 266.5 283 Z " /><path fill="rgb(237,242,245)" stroke="rgb(237,242,245)" stroke-width="1" opacity="1" d="M 330.5 378 L 416 378.5 L 330.5 379 L 330.5 378 Z " /><path fill="rgb(245,247,249)" stroke="rgb(245,247,249)" stroke-width="1" opacity="1" d="M 205.5 217 L 204.5 219 L 205.5 217 Z " /><path fill="rgb(245,247,249)" stroke="rgb(245,247,249)" stroke-width="1" opacity="1" d="M 157.5 239 L 161 239.5 L 157.5 240 L 157.5 239 Z " /><path fill="rgb(245,247,249)" stroke="rgb(245,247,249)" stroke-width="1" opacity="1" d="M 351.5 239 L 355 239.5 L 351.5 240 L 351.5 239 Z " /><path fill="rgb(60,176,218)" stroke="rgb(60,176,218)" stroke-width="1" opacity="1" d="M 244.5 293 Q 251.1 293.9 254 298.5 L 255 307.5 L 185.5 378 L 178.5 379 L 171 373.5 L 170 365.5 L 172 361.5 L 237.5 296 L 244.5 293 Z " /><path fill="rgb(60,176,218)" stroke="rgb(60,176,218)" stroke-width="1" opacity="1" d="M 243.5 336 Q 251.6 335.9 254 341.5 L 255 350.5 L 229.5 377 L 221.5 379 L 215 376 L 213 372.5 L 213 364.5 L 238.5 338 L 243.5 336 Z " /><path fill="rgb(254,206,84)" stroke="rgb(254,206,84)" stroke-width="1" opacity="0.9882352941176471" d="M 109 216 Q 111.7 214.9 111 217.5 Q 121.3 230.7 138.5 237 L 150.5 240 L 167.5 240 Q 192 235.5 205 219.5 L 206.5 217 L 211 220.5 Q 210.3 222.8 212.5 222 Q 227.7 241.3 263.5 240 Q 290.9 234.9 304.5 216 L 313.5 226 L 332.5 237 L 344.5 240 L 361.5 240 Q 387.6 235.1 401 217.5 Q 400.3 214.9 403 216 L 403 217.5 L 412.5 227 Q 421.3 234.2 433.5 238 L 442.5 240 L 459.5 240 L 471.5 237 L 479.5 233 L 480 476 L 437.5 476 L 437 475.5 L 437 261 L 309 261 L 309 476 L 30 476 L 30.5 232 Q 44.2 241.8 69.5 240 Q 95.6 235.1 109 217.5 L 109 216 Z M 74 261 L 74 411 L 288 411 L 288 263 L 287 261 L 74 261 Z " /><path fill="rgb(79,194,233)" stroke="rgb(79,194,233)" stroke-width="1" opacity="1" d="M 95 283 L 266 283 L 266 390 L 95 390 L 95 283 Z M 245 293 L 238 296 L 172 362 L 170 366 L 171 374 L 179 379 L 186 378 L 255 308 L 254 299 Q 251 294 245 293 Z M 244 336 L 239 338 L 213 365 L 213 373 L 215 376 L 222 379 L 230 377 L 255 351 L 254 342 Q 252 336 244 336 Z " /><path fill="rgb(79,194,233)" stroke="rgb(79,194,233)" stroke-width="1" opacity="1" d="M 330 283 L 416 283 L 416 357 L 330 357 L 330 283 Z " /><path fill="rgb(79,194,233)" stroke="rgb(79,194,233)" stroke-width="1" opacity="1" d="M 330 379 L 416 379 L 416 454 L 330 454 L 330 379 Z " /><path fill="rgb(245,247,250)" stroke="rgb(245,247,250)" stroke-width="1" opacity="1" d="M 116.5 167 L 207.5 167 L 208 167.5 L 208 175.5 L 207 176.5 L 206 216.5 L 198.5 225 Q 188.4 233.9 173.5 238 L 168.5 239 L 148.5 239 Q 124 233.5 111 216.5 L 111 205.5 L 112 204.5 L 112 196.5 L 113 195.5 L 113 187.5 L 115 177.5 L 115 168.5 L 116.5 167 Z " /><path fill="rgb(245,247,250)" stroke="rgb(245,247,250)" stroke-width="1" opacity="1" d="M 303 167 L 395.5 167 L 396 168.5 L 397 169.5 L 398 187.5 L 399 188.5 L 399 196.5 L 401 206.5 L 401 216.5 Q 390.8 229.3 374.5 236 L 363.5 239 L 343.5 239 Q 319.8 234.2 307 218.5 L 305 215.5 Q 306.8 209.2 304 207.5 L 304 181.5 L 303 180.5 L 303 167 Z " /><path fill="rgb(245,247,250)" stroke="rgb(245,247,250)" stroke-width="1" opacity="1" d="M 74 262 L 287 262 L 287 411 L 74 411 L 74 262 Z M 95 282 L 95 390 L 267 390 L 267 284 L 266 282 L 95 282 Z " /><path fill="rgb(245,247,250)" stroke="rgb(245,247,250)" stroke-width="1" opacity="1" d="M 309 262 L 437 262 L 437 475 L 309 475 L 309 262 Z M 330 282 L 330 358 L 416 358 L 416 282 L 330 282 Z M 330 378 L 330 454 L 416 454 L 416 378 L 330 378 Z " /></svg>