<svg width="95" height="75" viewBox="0 0 95 75" fill="none" xmlns="http://www.w3.org/2000/svg">
<path d="M60.2875 3.8955C60.7576 2.71002 63.0002 0.861588 61.7456 1.00822C60.9253 1.10409 60.2569 2.22096 60.119 2.35975C59.872 2.66211 59.4308 3.04708 58.7691 3.48822C58.1074 3.87319 57.448 4.09253 56.6204 4.31351C55.7943 4.53409 55.0328 4.78249 53.8661 5.11237C52.5922 5.47256 51.1733 5.92162 50.4237 6.15906C49.2944 6.51677 47.5806 6.93633 46.4302 7.53703C45.22 8.16901 44.5894 8.44775 43.899 8.74729C43.0687 9.10747 41.985 9.78175 41.1175 10.5383C40.4847 11.0902 40.0607 11.7602 39.5759 12.4392C38.8853 13.4066 38.1865 14.3673 37.7866 15.0547C37.4016 15.7164 37.0273 16.5238 36.6027 17.2026C36.1888 17.8643 35.9311 18.5659 35.1694 19.7652C34.5928 20.6731 34.0115 21.4214 33.4065 22.2717C32.3854 23.7066 31.6554 24.828 31.1776 25.4638C30.6803 26.1255 30.0908 27.1016 28.0061 28.7435C26.7149 29.7604 26.0009 30.4891 25.2287 31.0533C24.5108 31.5779 23.8377 32.3073 22.9148 32.6774C22.0887 33.0087 21.3669 33.5529 19.3608 34.4131C18.3976 34.8262 17.6877 35.4228 16.3876 35.8167C15.4797 36.0918 14.866 36.5062 14.1588 36.8353C13.3847 37.1955 12.3529 37.6798 11.6804 38.1852C11.0187 38.6825 10.0818 39.3872 9.14506 40.2529C8.04467 41.2699 7.17642 42.0576 6.39327 42.6462C5.73155 43.1435 5.07621 43.6954 4.54855 44.2992C3.97026 44.961 3.43297 45.6273 3.06236 46.2819C2.5923 47.1122 2.08913 48.1914 1.79592 49.3956C1.54809 50.4133 1.28977 51.9535 1.30108 53.983C1.32999 59.1702 1.59562 59.9293 1.577 60.7968C1.54809 62.1442 1.42278 64.4626 1.30108 66.0278C1.21764 67.1009 0.683729 70.284 1.27464 72.0568C1.38452 72.3864 1.59581 72.6842 1.93719 72.854C2.10324 72.9366 2.26681 72.9911 4.31475 73.0184C6.3627 73.0456 10.1805 73.0921 12.2 73.0176C14.4388 72.935 14.8197 72.8014 15.2112 72.7144C16.2034 72.4938 17.0972 72.3645 18.2175 72.1353C20.5025 71.6677 21.9121 71.3351 23.6393 71.1175C24.9636 70.9506 26.9406 70.6812 28.4027 70.5946C29.8112 70.5111 31.3712 70.4355 32.311 70.2088C33.1124 70.0154 34.0608 69.8012 34.7076 69.3256C35.6436 68.6375 36.2741 68.0444 37.4908 67.2595C39.1199 66.2087 40.786 65.1909 41.6181 63.8724C42.0873 63.1289 42.5213 62.239 43.381 61.5329C44.4632 60.644 45.9332 59.1853 46.935 58.8348C48.0354 58.4498 48.6767 58.0708 49.4406 57.8162C50.5137 57.4585 51.7 56.9191 52.8574 56.6596C54.7038 56.2457 56.4615 56.0084 57.7563 55.8897C58.6658 55.8062 59.6468 55.5399 60.7022 55.3659C61.6993 55.2015 62.9152 55.2084 64.3677 55.0082C65.7705 54.8149 66.9754 54.6337 68.1678 54.5679C69.6796 54.4844 70.4608 54.4394 71.5797 54.2094C72.3794 54.045 73.2645 53.9557 75.8012 53.2155C78.4398 52.4456 80.1084 52.0688 81.7434 51.565C83.1751 51.1238 84.0434 50.7788 84.8265 50.3522C86.0368 49.693 86.6664 49.1406 88.131 48.3695C89.176 47.8193 89.8319 47.4814 91.243 46.966C92.3714 46.5537 93.4358 46.3404 93.5511 45.6161C93.5776 45.45 93.5598 45.2546 93.4115 45.1204C92.8043 44.571 91.937 44.5101 91.1802 43.9366C90.4912 43.4145 89.7281 43.1988 89.1983 42.6148C88.6737 42.0365 88.0767 41.5045 87.8501 40.8246C87.6295 40.1629 87.8875 38.989 87.2982 38.2645C87.1867 38.1273 87.0206 38.0777 86.8571 37.9894C86.1954 37.6317 85.3342 37.2943 84.5159 37.2194C83.6047 37.136 82.2832 37.0351 80.5489 36.751C79.5303 36.5841 78.7377 36.302 77.9623 35.8687C77.2733 35.4837 76.3561 35.2274 75.6211 34.4908C74.8511 33.7192 74.2566 33.0802 73.9713 32.3982C73.6946 31.7365 73.3807 31.073 73.1452 30.2776C72.9246 29.5324 72.7969 28.5686 72.2629 27.577L72.2165 27.4908C71.6363 26.4131 71.2661 25.7254 70.6933 24.9904C70.1125 24.2453 69.2213 23.7002 68.2967 22.5666C67.6903 21.8231 66.6164 20.702 66.0125 19.8412C65.4301 19.011 64.3839 17.7315 63.7539 16.7292C63.2855 15.9841 62.8004 15.1303 62.4049 14.3608C61.9075 13.3934 61.3843 12.2855 61.0558 11.552C60.6981 10.7531 60.4208 10.1091 60.2578 9.37596C60.0372 8.3838 59.647 7.60507 59.791 6.64978C59.9282 5.74022 59.9593 4.72326 60.2875 3.8955Z" fill="#5CD48C" stroke="#0BBB51" stroke-width="2" stroke-linecap="round"/>
<path d="M38.3086 37.8711V41.7539H40.0312V43.0117H38.3086V47.0996H36.791V37.8711H38.3086ZM35.9023 39.2383V40.4551H28.5742V39.2383H31.4863V37.8574H33.0039V39.2383H35.9023ZM32.2383 40.9609C34.0156 40.9609 35.2461 41.9043 35.2598 43.3262C35.2461 44.7344 34.0156 45.6641 32.2383 45.6641C30.4473 45.6641 29.2031 44.7344 29.2031 43.3262C29.2031 41.9043 30.4473 40.9609 32.2383 40.9609ZM32.2383 42.1367C31.2949 42.1367 30.6797 42.5742 30.6797 43.3262C30.6797 44.0645 31.2949 44.502 32.2383 44.4883C33.1816 44.502 33.8105 44.0645 33.8105 43.3262C33.8105 42.5742 33.1816 42.1367 32.2383 42.1367ZM38.8008 48.7402V49.9707H30.3926V46.375H31.9102V48.7402H38.8008ZM50.4551 37.8711V45.1992H48.9238V37.8711H50.4551ZM46.4902 38.5957V42.1777H42.3066V43.4629C44.4258 43.4561 45.9229 43.4014 47.6934 43.1074L47.8848 44.3379C45.9297 44.6523 44.2617 44.707 41.8691 44.707H40.8164V41.0156H44.9863V39.7988H40.7891V38.5957H46.4902ZM50.4551 45.7734V50.0664H42.252V45.7734H50.4551ZM43.7559 46.9902V48.8359H48.9648V46.9902H43.7559Z" fill="#006528"/>
<circle cx="43" cy="10" r="6" fill="#FF6D7A"/>
</svg>
