<svg width="102" height="71" viewBox="0 0 102 71" fill="none" xmlns="http://www.w3.org/2000/svg">
<path d="M2.50269 28.6039C2.36556 27.0475 2.03511 24.4766 2.03511 24.4766C2.03511 24.4766 3.19333 23.705 3.35938 23.6496L4.84639 23.154C5.50811 22.9334 6.18877 22.6459 6.82907 22.2998C7.49079 21.9421 8.30163 21.5553 8.97697 21.0052C9.8634 20.2832 10.976 19.3218 11.6205 18.8292C12.4508 18.1948 13.3665 17.4952 14.1832 17.2051C15.4248 16.764 16.6132 16.3176 17.4315 16.2427C18.3427 16.1592 19.9252 16.2441 21.149 15.8841C22.0899 15.6074 23.5348 15.2311 24.6468 14.8928C25.5563 14.616 26.3467 14.3555 27.1243 14.0667C27.8695 13.7899 28.8573 13.4546 29.6299 13.2406C30.6287 12.9638 32.123 12.4988 33.2128 12.2484C34.6436 11.9196 35.4601 11.5716 36.295 11.4785C37.2872 11.3678 38.0543 11.1307 39.1311 11.0654C41.3913 10.9283 45.0257 11.0338 46.3464 10.7349C47.2006 10.5416 48.0938 10.4303 49.1279 10.2393L49.2077 10.2246C50.2376 10.0345 51.4479 9.81113 52.4316 9.41233C53.3139 9.05463 54.6151 8.53248 55.7641 8.28386C56.7836 8.06329 57.6946 7.79951 58.3788 7.42965C59.0405 7.07194 59.6854 6.75554 60.6655 6.65971C61.5189 6.57627 65.8186 5.11628 66.749 6.82741C66.9134 7.12977 66.9911 7.66531 67.3273 8.28716C67.685 8.94888 68.0238 9.73076 68.9258 10.3797C69.6148 10.8754 70.2796 11.1877 70.9639 11.4248L71.0184 11.4436C71.8 11.7142 72.5979 11.9903 73.0556 12.6102C73.524 13.2447 73.9854 13.8922 74.4046 14.7036C74.7896 15.4488 75.3604 16.829 75.6711 18.8359C75.89 20.2502 75.74 22.1231 76.0833 26.5518C76.1659 27.6175 76.0591 28.9148 76.2485 30.6245C76.3857 31.8621 76.5497 32.8358 76.7169 33.5664C76.8813 34.2843 76.9916 35.0527 77.2126 35.8803C77.4332 36.7064 77.6017 37.6583 78.0668 38.4958C78.4807 39.241 78.8326 40.0582 79.2796 40.7552C79.9677 41.8284 80.4803 42.3658 81.3176 42.6247C82.1189 42.8726 83.224 43.0395 84.1264 43.1749C85.0401 43.3121 86.6093 43.3617 87.9844 43.6987C89.3326 44.0291 90.338 44.1418 91.2591 44.3315C92.1976 44.5248 93.0931 44.696 93.7366 44.9651C94.3983 45.2419 95.6201 46.1142 96.9874 47.3633C97.9242 48.2192 98.8354 49.2285 99.4641 50.3927C100.016 51.4146 100.496 52.9898 100.177 54.0268C100.067 54.3837 99.6537 54.8642 99.1287 55.4593C98.5223 56.1466 97.8652 56.4802 97.0634 56.834C96.3744 57.138 95.6 57.5609 94.5561 57.8526C93.5656 58.1293 92.8561 58.6287 91.6655 58.9546C90.8659 59.1735 89.9529 59.5585 88.8551 59.974C87.6176 60.4424 86.7246 60.6094 85.9381 60.8266C85.1392 61.0471 84.2545 61.1404 83.0458 61.4602C82.109 61.708 81.0178 62.067 79.6009 62.5077C77.9222 63.0298 76.7927 63.2952 75.1688 64.1054C74.0131 64.6821 73.2708 65.09 72.555 65.2876C71.7561 65.5082 70.8223 66.0379 68.7515 66.5276C67.2356 66.8861 66.0408 67.3582 64.8993 67.7387C63.9873 68.0427 60.2531 69.117 58.1524 69.5834C57.6576 69.6933 55.749 69.9087 53.2156 69.7197C51.3774 69.5826 49.8204 69.322 48.6529 69.0588C47.7954 68.8655 46.2693 68.4332 44.9304 68.4533C43.0072 68.4822 42.1891 68.4383 41.355 68.7854C40.3603 69.1993 38.9596 70.1175 38.0786 69.7197C37.2773 69.3579 36.401 68.6979 35.7101 68.3971C34.6304 67.9271 33.4259 67.4892 32.7642 67.2686C32.1025 67.0481 31.4234 66.7592 30.6973 66.3863C29.6241 65.8353 28.8801 65.5364 28.3032 65.0926C27.4729 64.4541 27.4722 61.9263 26.4584 61.3751C26.1561 61.2107 25.434 61.0694 24.3361 60.8249C23.3456 60.6044 22.4622 60.4121 21.5282 60.302C20.365 60.1649 18.722 60.3628 17.2315 59.6675L17.2297 59.6667C16.4052 59.2821 15.7242 58.9644 15.3893 58.3449C15.0316 57.6832 14.9526 56.9605 14.2873 55.6724C13.875 54.8744 13.5687 54.2014 13.1034 53.4155C12.6623 52.6703 12.0895 52.0255 11.7544 51.4055C11.3967 50.7438 10.8457 50.0238 10.4879 49.0916C10.1278 48.1531 9.6132 47.0352 9.16615 46.2836C8.80597 45.6781 8.20737 45.1784 7.65023 44.576C6.98851 43.8606 6.38383 43.3666 5.80551 42.842C5.22723 42.3174 4.28821 41.5383 3.82283 40.5817C3.30072 39.5086 2.82369 38.6881 2.55722 37.8291C2.30938 37.0303 2.1376 36.2696 2.03428 35.3499C1.92606 34.3867 2.10235 32.9585 2.17307 31.7687C2.25651 30.3651 2.58017 29.4831 2.50269 28.6039Z" fill="#5CD48C" stroke="#0BBB51" stroke-width="2" stroke-linecap="round"/>
<path d="M37.3496 33.8008C38.9902 33.8008 40.0566 35.4824 40.0703 38.2031C40.0566 40.9238 38.9902 42.6328 37.3496 42.6191C35.7363 42.6328 34.6836 40.9238 34.6836 38.2031C34.6836 35.4824 35.7363 33.8008 37.3496 33.8008ZM37.3496 35.2363C36.5703 35.2227 36.0781 36.2754 36.0918 38.2031C36.0781 40.1309 36.5703 41.1836 37.3496 41.1699C38.1699 41.1836 38.6621 40.1309 38.6621 38.2031C38.6621 36.2754 38.1699 35.2227 37.3496 35.2363ZM45.2246 32.8574V45.2168H43.7617V38.8867H42.4492V44.6152H41.0137V33.0762H42.4492V37.6289H43.7617V32.8574H45.2246ZM56.5234 32.8711V40.0762H54.9922V39.5703H52.6816V38.6406H54.9922V32.8711H56.5234ZM46.1465 37.3281C48.5391 37.3281 51.5195 37.3008 54.1719 37.041L54.2539 37.998C53.126 38.1553 51.9639 38.251 50.8223 38.2988V40.0898H49.3184V38.3672C48.2588 38.3945 47.2402 38.4014 46.3105 38.3945L46.1465 37.3281ZM56.5234 40.459V43.2344H49.4961V44.0273H56.8516V45.1074H48.0059V42.2363H55.0195V41.498H47.9512V40.459H56.5234ZM50.1387 33.0625C51.9707 33.0625 53.2285 33.8008 53.2285 34.9219C53.2285 36.0703 51.9707 36.7676 50.1387 36.7676C48.2656 36.7676 47.0215 36.0703 47.0215 34.9219C47.0215 33.8008 48.2656 33.0625 50.1387 33.0625ZM50.1387 34.0742C49.0996 34.0742 48.457 34.4023 48.4707 34.9219C48.457 35.4414 49.0996 35.7559 50.1387 35.7559C51.1504 35.7559 51.8066 35.4414 51.8066 34.9219C51.8066 34.4023 51.1504 34.0742 50.1387 34.0742Z" fill="#006528"/>
<circle cx="64" cy="6" r="6" fill="#FF6D7A"/>
</svg>
