<svg width="102" height="66" viewBox="0 0 102 66" fill="none" xmlns="http://www.w3.org/2000/svg">
<path d="M2.50269 23.6039C2.36556 22.0475 2.03511 19.4766 2.03511 19.4766C2.03511 19.4766 3.19333 18.705 3.35938 18.6496L4.84639 18.154C5.50811 17.9334 6.18877 17.6459 6.82907 17.2998C7.49079 16.9421 8.30163 16.5553 8.97697 16.0052C9.8634 15.2832 10.976 14.3218 11.6205 13.8292C12.4508 13.1948 13.3665 12.4952 14.1832 12.2051C15.4248 11.764 16.6132 11.3176 17.4315 11.2427C18.3427 11.1592 19.9252 11.2441 21.149 10.8841C22.0899 10.6074 23.5348 10.2311 24.6468 9.8928C25.5563 9.61605 26.3467 9.35549 27.1243 9.06668C27.8695 8.78993 28.8573 8.45464 29.6299 8.24056C30.6287 7.96381 32.123 7.49881 33.2128 7.2484C34.6436 6.9196 35.4601 6.57161 36.295 6.47845C37.2872 6.36775 38.0543 6.13073 39.1311 6.0654C41.3913 5.92826 45.0257 6.03382 46.3464 5.73495C47.2006 5.54164 48.0938 5.43027 49.1279 5.23928L49.2077 5.22455C50.2376 5.0345 51.4479 4.81113 52.4316 4.41233C53.3139 4.05463 54.6151 3.53248 55.7641 3.28386C56.7836 3.06329 57.6946 2.79951 58.3788 2.42965C59.0405 2.07194 59.6854 1.75554 60.6655 1.65971C61.5189 1.57627 65.8186 0.11628 66.749 1.82741C66.9134 2.12977 66.9911 2.66531 67.3273 3.28716C67.685 3.94888 68.0238 4.73076 68.9258 5.37972C69.6148 5.87539 70.2796 6.18769 70.9639 6.42476L71.0184 6.44362C71.8 6.71416 72.5979 6.99033 73.0556 7.61024C73.524 8.24469 73.9854 8.89221 74.4046 9.70362C74.7896 10.4488 75.3604 11.829 75.6711 13.8359C75.89 15.2502 75.74 17.1231 76.0833 21.5518C76.1659 22.6175 76.0591 23.9148 76.2485 25.6245C76.3857 26.8621 76.5497 27.8358 76.7169 28.5664C76.8813 29.2843 76.9916 30.0527 77.2126 30.8803C77.4332 31.7064 77.6017 32.6583 78.0668 33.4958C78.4807 34.241 78.8326 35.0582 79.2796 35.7552C79.9677 36.8284 80.4803 37.3658 81.3176 37.6247C82.1189 37.8726 83.224 38.0395 84.1264 38.1749C85.0401 38.3121 86.6093 38.3617 87.9844 38.6987C89.3326 39.0291 90.338 39.1418 91.2591 39.3315C92.1976 39.5248 93.0931 39.696 93.7366 39.9651C94.3983 40.2419 95.6201 41.1142 96.9874 42.3633C97.9242 43.2192 98.8354 44.2285 99.4641 45.3927C100.016 46.4146 100.496 47.9898 100.177 49.0268C100.067 49.3837 99.6537 49.8642 99.1287 50.4593C98.5223 51.1466 97.8652 51.4802 97.0634 51.834C96.3744 52.138 95.6 52.5609 94.5561 52.8526C93.5656 53.1293 92.8561 53.6287 91.6655 53.9546C90.8659 54.1735 89.9529 54.5585 88.8551 54.974C87.6176 55.4424 86.7246 55.6094 85.9381 55.8266C85.1392 56.0471 84.2545 56.1404 83.0458 56.4602C82.109 56.708 81.0178 57.067 79.6009 57.5077C77.9222 58.0298 76.7927 58.2952 75.1688 59.1054C74.0131 59.6821 73.2708 60.09 72.555 60.2876C71.7561 60.5082 70.8223 61.0379 68.7515 61.5276C67.2356 61.8861 66.0408 62.3582 64.8993 62.7387C63.9873 63.0427 60.2531 64.117 58.1524 64.5834C57.6576 64.6933 55.749 64.9087 53.2156 64.7197C51.3774 64.5826 49.8204 64.322 48.6529 64.0588C47.7954 63.8655 46.2693 63.4332 44.9304 63.4533C43.0072 63.4822 42.1891 63.4383 41.355 63.7854C40.3603 64.1993 38.9596 65.1175 38.0786 64.7197C37.2773 64.3579 36.401 63.6979 35.7101 63.3971C34.6304 62.9271 33.4259 62.4892 32.7642 62.2686C32.1025 62.0481 31.4234 61.7592 30.6973 61.3863C29.6241 60.8353 28.8801 60.5364 28.3032 60.0926C27.4729 59.4541 27.4722 56.9263 26.4584 56.3751C26.1561 56.2107 25.434 56.0694 24.3361 55.8249C23.3456 55.6044 22.4622 55.4121 21.5282 55.302C20.365 55.1649 18.722 55.3628 17.2315 54.6675L17.2297 54.6667C16.4052 54.2821 15.7242 53.9644 15.3893 53.3449C15.0316 52.6832 14.9526 51.9605 14.2873 50.6724C13.875 49.8744 13.5687 49.2014 13.1034 48.4155C12.6623 47.6703 12.0895 47.0255 11.7544 46.4055C11.3967 45.7438 10.8457 45.0238 10.4879 44.0916C10.1278 43.1531 9.6132 42.0352 9.16615 41.2836C8.80597 40.6781 8.20737 40.1784 7.65023 39.576C6.98851 38.8606 6.38383 38.3666 5.80551 37.842C5.22723 37.3174 4.28821 36.5383 3.82283 35.5817C3.30072 34.5086 2.82369 33.6881 2.55722 32.8291C2.30938 32.0303 2.1376 31.2696 2.03428 30.3499C1.92606 29.3867 2.10235 27.9585 2.17307 26.7687C2.25651 25.3651 2.58017 24.4831 2.50269 23.6039Z" fill="#5CD48C" stroke="#0BBB51" stroke-width="2" stroke-linecap="round"/>
<path d="M37.3496 28.8008C38.9902 28.8008 40.0566 30.4824 40.0703 33.2031C40.0566 35.9238 38.9902 37.6328 37.3496 37.6191C35.7363 37.6328 34.6836 35.9238 34.6836 33.2031C34.6836 30.4824 35.7363 28.8008 37.3496 28.8008ZM37.3496 30.2363C36.5703 30.2227 36.0781 31.2754 36.0918 33.2031C36.0781 35.1309 36.5703 36.1836 37.3496 36.1699C38.1699 36.1836 38.6621 35.1309 38.6621 33.2031C38.6621 31.2754 38.1699 30.2227 37.3496 30.2363ZM45.2246 27.8574V40.2168H43.7617V33.8867H42.4492V39.6152H41.0137V28.0762H42.4492V32.6289H43.7617V27.8574H45.2246ZM56.5234 27.8711V35.0762H54.9922V34.5703H52.6816V33.6406H54.9922V27.8711H56.5234ZM46.1465 32.3281C48.5391 32.3281 51.5195 32.3008 54.1719 32.041L54.2539 32.998C53.126 33.1553 51.9639 33.251 50.8223 33.2988V35.0898H49.3184V33.3672C48.2588 33.3945 47.2402 33.4014 46.3105 33.3945L46.1465 32.3281ZM56.5234 35.459V38.2344H49.4961V39.0273H56.8516V40.1074H48.0059V37.2363H55.0195V36.498H47.9512V35.459H56.5234ZM50.1387 28.0625C51.9707 28.0625 53.2285 28.8008 53.2285 29.9219C53.2285 31.0703 51.9707 31.7676 50.1387 31.7676C48.2656 31.7676 47.0215 31.0703 47.0215 29.9219C47.0215 28.8008 48.2656 28.0625 50.1387 28.0625ZM50.1387 29.0742C49.0996 29.0742 48.457 29.4023 48.4707 29.9219C48.457 30.4414 49.0996 30.7559 50.1387 30.7559C51.1504 30.7559 51.8066 30.4414 51.8066 29.9219C51.8066 29.4023 51.1504 29.0742 50.1387 29.0742Z" fill="#006528"/>
</svg>
