<svg width="152" height="92" viewBox="0 0 152 92" fill="none" xmlns="http://www.w3.org/2000/svg">
<path d="M61.2357 34.3836C75.9323 27.9538 97.4669 36.0421 106.397 40.8899L60.0876 84.9031H-0.00012207L61.2357 34.3836Z" fill="white"/>
<path d="M106.397 40.5943C121.094 34.1645 142.628 42.2527 151.559 47.1006L105.249 91.1138L57.0259 87.5821L106.397 40.5943Z" fill="#FCFCFC"/>
<path d="M52.743 28.0503C52.743 28.0503 49.4741 24.0547 51.4953 22.8299C53.5166 21.6051 56.0949 26.568 56.0949 26.568L52.743 28.0503Z" fill="#C79A83"/>
<path d="M56.0623 35.817C56.0623 35.817 48.8117 31.0797 52.5817 26.2456C56.3517 21.4114 64.3771 31.0316 64.3771 31.0316L56.0623 35.817Z" fill="#D7AD98"/>
<path d="M70.0812 30.4991C70.0812 30.4991 64.5378 25.0207 59.6399 27.9852C50.842 33.9803 55.5793 46.7413 63.2168 47.8055L70.0812 30.4991Z" fill="#C79A83"/>
<path d="M81.2961 37.5898L79.6201 33.439C77.7583 30.5407 72.6811 27.9431 67.5191 30.3109C65.6597 31.2139 64.0902 32.6194 62.9882 34.3682C61.8863 36.1171 61.2959 38.1395 61.2839 40.2066C60.8929 56.0698 71.6206 65.3934 86.8064 61.2438L81.2961 37.5898Z" fill="#D7AD98"/>
<path d="M83.0917 47.5155L79.6201 33.439C79.6201 33.439 85.2598 30.9804 89.6133 41.521C93.9668 52.0615 86.8094 61.2438 86.8094 61.2438L83.0917 47.5155Z" fill="#BF8F76"/>
<path d="M118.163 41.7124C118.097 43.3908 114.68 44.6179 114.62 46.4226C114.56 48.2273 111.913 47.5175 111.203 48.7386C110.493 49.9598 110.427 53.6414 108.238 53.5752C106.048 53.509 105.404 56.7996 103.852 56.0236C103.338 55.6422 102.928 55.1391 102.657 54.5594C102.386 53.9797 102.263 53.3417 102.3 52.7029C98.9736 52.5044 90.7141 51.2592 93.5114 43.6254C93.5836 43.4148 93.6738 43.2043 93.764 42.9817C93.764 42.9757 93.7701 42.9757 93.7701 42.9697C93.7701 42.9636 91.6104 40.425 93.9926 36.4968C96.3748 32.5686 101.211 33.5913 101.211 33.5913C101.211 33.5913 100.76 30.4331 104.887 29.7293C109.014 29.0254 110.223 32.8875 110.223 32.8875C110.223 32.8875 112.364 31.4678 114.747 33.9823C116.196 35.5103 116.076 38.3196 115.757 40.2867C116.238 40.2626 118.218 40.2446 118.163 41.7124Z" fill="#FFE773"/>
<path d="M103.485 48.4679C103.475 48.5402 103.439 48.6063 103.384 48.6538C103.328 48.7014 103.257 48.7273 103.184 48.7266H103.148C102.89 48.6905 96.9042 47.8723 93.5114 43.6253C93.5835 43.4148 93.6738 43.2042 93.764 42.9816C93.776 42.9877 93.7821 42.9997 93.7881 43.0057C96.9944 47.2648 103.16 48.125 103.227 48.131C103.306 48.1415 103.377 48.1828 103.426 48.246C103.474 48.3091 103.496 48.3889 103.485 48.4679ZM101.229 32.8814C101.273 32.8835 101.315 32.8981 101.35 32.9235C106.547 36.4366 107.925 42.8974 107.985 43.1681C107.993 43.2068 107.993 43.2467 107.986 43.2855C107.978 43.3243 107.963 43.3612 107.941 43.3942C107.919 43.4271 107.891 43.4555 107.859 43.4776C107.826 43.4997 107.789 43.5152 107.75 43.523C107.731 43.528 107.71 43.53 107.69 43.5291C107.621 43.5291 107.554 43.5051 107.5 43.4613C107.446 43.4174 107.409 43.3564 107.395 43.2884C107.383 43.2283 106.036 36.966 101.211 33.5612L101.229 32.8814ZM110.794 32.6348C111.703 34.3913 112.027 37.4894 111.763 41.8447C111.751 42.0191 111.745 42.1334 111.745 42.1816C111.745 42.2613 111.713 42.3378 111.657 42.3942C111.6 42.4507 111.524 42.4823 111.444 42.4823C111.364 42.4823 111.288 42.4507 111.231 42.3942C111.175 42.3378 111.143 42.2613 111.143 42.1816C111.143 42.1274 111.149 42.0011 111.161 41.8086C111.42 37.5616 111.113 34.5658 110.259 32.9115C110.252 32.9005 110.248 32.8882 110.247 32.8754L110.794 32.6348Z" fill="#E8C72A"/>
<path d="M97.5136 68.0596C99.1555 68.0596 100.486 66.7286 100.486 65.0867C100.486 63.4448 99.1555 62.1138 97.5136 62.1138C95.8717 62.1138 94.5406 63.4448 94.5406 65.0867C94.5406 66.7286 95.8717 68.0596 97.5136 68.0596Z" fill="#CBE3FA"/>
<path d="M103.404 62.1137C104.29 62.1137 105.009 61.3952 105.009 60.5088C105.009 59.6224 104.29 58.9038 103.404 58.9038C102.517 58.9038 101.799 59.6224 101.799 60.5088C101.799 61.3952 102.517 62.1137 103.404 62.1137Z" fill="#CBE3FA"/>
<path d="M86.8063 61.2439C86.8063 61.2439 91.9948 37.0888 79.6201 33.4397C79.6201 33.4397 72.8844 47.0645 86.8063 61.2439Z" fill="#695145"/>
<path d="M68.8485 19.8647C70.5705 19.8647 71.9664 18.4688 71.9664 16.7468C71.9664 15.0248 70.5705 13.6289 68.8485 13.6289C67.1265 13.6289 65.7306 15.0248 65.7306 16.7468C65.7306 18.4688 67.1265 19.8647 68.8485 19.8647Z" fill="#CBE3FA"/>
<path d="M73.7669 12.5414C74.7613 12.5414 75.5674 11.7353 75.5674 10.7409C75.5674 9.74653 74.7613 8.94043 73.7669 8.94043C72.7725 8.94043 71.9664 9.74653 71.9664 10.7409C71.9664 11.7353 72.7725 12.5414 73.7669 12.5414Z" fill="#CBE3FA"/>
<path d="M98.8412 24.3393C98.8172 25.6567 95.2619 25.4522 93.2527 25.2296C93.2148 25.2246 93.1766 25.2226 93.1384 25.2236H93.1204C92.9496 25.2238 92.7807 25.2604 92.6252 25.3309C92.4696 25.4014 92.3308 25.5043 92.218 25.6326C92.0202 25.8517 91.9127 26.1376 91.9173 26.4327C91.9173 29.0014 91.809 34.2771 90.8886 34.259C90.1186 34.5779 87.3333 30.1263 86.0821 28.0449C85.897 27.7346 85.6271 27.4837 85.3042 27.3217C84.9812 27.1597 84.6187 27.0934 84.2594 27.1305C81.8411 27.3772 76.6075 27.8163 76.403 27.0042C75.8315 26.2763 79.9943 23.0339 82.0516 21.4939C82.1876 21.3929 82.3007 21.2644 82.3836 21.1167C82.4664 20.969 82.5172 20.8055 82.5325 20.6369C82.5478 20.4682 82.5274 20.2983 82.4725 20.1381C82.4176 19.9779 82.3296 19.8311 82.2141 19.7072C80.8305 18.2274 78.5385 15.5023 79.5792 14.6962C80.2469 14.1729 83.4833 15.5083 85.5708 16.1701C86.0106 16.3091 86.4811 16.3183 86.926 16.1967C87.371 16.075 87.7714 15.8277 88.0793 15.4843C90.3953 12.9276 92.2962 11.2252 93.2948 11.3636C94.0047 12.0794 93.7761 14.624 93.1144 18.0048C93.0259 18.4581 93.0689 18.9271 93.2384 19.3567C93.4079 19.7863 93.6967 20.1584 94.0709 20.4291C95.8515 21.7044 98.8593 23.4971 98.8412 24.3393Z" fill="#FF6D7A"/>
<path d="M92.8714 23.1161C92.8397 23.1161 92.8082 23.1111 92.7781 23.1011C89.8002 22.0942 87.0098 20.6005 84.5205 18.6808C84.4566 18.6329 84.4145 18.5617 84.4032 18.4827C84.3919 18.4038 84.4124 18.3235 84.4603 18.2597C84.5082 18.1959 84.5794 18.1537 84.6584 18.1424C84.7374 18.1311 84.8176 18.1517 84.8814 18.1996C87.3178 20.0796 90.0488 21.5431 92.9634 22.5308C93.0313 22.5531 93.089 22.5989 93.1262 22.6599C93.1635 22.7209 93.1777 22.7932 93.1665 22.8638C93.1553 22.9344 93.1193 22.9986 93.065 23.0451C93.0107 23.0916 92.9416 23.1172 92.8701 23.1173L92.8714 23.1161Z" fill="#DE3544"/>
<path d="M83.6837 24.4771C83.6129 24.4769 83.5443 24.4518 83.4902 24.4061C83.4361 24.3604 83.3998 24.2971 83.3878 24.2273C83.3758 24.1574 83.3888 24.0856 83.4246 24.0245C83.4603 23.9633 83.5165 23.9167 83.5833 23.8929C85.4657 23.1344 87.1617 21.9774 88.5546 20.5013C88.5823 20.4718 88.6157 20.4482 88.6528 20.4319C88.6899 20.4156 88.73 20.407 88.7705 20.4065C88.811 20.4061 88.8512 20.4138 88.8886 20.4293C88.9261 20.4448 88.96 20.4676 88.9884 20.4966C89.0168 20.5255 89.0391 20.5598 89.0538 20.5976C89.0686 20.6353 89.0756 20.6756 89.0744 20.7161C89.0732 20.7566 89.0639 20.7965 89.0469 20.8333C89.0299 20.8701 89.0057 20.903 88.9757 20.9302C87.5214 22.4687 85.7502 23.6729 83.7848 24.4596C83.7524 24.4713 83.7182 24.4772 83.6837 24.4771Z" fill="#DE3544"/>
<path d="M89.2746 27.2194C89.2092 27.2195 89.1456 27.1981 89.0934 27.1587C89.0412 27.1193 89.0032 27.064 88.9853 27.0011C88.4467 24.9448 88.2708 22.8104 88.4655 20.6937C88.4714 20.6139 88.5086 20.5397 88.5692 20.4874C88.6297 20.4351 88.7085 20.409 88.7883 20.4149C88.868 20.4207 88.9422 20.458 88.9945 20.5185C89.0468 20.579 89.0729 20.6578 89.0671 20.7376C88.8779 22.7838 89.0467 24.8473 89.5658 26.8356C89.5767 26.8737 89.58 26.9135 89.5755 26.9528C89.571 26.9921 89.5588 27.0302 89.5396 27.0648C89.5204 27.0994 89.4945 27.1298 89.4635 27.1544C89.4325 27.179 89.3969 27.1972 89.3589 27.208C89.3314 27.2155 89.3031 27.2193 89.2746 27.2194Z" fill="#DE3544"/>
<path d="M88.7657 21.0169C88.7543 21.0175 88.7428 21.0175 88.7314 21.0169C88.6922 21.0124 88.6541 21.0003 88.6196 20.9812C88.585 20.9621 88.5545 20.9364 88.5299 20.9055C88.5052 20.8746 88.4869 20.8392 88.476 20.8012C88.465 20.7632 88.4617 20.7235 88.4661 20.6842C88.6081 19.4209 89.2428 18.1474 90.4615 16.6748C90.5124 16.6133 90.5857 16.5745 90.6651 16.567C90.7446 16.5595 90.8238 16.5839 90.8853 16.6348C90.9468 16.6857 90.9856 16.7589 90.9931 16.8384C91.0006 16.9179 90.9762 16.9971 90.9253 17.0586C89.7824 18.4374 89.1922 19.6104 89.0641 20.751C89.0555 20.8241 89.0204 20.8916 88.9654 20.9406C88.9104 20.9896 88.8394 21.0168 88.7657 21.0169ZM93.1204 25.2236C92.9496 25.2238 92.7808 25.2604 92.6252 25.3309C92.4696 25.4015 92.3308 25.5043 92.2181 25.6326L91.2315 25.4161C91.1927 25.4076 91.156 25.3914 91.1235 25.3686C91.0909 25.3458 91.0633 25.3168 91.042 25.2833C91.0207 25.2497 91.0064 25.2123 90.9996 25.1731C90.9929 25.134 90.9941 25.0939 91.0029 25.0551C91.0202 24.9781 91.0671 24.9109 91.1335 24.8681C91.1999 24.8254 91.2805 24.8104 91.3578 24.8266L93.1204 25.2236Z" fill="#DE3544"/>
</svg>
