<svg width="125" height="93" viewBox="0 0 125 93" fill="none" xmlns="http://www.w3.org/2000/svg">
<path d="M125.5 46.3457L26.5 11.8457H49L125.5 38.8457V46.3457Z" fill="white"/>
<path d="M0.5 94.3457L75 27.8457L81.5 28.8457L10.5 94.3457H0.5Z" fill="white"/>
<path d="M26 94.3457L95 32.8457L101.5 33.8457L36 94.3457H26Z" fill="white"/>
<path d="M91 94.3457L160 32.8457L166.5 33.8457L101 94.3457H91Z" fill="white"/>
<path d="M51.5 48.8457L120.5 73.3457L115 78.3457L45.5 54.3457L51.5 48.8457Z" fill="white"/>
<rect x="21" y="0.845703" width="43" height="32" fill="url(#paint0_linear_498_1974)"/>
<path d="M102 53.1585C105.3 49.996 110.7 49.996 114 53.1585C117.3 56.321 117.3 61.4002 114 64.6585L108.7 69.7376C108.3 70.1208 107.7 70.1209 107.3 69.7376L102 64.6585C98.7002 61.4961 98.7004 56.321 102 53.1585ZM108 56.2386C106.58 56.2386 105.429 57.3416 105.429 58.7024C105.429 60.0634 106.58 61.1672 108 61.1673C109.42 61.1673 110.571 60.0634 110.571 58.7024C110.571 57.3416 109.42 56.2386 108 56.2386Z" fill="#20AEEA"/>
<path opacity="0.5" d="M99.0176 36.0654L70 62.8457L51.5 56.3457L33.0391 73.5459L28.9609 69.1455L51.5 48.8457L69.5 55.3457L94.9824 31.626L99.0176 36.0654Z" fill="url(#paint1_linear_498_1974)"/>
<defs>
<linearGradient id="paint0_linear_498_1974" x1="64" y1="16.8457" x2="21" y2="16.8457" gradientUnits="userSpaceOnUse">
<stop stop-color="#F1F8FA" stop-opacity="0"/>
<stop offset="1" stop-color="#F1F8FA"/>
</linearGradient>
<linearGradient id="paint1_linear_498_1974" x1="96.5" y1="35.3457" x2="30.5" y2="73.3457" gradientUnits="userSpaceOnUse">
<stop stop-color="#20AEEA" stop-opacity="0"/>
<stop offset="1" stop-color="#20AEEA"/>
</linearGradient>
</defs>
</svg>
