<svg width="512" height="512" version="1.1" xmlns="http://www.w3.org/2000/svg" desc="Created with imagetracer.js version 1.2.6" ><path fill="rgb(0,0,0)" stroke="rgb(0,0,0)" stroke-width="1" opacity="0" d="M 0 0 L 512 0 L 512 512 L 0 512 L 0 0 Z M 99 16 Q 78 20 66 32 Q 50 46 45 71 L 45 90 L 47 99 Q 52 114 62 125 Q 75 139 99 144 L 121 144 L 129 142 Q 141 138 150 131 L 165 114 L 172 97 L 174 86 L 174 75 L 172 64 Q 168 49 160 40 Q 149 26 132 19 L 121 16 L 99 16 Z M 251 16 L 247 18 L 240 27 L 240 486 L 242 490 L 251 496 Q 261 498 266 494 L 272 486 L 272 27 L 270 23 Q 266 14 251 16 Z M 390 16 L 378 19 L 359 30 Q 341 44 336 70 L 336 91 L 338 100 Q 343 113 351 123 Q 365 139 390 144 L 411 144 L 420 142 Q 433 137 443 129 Q 459 115 464 91 L 464 70 L 462 61 Q 457 47 449 38 Q 439 25 423 19 L 411 16 L 390 16 Z M 52 160 Q 41 162 34 168 Q 20 177 16 196 L 16 218 L 17 219 L 17 229 L 18 230 L 18 240 L 19 241 L 19 251 L 20 252 L 22 284 L 23 285 L 23 295 L 24 296 L 24 306 L 25 307 L 25 317 L 26 318 L 26 328 L 27 329 L 27 339 L 28 340 L 28 350 Q 31 351 29 357 L 32 363 L 40 368 L 61 368 L 61 485 L 64 491 L 72 496 Q 82 498 87 494 Q 93 491 94 483 L 94 369 L 95 368 L 125 368 L 125 485 L 128 491 L 136 496 Q 146 498 151 494 Q 157 491 158 483 L 158 368 L 179 368 L 183 366 Q 188 362 190 355 L 194 302 L 195 301 L 195 291 L 196 290 L 196 280 L 197 279 L 197 269 L 198 268 L 198 258 L 199 257 L 199 247 L 200 246 L 200 236 L 201 235 L 201 225 L 202 224 L 202 214 L 203 213 L 202 194 Q 199 182 192 175 Q 183 163 167 160 L 52 160 Z M 375 160 Q 360 163 351 171 Q 336 182 330 203 L 304 346 Q 302 356 306 362 L 315 368 L 352 368 L 352 486 L 354 490 L 363 496 Q 373 498 378 494 L 384 486 L 384 369 L 385 368 L 416 368 L 416 486 L 418 490 L 427 496 Q 437 498 442 494 L 448 486 L 448 368 L 486 368 L 490 366 L 496 358 L 495 340 L 493 334 L 493 329 L 491 323 L 491 318 L 489 312 L 489 307 L 487 301 L 487 296 L 485 290 L 485 285 L 483 279 L 483 274 L 481 268 L 481 263 L 479 257 L 479 252 L 477 246 L 470 203 Q 467 190 460 182 Q 449 167 430 161 L 426 160 L 375 160 Z " /><path fill="rgb(236,64,121)" stroke="rgb(236,64,121)" stroke-width="1" opacity="0.5215686274509804" d="M 389.5 16 L 395 16.5 L 389.5 17 L 389.5 16 Z " /><path fill="rgb(236,64,121)" stroke="rgb(236,64,121)" stroke-width="1" opacity="0.5215686274509804" d="M 405.5 16 L 411 16.5 L 405.5 17 L 405.5 16 Z " /><path fill="rgb(236,64,121)" stroke="rgb(236,64,121)" stroke-width="1" opacity="0.5215686274509804" d="M 384.5 17 L 387 17.5 L 384.5 18 L 384.5 17 Z " /><path fill="rgb(236,64,121)" stroke="rgb(236,64,121)" stroke-width="1" opacity="0.5215686274509804" d="M 413.5 17 L 416 17.5 L 413.5 18 L 413.5 17 Z " /><path fill="rgb(236,64,121)" stroke="rgb(236,64,121)" stroke-width="1" opacity="0.5215686274509804" d="M 380.5 18 L 383 18.5 L 373.5 22 L 373.5 21 L 380.5 18 Z " /><path fill="rgb(236,64,121)" stroke="rgb(236,64,121)" stroke-width="1" opacity="0.5215686274509804" d="M 417.5 18 L 427 21.5 L 425.5 22 L 417.5 19 L 417.5 18 Z " /><path fill="rgb(236,64,121)" stroke="rgb(236,64,121)" stroke-width="1" opacity="0.5215686274509804" d="M 369.5 23 L 368.5 25 Q 358.6 29.6 352 37.5 L 343.5 50 L 344 48.5 L 347 42.5 L 358.5 30 L 369.5 23 Z " /><path fill="rgb(236,64,121)" stroke="rgb(236,64,121)" stroke-width="1" opacity="0.5215686274509804" d="M 430.5 23 Q 441.6 28.4 449 37.5 L 457 49.5 L 455 48.5 L 443.5 33 L 431.5 25 L 430.5 23 Z " /><path fill="rgb(236,64,121)" stroke="rgb(236,64,121)" stroke-width="1" opacity="0.5215686274509804" d="M 341.5 53 L 342 54.5 L 338.5 63 L 338 60.5 L 341.5 53 Z " /><path fill="rgb(236,64,121)" stroke="rgb(236,64,121)" stroke-width="1" opacity="0.5215686274509804" d="M 458.5 53 L 462 62.5 L 461 62.5 L 458.5 53 Z " /><path fill="rgb(236,64,121)" stroke="rgb(236,64,121)" stroke-width="1" opacity="0.5215686274509804" d="M 337.5 64 L 338 66.5 L 337 66.5 L 337.5 64 Z " /><path fill="rgb(236,64,121)" stroke="rgb(236,64,121)" stroke-width="1" opacity="0.5215686274509804" d="M 462.5 64 L 463 66.5 L 462 66.5 L 462.5 64 Z " /><path fill="rgb(236,64,121)" stroke="rgb(236,64,121)" stroke-width="1" opacity="0.5215686274509804" d="M 336.5 69 L 337 74.5 L 336 74.5 L 336.5 69 Z " /><path fill="rgb(236,64,121)" stroke="rgb(236,64,121)" stroke-width="1" opacity="0.5215686274509804" d="M 463.5 69 L 464 74.5 L 463 74.5 L 463.5 69 Z " /><path fill="rgb(236,64,121)" stroke="rgb(236,64,121)" stroke-width="1" opacity="0.5215686274509804" d="M 336.5 85 L 337 90.5 L 336 90.5 L 336.5 85 Z " /><path fill="rgb(236,64,121)" stroke="rgb(236,64,121)" stroke-width="1" opacity="0.5215686274509804" d="M 463.5 85 L 464 90.5 L 463 90.5 L 463.5 85 Z " /><path fill="rgb(236,64,121)" stroke="rgb(236,64,121)" stroke-width="1" opacity="0.5215686274509804" d="M 337.5 93 L 338 95.5 L 337 95.5 L 337.5 93 Z " /><path fill="rgb(236,64,121)" stroke="rgb(236,64,121)" stroke-width="1" opacity="0.5215686274509804" d="M 462.5 93 L 463 95.5 L 462 95.5 L 462.5 93 Z " /><path fill="rgb(236,64,121)" stroke="rgb(236,64,121)" stroke-width="1" opacity="0.5215686274509804" d="M 338.5 97 L 342 106.5 L 341 106.5 L 338 99.5 L 338.5 97 Z " /><path fill="rgb(236,64,121)" stroke="rgb(236,64,121)" stroke-width="1" opacity="0.5215686274509804" d="M 461.5 97 L 462 99.5 L 458.5 107 L 458 105.5 L 461.5 97 Z " /><path fill="rgb(236,64,121)" stroke="rgb(236,64,121)" stroke-width="1" opacity="0.5215686274509804" d="M 343.5 110 L 356.5 127 L 370 136.5 L 368.5 136 Q 358 131 351 122.5 Q 345 117 343.5 110 Z " /><path fill="rgb(236,64,121)" stroke="rgb(236,64,121)" stroke-width="1" opacity="0.5215686274509804" d="M 456.5 110 L 456 111.5 Q 451.5 122.5 442.5 129 L 430.5 137 L 431.5 135 L 447 123.5 L 456.5 110 Z " /><path fill="rgb(236,64,121)" stroke="rgb(236,64,121)" stroke-width="1" opacity="0.5215686274509804" d="M 373.5 138 L 383 141.5 L 380.5 142 L 373.5 139 L 373.5 138 Z " /><path fill="rgb(236,64,121)" stroke="rgb(236,64,121)" stroke-width="1" opacity="0.5215686274509804" d="M 425.5 138 L 427 138.5 L 417.5 142 L 417.5 141 L 425.5 138 Z " /><path fill="rgb(236,64,121)" stroke="rgb(236,64,121)" stroke-width="1" opacity="0.5215686274509804" d="M 384.5 142 L 387 142.5 L 384.5 143 L 384.5 142 Z " /><path fill="rgb(236,64,121)" stroke="rgb(236,64,121)" stroke-width="1" opacity="0.5215686274509804" d="M 413.5 142 L 416 142.5 L 413.5 143 L 413.5 142 Z " /><path fill="rgb(236,64,121)" stroke="rgb(236,64,121)" stroke-width="1" opacity="0.5215686274509804" d="M 389.5 143 L 395 143.5 L 389.5 144 L 389.5 143 Z " /><path fill="rgb(236,64,121)" stroke="rgb(236,64,121)" stroke-width="1" opacity="0.5215686274509804" d="M 405.5 143 L 411 143.5 L 405.5 144 L 405.5 143 Z " /><path fill="rgb(236,64,121)" stroke="rgb(236,64,121)" stroke-width="1" opacity="0.5215686274509804" d="M 374.5 160 L 379 160.5 L 374.5 161 L 374.5 160 Z " /><path fill="rgb(236,64,121)" stroke="rgb(236,64,121)" stroke-width="1" opacity="0.5215686274509804" d="M 421.5 160 L 426 160.5 L 421.5 161 L 421.5 160 Z " /><path fill="rgb(236,64,121)" stroke="rgb(236,64,121)" stroke-width="1" opacity="0.5215686274509804" d="M 370.5 161 L 373 161.5 L 370.5 162 L 370.5 161 Z " /><path fill="rgb(236,64,121)" stroke="rgb(236,64,121)" stroke-width="1" opacity="0.5215686274509804" d="M 427.5 161 L 430 161.5 L 427.5 162 L 427.5 161 Z " /><path fill="rgb(236,64,121)" stroke="rgb(236,64,121)" stroke-width="1" opacity="0.5215686274509804" d="M 364.5 163 L 366 163.5 L 362.5 165 L 362.5 164 L 364.5 163 Z " /><path fill="rgb(236,64,121)" stroke="rgb(236,64,121)" stroke-width="1" opacity="0.5215686274509804" d="M 434.5 163 L 438 164.5 L 436.5 165 L 434.5 163 Z " /><path fill="rgb(236,64,121)" stroke="rgb(236,64,121)" stroke-width="1" opacity="0.5215686274509804" d="M 360.5 165 L 359.5 167 Q 347.9 171.9 341 181.5 L 332.5 198 L 332 195.5 Q 338.3 180.3 350.5 171 L 360.5 165 Z " /><path fill="rgb(236,64,121)" stroke="rgb(236,64,121)" stroke-width="1" opacity="0.5215686274509804" d="M 441.5 166 Q 452.7 171.8 460 181.5 L 468 195.5 L 470 205.5 L 469 205.5 Q 465 183 449.5 172 L 442.5 168 L 441.5 166 Z " /><path fill="rgb(236,64,121)" stroke="rgb(236,64,121)" stroke-width="1" opacity="0.5215686274509804" d="M 331.5 199 L 332 201.5 L 330.5 206 L 330 202.5 L 331.5 199 Z " /><path fill="rgb(236,64,121)" stroke="rgb(236,64,121)" stroke-width="1" opacity="0.5215686274509804" d="M 329.5 207 L 330 211.5 L 329 211.5 L 329.5 207 Z " /><path fill="rgb(236,64,121)" stroke="rgb(236,64,121)" stroke-width="1" opacity="0.5215686274509804" d="M 470.5 207 L 471 211.5 L 470 211.5 L 470.5 207 Z " /><path fill="rgb(236,64,121)" stroke="rgb(236,64,121)" stroke-width="1" opacity="0.5215686274509804" d="M 328.5 213 L 329 216.5 L 328 216.5 L 328.5 213 Z " /><path fill="rgb(236,64,121)" stroke="rgb(236,64,121)" stroke-width="1" opacity="0.5215686274509804" d="M 471.5 213 L 472 216.5 L 471 216.5 L 471.5 213 Z " /><path fill="rgb(236,64,121)" stroke="rgb(236,64,121)" stroke-width="1" opacity="0.5215686274509804" d="M 327.5 218 L 328 222.5 L 327 222.5 L 327.5 218 Z " /><path fill="rgb(236,64,121)" stroke="rgb(236,64,121)" stroke-width="1" opacity="0.5215686274509804" d="M 472.5 218 L 473 222.5 L 472 222.5 L 472.5 218 Z " /><path fill="rgb(236,64,121)" stroke="rgb(236,64,121)" stroke-width="1" opacity="0.5215686274509804" d="M 326.5 224 L 327 227.5 L 326 227.5 L 326.5 224 Z " /><path fill="rgb(236,64,121)" stroke="rgb(236,64,121)" stroke-width="1" opacity="0.5215686274509804" d="M 473.5 224 L 474 227.5 L 473 227.5 L 473.5 224 Z " /><path fill="rgb(236,64,121)" stroke="rgb(236,64,121)" stroke-width="1" opacity="0.5215686274509804" d="M 325.5 229 L 326 233.5 L 325 233.5 L 325.5 229 Z " /><path fill="rgb(236,64,121)" stroke="rgb(236,64,121)" stroke-width="1" opacity="0.5215686274509804" d="M 474.5 229 L 475 233.5 L 474 233.5 L 474.5 229 Z " /><path fill="rgb(236,64,121)" stroke="rgb(236,64,121)" stroke-width="1" opacity="0.5215686274509804" d="M 324.5 235 L 325 238.5 L 324 238.5 L 324.5 235 Z " /><path fill="rgb(236,64,121)" stroke="rgb(236,64,121)" stroke-width="1" opacity="0.5215686274509804" d="M 475.5 235 L 476 238.5 L 475 238.5 L 475.5 235 Z " /><path fill="rgb(236,64,121)" stroke="rgb(236,64,121)" stroke-width="1" opacity="0.5215686274509804" d="M 323.5 240 L 324 244.5 L 323 244.5 L 323.5 240 Z " /><path fill="rgb(236,64,121)" stroke="rgb(236,64,121)" stroke-width="1" opacity="0.5215686274509804" d="M 476.5 240 L 477 244.5 L 476 244.5 L 476.5 240 Z " /><path fill="rgb(236,64,121)" stroke="rgb(236,64,121)" stroke-width="1" opacity="0.5215686274509804" d="M 322.5 246 L 323 249.5 L 322 249.5 L 322.5 246 Z " /><path fill="rgb(236,64,121)" stroke="rgb(236,64,121)" stroke-width="1" opacity="0.5215686274509804" d="M 477.5 246 L 478 249.5 L 477 249.5 L 477.5 246 Z " /><path fill="rgb(236,64,121)" stroke="rgb(236,64,121)" stroke-width="1" opacity="0.5215686274509804" d="M 321.5 251 L 322 255.5 L 321 255.5 L 321.5 251 Z " /><path fill="rgb(236,64,121)" stroke="rgb(236,64,121)" stroke-width="1" opacity="0.5215686274509804" d="M 478.5 251 L 479 255.5 L 478 255.5 L 478.5 251 Z " /><path fill="rgb(236,64,121)" stroke="rgb(236,64,121)" stroke-width="1" opacity="0.5215686274509804" d="M 320.5 257 L 321 260.5 L 320 260.5 L 320.5 257 Z " /><path fill="rgb(236,64,121)" stroke="rgb(236,64,121)" stroke-width="1" opacity="0.5215686274509804" d="M 479.5 257 L 480 260.5 L 479 260.5 L 479.5 257 Z " /><path fill="rgb(236,64,121)" stroke="rgb(236,64,121)" stroke-width="1" opacity="0.5215686274509804" d="M 319.5 262 L 320 266.5 L 319 266.5 L 319.5 262 Z " /><path fill="rgb(236,64,121)" stroke="rgb(236,64,121)" stroke-width="1" opacity="0.5215686274509804" d="M 480.5 262 L 481 266.5 L 480 266.5 L 480.5 262 Z " /><path fill="rgb(236,64,121)" stroke="rgb(236,64,121)" stroke-width="1" opacity="0.5215686274509804" d="M 318.5 268 L 319 271.5 L 318 271.5 L 318.5 268 Z " /><path fill="rgb(236,64,121)" stroke="rgb(236,64,121)" stroke-width="1" opacity="0.5215686274509804" d="M 481.5 268 L 482 271.5 L 481 271.5 L 481.5 268 Z " /><path fill="rgb(236,64,121)" stroke="rgb(236,64,121)" stroke-width="1" opacity="0.5215686274509804" d="M 317.5 273 L 318 277.5 L 317 277.5 L 317.5 273 Z " /><path fill="rgb(236,64,121)" stroke="rgb(236,64,121)" stroke-width="1" opacity="0.5215686274509804" d="M 482.5 273 L 483 277.5 L 482 277.5 L 482.5 273 Z " /><path fill="rgb(236,64,121)" stroke="rgb(236,64,121)" stroke-width="1" opacity="0.5215686274509804" d="M 316.5 279 L 317 282.5 L 316 282.5 L 316.5 279 Z " /><path fill="rgb(236,64,121)" stroke="rgb(236,64,121)" stroke-width="1" opacity="0.5215686274509804" d="M 483.5 279 L 484 282.5 L 483 282.5 L 483.5 279 Z " /><path fill="rgb(236,64,121)" stroke="rgb(236,64,121)" stroke-width="1" opacity="0.5215686274509804" d="M 315.5 284 L 316 288.5 L 315 288.5 L 315.5 284 Z " /><path fill="rgb(236,64,121)" stroke="rgb(236,64,121)" stroke-width="1" opacity="0.5215686274509804" d="M 484.5 284 L 485 288.5 L 484 288.5 L 484.5 284 Z " /><path fill="rgb(236,64,121)" stroke="rgb(236,64,121)" stroke-width="1" opacity="0.5215686274509804" d="M 314.5 290 L 315 293.5 L 314 293.5 L 314.5 290 Z " /><path fill="rgb(236,64,121)" stroke="rgb(236,64,121)" stroke-width="1" opacity="0.5215686274509804" d="M 485.5 290 L 486 293.5 L 485 293.5 L 485.5 290 Z " /><path fill="rgb(236,64,121)" stroke="rgb(236,64,121)" stroke-width="1" opacity="0.5215686274509804" d="M 313.5 295 L 314 299.5 L 313 299.5 L 313.5 295 Z " /><path fill="rgb(236,64,121)" stroke="rgb(236,64,121)" stroke-width="1" opacity="0.5215686274509804" d="M 486.5 295 L 487 299.5 L 486 299.5 L 486.5 295 Z " /><path fill="rgb(236,64,121)" stroke="rgb(236,64,121)" stroke-width="1" opacity="0.5215686274509804" d="M 312.5 301 L 313 304.5 L 312 304.5 L 312.5 301 Z " /><path fill="rgb(236,64,121)" stroke="rgb(236,64,121)" stroke-width="1" opacity="0.5215686274509804" d="M 487.5 301 L 488 304.5 L 487 304.5 L 487.5 301 Z " /><path fill="rgb(236,64,121)" stroke="rgb(236,64,121)" stroke-width="1" opacity="0.5215686274509804" d="M 311.5 306 L 312 310.5 L 311 310.5 L 311.5 306 Z " /><path fill="rgb(236,64,121)" stroke="rgb(236,64,121)" stroke-width="1" opacity="0.5215686274509804" d="M 488.5 306 L 489 310.5 L 488 310.5 L 488.5 306 Z " /><path fill="rgb(236,64,121)" stroke="rgb(236,64,121)" stroke-width="1" opacity="0.5215686274509804" d="M 310.5 312 L 311 315.5 L 310 315.5 L 310.5 312 Z " /><path fill="rgb(236,64,121)" stroke="rgb(236,64,121)" stroke-width="1" opacity="0.5215686274509804" d="M 489.5 312 L 490 315.5 L 489 315.5 L 489.5 312 Z " /><path fill="rgb(236,64,121)" stroke="rgb(236,64,121)" stroke-width="1" opacity="0.5215686274509804" d="M 309.5 317 L 310 321.5 L 309 321.5 L 309.5 317 Z " /><path fill="rgb(236,64,121)" stroke="rgb(236,64,121)" stroke-width="1" opacity="0.5215686274509804" d="M 490.5 317 L 491 321.5 L 490 321.5 L 490.5 317 Z " /><path fill="rgb(236,64,121)" stroke="rgb(236,64,121)" stroke-width="1" opacity="0.5215686274509804" d="M 308.5 323 L 309 326.5 L 308 326.5 L 308.5 323 Z " /><path fill="rgb(236,64,121)" stroke="rgb(236,64,121)" stroke-width="1" opacity="0.5215686274509804" d="M 491.5 323 L 492 326.5 L 491 326.5 L 491.5 323 Z " /><path fill="rgb(236,64,121)" stroke="rgb(236,64,121)" stroke-width="1" opacity="0.5215686274509804" d="M 307.5 328 L 308 332.5 L 307 332.5 L 307.5 328 Z " /><path fill="rgb(236,64,121)" stroke="rgb(236,64,121)" stroke-width="1" opacity="0.5215686274509804" d="M 492.5 328 L 493 332.5 L 492 332.5 L 492.5 328 Z " /><path fill="rgb(236,64,121)" stroke="rgb(236,64,121)" stroke-width="1" opacity="0.5215686274509804" d="M 306.5 334 L 307 337.5 L 306 337.5 L 306.5 334 Z " /><path fill="rgb(236,64,121)" stroke="rgb(236,64,121)" stroke-width="1" opacity="0.5215686274509804" d="M 493.5 334 L 494 337.5 L 493 337.5 L 493.5 334 Z " /><path fill="rgb(236,64,121)" stroke="rgb(236,64,121)" stroke-width="1" opacity="0.5215686274509804" d="M 305.5 339 L 306 343.5 L 305 343.5 L 305.5 339 Z " /><path fill="rgb(236,64,121)" stroke="rgb(236,64,121)" stroke-width="1" opacity="0.5215686274509804" d="M 494.5 339 L 495 343.5 L 494 343.5 L 494.5 339 Z " /><path fill="rgb(236,64,121)" stroke="rgb(236,64,121)" stroke-width="1" opacity="0.5215686274509804" d="M 304.5 345 L 305 348.5 L 304 348.5 L 304.5 345 Z " /><path fill="rgb(236,64,121)" stroke="rgb(236,64,121)" stroke-width="1" opacity="0.5215686274509804" d="M 495.5 345 L 496 348.5 L 495 348.5 L 495.5 345 Z " /><path fill="rgb(236,64,121)" stroke="rgb(236,64,121)" stroke-width="1" opacity="0.5215686274509804" d="M 304.5 355 Q 305.7 361.8 310.5 365 L 317 367.5 L 314.5 368 L 306 361.5 Q 303 359 304.5 355 Z " /><path fill="rgb(236,64,121)" stroke="rgb(236,64,121)" stroke-width="1" opacity="0.5215686274509804" d="M 495.5 355 L 496 357.5 L 489.5 366 L 483.5 368 L 483.5 367 Q 490.1 366.1 493 361.5 L 495.5 355 Z " /><path fill="rgb(236,64,121)" stroke="rgb(236,64,121)" stroke-width="1" opacity="0.5215686274509804" d="M 352.5 483 Q 353.7 489.8 358.5 493 L 365 495.5 L 362.5 496 L 354 489.5 Q 351 487 352.5 483 Z " /><path fill="rgb(236,64,121)" stroke="rgb(236,64,121)" stroke-width="1" opacity="0.5215686274509804" d="M 383.5 483 L 384 485.5 L 377.5 494 L 371.5 496 L 371.5 495 Q 378.1 494.1 381 489.5 L 383.5 483 Z " /><path fill="rgb(236,64,121)" stroke="rgb(236,64,121)" stroke-width="1" opacity="0.5215686274509804" d="M 416.5 483 Q 417.7 489.8 422.5 493 L 429 495.5 L 426.5 496 L 418 489.5 Q 415 487 416.5 483 Z " /><path fill="rgb(236,64,121)" stroke="rgb(236,64,121)" stroke-width="1" opacity="0.5215686274509804" d="M 447.5 483 L 448 485.5 L 441.5 494 L 435.5 496 L 435.5 495 Q 442.1 494.1 445 489.5 L 447.5 483 Z " /><path fill="rgb(119,143,156)" stroke="rgb(119,143,156)" stroke-width="1" opacity="0.9921568627450981" d="M 250.5 16 Q 265.9 13.6 270 22.5 L 272 26.5 L 272 485.5 L 265.5 494 Q 260.8 497.8 250.5 496 L 242 489.5 L 240 485.5 L 240 26.5 L 246.5 18 L 250.5 16 Z " /><path fill="rgb(65,165,245)" stroke="rgb(65,165,245)" stroke-width="1" opacity="0.984313725490196" d="M 98.5 16 L 120.5 16 L 131.5 19 Q 149.4 25.6 160 39.5 Q 168.2 49.2 172 63.5 L 174 74.5 L 174 85.5 L 172 96.5 L 165 113.5 L 149.5 131 Q 140.7 138.2 128.5 142 L 120.5 144 L 98.5 144 Q 75.3 139.2 62 124.5 Q 51.9 114.1 47 98.5 L 45 89.5 L 45 70.5 Q 49.7 45.7 65.5 32 Q 78 20 98.5 16 Z " /><path fill="rgb(65,165,245)" stroke="rgb(65,165,245)" stroke-width="1" opacity="0.984313725490196" d="M 51.5 160 L 166.5 160 Q 183 163.5 192 174.5 Q 198.8 182.2 202 193.5 L 203 212.5 L 202 213.5 L 202 223.5 L 201 224.5 L 201 234.5 L 200 235.5 L 200 245.5 L 199 246.5 L 199 256.5 L 198 257.5 L 198 267.5 L 197 268.5 L 197 278.5 L 196 279.5 L 196 289.5 L 195 290.5 L 195 300.5 L 194 301.5 L 190 354.5 Q 188.1 362.1 182.5 366 L 178.5 368 L 158 368 L 158 482.5 Q 156.6 490.6 150.5 494 Q 145.8 497.8 135.5 496 L 128 490.5 L 125 484.5 L 125 368 L 94.5 368 L 94 368.5 L 94 482.5 Q 92.6 490.6 86.5 494 Q 81.8 497.8 71.5 496 L 64 490.5 L 61 484.5 L 61 368 L 39.5 368 L 32 362.5 L 29 356.5 Q 30.5 351 28 349.5 L 28 339.5 L 27 338.5 L 27 328.5 L 26 327.5 L 26 317.5 L 25 316.5 L 25 306.5 L 24 305.5 L 24 295.5 L 23 294.5 L 23 284.5 L 22 283.5 L 20 251.5 L 19 250.5 L 19 240.5 L 18 239.5 L 18 229.5 L 17 228.5 L 17 218.5 L 16 217.5 L 16 195.5 Q 20.4 177.4 33.5 168 Q 40.8 162.3 51.5 160 Z " /><path fill="rgb(236,64,122)" stroke="rgb(236,64,122)" stroke-width="1" opacity="0.996078431372549" d="M 395.5 16 L 412.5 17 L 422.5 20 Q 437.3 25.7 447 36.5 Q 455.3 45.2 460 57.5 L 463 67.5 L 464 84.5 L 463 85.5 L 462 96.5 L 458 107.5 L 443.5 127 Q 434.8 135.3 422.5 140 L 412.5 143 L 395.5 144 L 394.5 143 L 383.5 142 L 372.5 138 L 353 123.5 Q 344.7 114.8 340 102.5 L 337 92.5 L 336 75.5 L 337 74.5 L 338 63.5 L 342 52.5 Q 347.9 40.5 357.5 32 L 372.5 22 L 383.5 18 L 394.5 17 L 395.5 16 Z " /><path fill="rgb(236,64,122)" stroke="rgb(236,64,122)" stroke-width="1" opacity="0.996078431372549" d="M 379.5 160 L 420.5 160 L 430.5 162 Q 448.7 167.8 459 181.5 Q 467.2 191.3 470 206.5 L 470 211.5 L 472 217.5 L 472 222.5 L 474 228.5 L 474 233.5 L 476 239.5 L 476 244.5 L 478 250.5 L 478 255.5 L 480 261.5 L 480 266.5 L 482 272.5 L 482 277.5 L 484 283.5 L 492 332.5 L 494 338.5 L 494 343.5 L 496 349.5 L 496 354.5 Q 494.4 361.4 489.5 365 L 482.5 368 L 448 368 L 448 482.5 Q 446.5 489.4 441.5 493 L 434.5 496 L 429.5 496 Q 422.5 494.4 419 489.5 L 416 482.5 L 416 368 L 384.5 368 L 384 368.5 L 384 482.5 Q 382.4 489.4 377.5 493 L 370.5 496 L 365.5 496 Q 358.6 494.4 355 489.5 L 352 482.5 L 352 368 L 317.5 368 Q 310.5 366.4 307 361.5 L 304 354.5 L 304 349.5 L 306 343.5 L 306 338.5 L 308 332.5 L 308 327.5 L 310 321.5 L 310 316.5 L 312 310.5 L 312 305.5 L 314 299.5 L 314 294.5 L 316 288.5 L 316 283.5 L 318 277.5 L 318 272.5 L 320 266.5 L 320 261.5 L 322 255.5 L 322 250.5 L 324 244.5 L 324 239.5 L 332 198.5 Q 337.8 181.8 350.5 172 L 361.5 165 L 379.5 160 Z " /></svg>