<svg width="125" height="92" viewBox="0 0 125 92" fill="none" xmlns="http://www.w3.org/2000/svg">
<path d="M125.5 45.5L26.5 11H49L125.5 38V45.5Z" fill="white"/>
<path d="M0.5 93.5L75 27L81.5 28L10.5 93.5H0.5Z" fill="white"/>
<path d="M26 93.5L95 32L101.5 33L36 93.5H26Z" fill="white"/>
<path d="M91 93.5L160 32L166.5 33L101 93.5H91Z" fill="white"/>
<path d="M51.5 48L120.5 72.5L115 77.5L45.5 53.5L51.5 48Z" fill="white"/>
<rect x="21" width="43" height="32" fill="url(#paint0_linear_622_2102)"/>
<path d="M102 52.3128C105.3 49.1503 110.7 49.1503 114 52.3128C117.3 55.4753 117.3 60.5545 114 63.8128L108.7 68.8919C108.3 69.2751 107.7 69.2752 107.3 68.8919L102 63.8128C98.7001 60.6504 98.7003 55.4753 102 52.3128ZM108 55.3929C106.58 55.3929 105.429 56.4959 105.429 57.8567C105.429 59.2177 106.58 60.3215 108 60.3216C109.42 60.3216 110.571 59.2177 110.571 57.8567C110.571 56.4959 109.42 55.3929 108 55.3929Z" fill="#20AEEA"/>
<path opacity="0.5" d="M99.0176 35.2197L70 62L51.5 55.5L33.0391 72.7002L28.9609 68.2998L51.5 48L69.5 54.5L94.9824 30.7803L99.0176 35.2197Z" fill="url(#paint1_linear_622_2102)"/>
<g clip-path="url(#clip0_622_2102)">
<path d="M90 15.25C93.85 11.4 100.15 11.4 104 15.25C107.85 19.1001 107.85 25.2834 104 29.25L97.8164 35.4336C97.3499 35.8999 96.6502 35.8998 96.1836 35.4336L90 29.25C86.15 25.4001 86.1501 19.1001 90 15.25ZM97 19C95.3432 19 94 20.3432 94 22C94.0001 23.6568 95.3432 25 97 25C98.6567 24.9999 99.9999 23.6567 100 22C100 20.3433 98.6568 19.0002 97 19Z" fill="#20AEEA"/>
</g>
<path d="M25 57.3128C28.3 54.1503 33.7 54.1503 37 57.3128C40.2999 60.4753 40.3 65.5545 37 68.8128L31.7002 73.8919C31.3002 74.2751 30.6997 74.2752 30.2998 73.8919L25 68.8128C21.7001 65.6504 21.7003 60.4753 25 57.3128ZM31 60.3929C29.58 60.3929 28.4289 61.4959 28.4287 62.8567C28.4287 64.2177 29.5799 65.3215 31 65.3216C32.4202 65.3216 33.5713 64.2177 33.5713 62.8567C33.5711 61.4959 32.42 60.3929 31 60.3929Z" fill="#20AEEA"/>
<defs>
<linearGradient id="paint0_linear_622_2102" x1="64" y1="16" x2="21" y2="16" gradientUnits="userSpaceOnUse">
<stop stop-color="#F1F8FA" stop-opacity="0"/>
<stop offset="1" stop-color="#F1F8FA"/>
</linearGradient>
<linearGradient id="paint1_linear_622_2102" x1="96.5" y1="34.5" x2="30.5" y2="72.5" gradientUnits="userSpaceOnUse">
<stop stop-color="#20AEEA" stop-opacity="0"/>
<stop offset="1" stop-color="#20AEEA"/>
</linearGradient>
<clipPath id="clip0_622_2102">
<rect width="28" height="28" fill="white" transform="translate(83 10)"/>
</clipPath>
</defs>
</svg>
