<svg width="20" height="17" viewBox="0 0 20 17" fill="none" xmlns="http://www.w3.org/2000/svg">
<path d="M19 4.8457C18.502 4.83597 18.013 4.71078 17.5715 4.47999C17.1301 4.24921 16.7482 3.91912 16.456 3.5157C16 3.0087 15.817 2.8457 15.4 2.8457C14.983 2.8457 14.8 3.0087 14.341 3.5147C14.0554 3.9246 13.675 4.2594 13.2321 4.49059C12.7893 4.72179 12.2971 4.84253 11.7975 4.84253C11.2979 4.84253 10.8057 4.72179 10.3629 4.49059C9.92002 4.2594 9.53959 3.9246 9.254 3.5147C8.8 3.0087 8.613 2.8457 8.194 2.8457C7.775 2.8457 7.594 3.0087 7.139 3.5147C6.8475 3.91775 6.4665 4.24771 6.02595 4.47865C5.5854 4.7096 5.0973 4.83524 4.6 4.8457C4.10168 4.83616 3.61238 4.71096 3.17072 4.47998C2.72906 4.24899 2.34711 3.91855 2.055 3.5147C1.6 3.0087 1.418 2.8457 1 2.8457C0.734784 2.8457 0.48043 2.74035 0.292893 2.55281C0.105357 2.36527 0 2.11092 0 1.8457C0 1.58049 0.105357 1.32613 0.292893 1.1386C0.48043 0.95106 0.734784 0.845703 1 0.845703C1.49781 0.855707 1.98651 0.981128 2.42762 1.21209C2.86872 1.44306 3.25019 1.77326 3.542 2.1767C4 2.6827 4.178 2.8457 4.6 2.8457C5.022 2.8457 5.2 2.6827 5.655 2.1767C5.9465 1.77366 6.3275 1.4437 6.76805 1.21275C7.2086 0.981809 7.6967 0.856168 8.194 0.845703C8.69192 0.85586 9.18071 0.981342 9.62195 1.21229C10.0632 1.44323 10.4449 1.77335 10.737 2.1767C11.191 2.6827 11.374 2.8457 11.792 2.8457C12.21 2.8457 12.392 2.6827 12.852 2.1757C13.1375 1.7654 13.518 1.43024 13.9611 1.19878C14.4042 0.967325 14.8966 0.846443 15.3965 0.846443C15.8964 0.846443 16.3888 0.967325 16.8319 1.19878C17.275 1.43024 17.6555 1.7654 17.941 2.1757C18.4 2.6827 18.58 2.8457 19 2.8457C19.2652 2.8457 19.5196 2.95106 19.7071 3.1386C19.8946 3.32613 20 3.58049 20 3.8457C20 4.11092 19.8946 4.36527 19.7071 4.55281C19.5196 4.74035 19.2652 4.8457 19 4.8457ZM19 10.8457C18.502 10.836 18.013 10.7108 17.5715 10.48C17.1301 10.2492 16.7482 9.91912 16.456 9.5157C16 9.0087 15.817 8.8457 15.4 8.8457C14.983 8.8457 14.8 9.0087 14.341 9.5147C14.0554 9.9246 13.675 10.2594 13.2321 10.4906C12.7893 10.7218 12.2971 10.8425 11.7975 10.8425C11.2979 10.8425 10.8057 10.7218 10.3629 10.4906C9.92002 10.2594 9.53959 9.9246 9.254 9.5147C8.8 9.0087 8.613 8.8457 8.194 8.8457C7.775 8.8457 7.594 9.0087 7.139 9.5147C6.8475 9.91775 6.4665 10.2477 6.02595 10.4787C5.5854 10.7096 5.0973 10.8352 4.6 10.8457C4.10219 10.8357 3.61349 10.7103 3.17238 10.4793C2.73128 10.2483 2.34981 9.91815 2.058 9.5147C1.6 9.0087 1.418 8.8457 1 8.8457C0.734784 8.8457 0.48043 8.74035 0.292893 8.55281C0.105357 8.36527 0 8.11092 0 7.8457C0 7.58049 0.105357 7.32613 0.292893 7.1386C0.48043 6.95106 0.734784 6.8457 1 6.8457C1.49781 6.85571 1.98651 6.98113 2.42762 7.21209C2.86872 7.44306 3.25019 7.77326 3.542 8.1767C4 8.6827 4.178 8.8457 4.6 8.8457C5.022 8.8457 5.2 8.6827 5.655 8.1767C5.9465 7.77366 6.3275 7.4437 6.76805 7.21275C7.2086 6.98181 7.6967 6.85617 8.194 6.8457C8.69192 6.85586 9.18071 6.98134 9.62195 7.21229C10.0632 7.44323 10.4449 7.77335 10.737 8.1767C11.191 8.6827 11.374 8.8457 11.792 8.8457C12.21 8.8457 12.392 8.6827 12.852 8.1757C13.1375 7.7654 13.518 7.43024 13.9611 7.19878C14.4042 6.96732 14.8966 6.84644 15.3965 6.84644C15.8964 6.84644 16.3888 6.96732 16.8319 7.19878C17.275 7.43024 17.6555 7.7654 17.941 8.1757C18.4 8.6827 18.58 8.8457 19 8.8457C19.2652 8.8457 19.5196 8.95106 19.7071 9.1386C19.8946 9.32613 20 9.58049 20 9.8457C20 10.1109 19.8946 10.3653 19.7071 10.5528C19.5196 10.7403 19.2652 10.8457 19 10.8457ZM19 16.8457C18.502 16.836 18.013 16.7108 17.5715 16.48C17.1301 16.2492 16.7482 15.9191 16.456 15.5157C16 15.0087 15.817 14.8457 15.4 14.8457C14.983 14.8457 14.8 15.0087 14.341 15.5147C14.0554 15.9246 13.675 16.2594 13.2321 16.4906C12.7893 16.7218 12.2971 16.8425 11.7975 16.8425C11.2979 16.8425 10.8057 16.7218 10.3629 16.4906C9.92002 16.2594 9.53959 15.9246 9.254 15.5147C8.8 15.0087 8.613 14.8457 8.194 14.8457C7.775 14.8457 7.594 15.0087 7.139 15.5147C6.8475 15.9177 6.4665 16.2477 6.02595 16.4787C5.5854 16.7096 5.0973 16.8352 4.6 16.8457C4.10219 16.8357 3.61349 16.7103 3.17238 16.4793C2.73128 16.2484 2.34981 15.9181 2.058 15.5147C1.6 15.0087 1.418 14.8457 1 14.8457C0.734784 14.8457 0.48043 14.7403 0.292893 14.5528C0.105357 14.3653 0 14.1109 0 13.8457C0 13.5805 0.105357 13.3261 0.292893 13.1386C0.48043 12.9511 0.734784 12.8457 1 12.8457C1.49781 12.8557 1.98651 12.9811 2.42762 13.2121C2.86872 13.4431 3.25019 13.7733 3.542 14.1767C4 14.6827 4.178 14.8457 4.6 14.8457C5.022 14.8457 5.2 14.6827 5.655 14.1767C5.9465 13.7737 6.3275 13.4437 6.76805 13.2128C7.2086 12.9818 7.6967 12.8562 8.194 12.8457C8.69192 12.8559 9.18071 12.9813 9.62195 13.2123C10.0632 13.4432 10.4449 13.7733 10.737 14.1767C11.191 14.6827 11.374 14.8457 11.792 14.8457C12.21 14.8457 12.392 14.6827 12.852 14.1757C13.1375 13.7654 13.518 13.4302 13.9611 13.1988C14.4042 12.9673 14.8966 12.8464 15.3965 12.8464C15.8964 12.8464 16.3888 12.9673 16.8319 13.1988C17.275 13.4302 17.6555 13.7654 17.941 14.1757C18.4 14.6827 18.58 14.8457 19 14.8457C19.2652 14.8457 19.5196 14.9511 19.7071 15.1386C19.8946 15.3261 20 15.5805 20 15.8457C20 16.1109 19.8946 16.3653 19.7071 16.5528C19.5196 16.7403 19.2652 16.8457 19 16.8457Z" fill="#8ED5FF"/>
</svg>
