<svg width="1716" height="563" viewBox="0 0 1716 563" fill="none" xmlns="http://www.w3.org/2000/svg">
<g clip-path="url(#clip0_844_2307)">
<path d="M246.704 123.154H332.872V177.075H425.913V253.199H400.01C405.296 264.3 407.939 276.988 407.939 290.204C407.939 356.812 360.362 402.275 287.938 402.275H52.7812V327.737H287.938C308.555 327.737 321.242 312.935 321.242 291.261C321.242 269.587 308.555 255.313 287.938 255.313C268.379 255.313 255.163 269.587 255.163 291.261C255.163 297.076 257.806 303.948 260.978 309.235H173.752C171.109 305.534 168.466 297.605 168.466 290.204C168.466 276.988 171.109 264.3 176.396 253.199H150.492V177.075H246.704V123.154Z" fill="#A8AEBA"/>
<path d="M1056.03 248.989H831.363C802.288 248.989 786.957 232.072 786.957 209.87V94.0977H965.108V66.0798H786.957V0H1006.34C1035.42 0 1050.75 16.3878 1050.75 39.1193V152.248H872.596V181.852H1056.03V248.989Z" fill="#A8AEBA"/>
<path d="M699.205 279.12H1139.03V353.658H962.995V477.888H875.242V353.658H699.205V279.12Z" fill="#B9C4D1"/>
<path d="M1714.76 279.119H1715.29V353.657H1710C1638.64 353.657 1596.87 318.767 1596.87 239.471V195.065H1561.98V353.657H1478.99V16.914H1561.98V119.999H1596.87V13.7422H1680.93V223.612C1680.93 263.26 1688.86 279.119 1714.76 279.119Z" fill="#A8AEBA"/>
<path d="M1458.37 204.585H1432.47C1437.75 215.687 1440.4 228.374 1440.4 241.59C1440.4 308.198 1392.82 353.661 1320.4 353.661H1138.02V279.123H1320.4C1341.01 279.123 1353.7 264.321 1353.7 242.647C1353.7 220.973 1341.01 206.7 1320.4 206.7C1300.84 206.7 1287.62 220.973 1287.62 242.647C1287.62 248.462 1290.26 255.334 1293.44 260.621H1206.21C1203.57 256.92 1200.92 248.991 1200.92 241.59C1200.92 228.374 1203.57 215.687 1208.85 204.585H1182.95V128.461H1279.16V74.54H1365.33V128.461H1458.37V204.585Z" fill="#B9C4D1"/>
<path d="M1421.89 386.433H1509.65L1508.59 494H1679.87V562.998H1466.3C1440.93 562.998 1421.89 547.139 1421.89 521.764V386.433Z" fill="#D0CCC9"/>
<rect x="281" y="493" width="1399" height="70" fill="#D0CCC9"/>
<mask id="mask0_844_2307" style="mask-type:alpha" maskUnits="userSpaceOnUse" x="0" y="17" width="546" height="547">
<path d="M475.031 290.298C475.031 178.556 384.445 87.9704 272.703 87.9704C160.96 87.9704 70.3749 178.556 70.3749 290.298C70.3749 402.041 160.96 492.626 272.703 492.626V563.001C122.093 563.001 0 440.908 0 290.298C0 139.689 122.093 17.5955 272.703 17.5955C423.312 17.5955 545.406 139.689 545.406 290.298C545.406 440.908 423.312 563.001 272.703 563.001V492.626C384.445 492.626 475.031 402.041 475.031 290.298Z" fill="#D0CCC9"/>
</mask>
<g mask="url(#mask0_844_2307)">
<rect x="263.908" y="17.5955" width="211.125" height="211.125" fill="#D0CCC9"/>
</g>
<mask id="mask1_844_2307" style="mask-type:alpha" maskUnits="userSpaceOnUse" x="0" y="17" width="546" height="547">
<path d="M475.031 290.298C475.031 178.556 384.445 87.9704 272.703 87.9704C160.96 87.9704 70.3749 178.556 70.3749 290.298C70.3749 402.041 160.96 492.626 272.703 492.626V563.001C122.093 563.001 0 440.908 0 290.298C0 139.689 122.093 17.5955 272.703 17.5955C423.312 17.5955 545.406 139.689 545.406 290.298C545.406 440.908 423.312 563.001 272.703 563.001V492.626C384.445 492.626 475.031 402.041 475.031 290.298Z" fill="#D0CCC9"/>
</mask>
<g mask="url(#mask1_844_2307)">
<rect y="-17.5906" width="281.5" height="580.593" fill="#D0CCC9"/>
</g>
<path d="M699.818 279.119H700.346V353.657H695.06C623.694 353.657 581.931 318.767 581.931 239.471V195.065H547.041V353.657H464.045V16.914H547.041V119.999H581.931V13.7422H665.985V223.612C665.985 263.26 673.914 279.119 699.818 279.119Z" fill="#B9C4D1"/>
</g>
<defs>
<clipPath id="clip0_844_2307">
<rect width="1715.29" height="563.001" fill="white"/>
</clipPath>
</defs>
</svg>
